<svg version="1.1" xmlns="http://www.w3.org/2000/svg" xmlns:xlink="http://www.w3.org/1999/xlink" width="1123" height="627"><defs/><g><text fill="#eeeeee" stroke="none" font-family="Arial" font-size="24px" font-style="normal" font-weight="normal" text-decoration="none" x="0" y="0">UNREGISTERED</text><text fill="#eeeeee" stroke="none" font-family="Arial" font-size="24px" font-style="normal" font-weight="normal" text-decoration="none" x="0" y="30">UNREGISTERED</text><text fill="#eeeeee" stroke="none" font-family="Arial" font-size="24px" font-style="normal" font-weight="normal" text-decoration="none" x="0" y="60">UNREGISTERED</text><text fill="#eeeeee" stroke="none" font-family="Arial" font-size="24px" font-style="normal" font-weight="normal" text-decoration="none" x="0" y="90">UNREGISTERED</text><text fill="#eeeeee" stroke="none" font-family="Arial" font-size="24px" font-style="normal" font-weight="normal" text-decoration="none" x="0" y="120">UNREGISTERED</text><text fill="#eeeeee" stroke="none" font-family="Arial" font-size="24px" font-style="normal" font-weight="normal" text-decoration="none" x="0" y="150">UNREGISTERED</text><text fill="#eeeeee" stroke="none" font-family="Arial" font-size="24px" font-style="normal" font-weight="normal" text-decoration="none" x="0" y="180">UNREGISTERED</text><text fill="#eeeeee" stroke="none" font-family="Arial" font-size="24px" font-style="normal" font-weight="normal" text-decoration="none" x="0" y="210">UNREGISTERED</text><text fill="#eeeeee" stroke="none" font-family="Arial" font-size="24px" font-style="normal" font-weight="normal" text-decoration="none" x="0" y="240">UNREGISTERED</text><text fill="#eeeeee" stroke="none" font-family="Arial" font-size="24px" font-style="normal" font-weight="normal" text-decoration="none" x="0" y="270">UNREGISTERED</text><text fill="#eeeeee" stroke="none" font-family="Arial" font-size="24px" font-style="normal" font-weight="normal" text-decoration="none" x="0" y="300">UNREGISTERED</text><text fill="#eeeeee" stroke="none" font-family="Arial" font-size="24px" font-style="normal" font-weight="normal" text-decoration="none" x="0" y="330">UNREGISTERED</text><text fill="#eeeeee" stroke="none" font-family="Arial" font-size="24px" font-style="normal" font-weight="normal" text-decoration="none" x="0" y="360">UNREGISTERED</text><text fill="#eeeeee" stroke="none" font-family="Arial" font-size="24px" font-style="normal" font-weight="normal" text-decoration="none" x="0" y="390">UNREGISTERED</text><text fill="#eeeeee" stroke="none" font-family="Arial" font-size="24px" font-style="normal" font-weight="normal" text-decoration="none" x="0" y="420">UNREGISTERED</text><text fill="#eeeeee" stroke="none" font-family="Arial" font-size="24px" font-style="normal" font-weight="normal" text-decoration="none" x="0" y="450">UNREGISTERED</text><text fill="#eeeeee" stroke="none" font-family="Arial" font-size="24px" font-style="normal" font-weight="normal" text-decoration="none" x="0" y="480">UNREGISTERED</text><text fill="#eeeeee" stroke="none" font-family="Arial" font-size="24px" font-style="normal" font-weight="normal" text-decoration="none" x="0" y="510">UNREGISTERED</text><text fill="#eeeeee" stroke="none" font-family="Arial" font-size="24px" font-style="normal" font-weight="normal" text-decoration="none" x="0" y="540">UNREGISTERED</text><text fill="#eeeeee" stroke="none" font-family="Arial" font-size="24px" font-style="normal" font-weight="normal" text-decoration="none" x="0" y="570">UNREGISTERED</text><text fill="#eeeeee" stroke="none" font-family="Arial" font-size="24px" font-style="normal" font-weight="normal" text-decoration="none" x="0" y="600">UNREGISTERED</text><text fill="#eeeeee" stroke="none" font-family="Arial" font-size="24px" font-style="normal" font-weight="normal" text-decoration="none" x="200" y="0">UNREGISTERED</text><text fill="#eeeeee" stroke="none" font-family="Arial" font-size="24px" font-style="normal" font-weight="normal" text-decoration="none" x="200" y="30">UNREGISTERED</text><text fill="#eeeeee" stroke="none" font-family="Arial" font-size="24px" font-style="normal" font-weight="normal" text-decoration="none" x="200" y="60">UNREGISTERED</text><text fill="#eeeeee" stroke="none" font-family="Arial" font-size="24px" font-style="normal" font-weight="normal" text-decoration="none" x="200" y="90">UNREGISTERED</text><text fill="#eeeeee" stroke="none" font-family="Arial" font-size="24px" font-style="normal" font-weight="normal" text-decoration="none" x="200" y="120">UNREGISTERED</text><text fill="#eeeeee" stroke="none" font-family="Arial" font-size="24px" font-style="normal" font-weight="normal" text-decoration="none" x="200" y="150">UNREGISTERED</text><text fill="#eeeeee" stroke="none" font-family="Arial" font-size="24px" font-style="normal" font-weight="normal" text-decoration="none" x="200" y="180">UNREGISTERED</text><text fill="#eeeeee" stroke="none" font-family="Arial" font-size="24px" font-style="normal" font-weight="normal" text-decoration="none" x="200" y="210">UNREGISTERED</text><text fill="#eeeeee" stroke="none" font-family="Arial" font-size="24px" font-style="normal" font-weight="normal" text-decoration="none" x="200" y="240">UNREGISTERED</text><text fill="#eeeeee" stroke="none" font-family="Arial" font-size="24px" font-style="normal" font-weight="normal" text-decoration="none" x="200" y="270">UNREGISTERED</text><text fill="#eeeeee" stroke="none" font-family="Arial" font-size="24px" font-style="normal" font-weight="normal" text-decoration="none" x="200" y="300">UNREGISTERED</text><text fill="#eeeeee" stroke="none" font-family="Arial" font-size="24px" font-style="normal" font-weight="normal" text-decoration="none" x="200" y="330">UNREGISTERED</text><text fill="#eeeeee" stroke="none" font-family="Arial" font-size="24px" font-style="normal" font-weight="normal" text-decoration="none" x="200" y="360">UNREGISTERED</text><text fill="#eeeeee" stroke="none" font-family="Arial" font-size="24px" font-style="normal" font-weight="normal" text-decoration="none" x="200" y="390">UNREGISTERED</text><text fill="#eeeeee" stroke="none" font-family="Arial" font-size="24px" font-style="normal" font-weight="normal" text-decoration="none" x="200" y="420">UNREGISTERED</text><text fill="#eeeeee" stroke="none" font-family="Arial" font-size="24px" font-style="normal" font-weight="normal" text-decoration="none" x="200" y="450">UNREGISTERED</text><text fill="#eeeeee" stroke="none" font-family="Arial" font-size="24px" font-style="normal" font-weight="normal" text-decoration="none" x="200" y="480">UNREGISTERED</text><text fill="#eeeeee" stroke="none" font-family="Arial" font-size="24px" font-style="normal" font-weight="normal" text-decoration="none" x="200" y="510">UNREGISTERED</text><text fill="#eeeeee" stroke="none" font-family="Arial" font-size="24px" font-style="normal" font-weight="normal" text-decoration="none" x="200" y="540">UNREGISTERED</text><text fill="#eeeeee" stroke="none" font-family="Arial" font-size="24px" font-style="normal" font-weight="normal" text-decoration="none" x="200" y="570">UNREGISTERED</text><text fill="#eeeeee" stroke="none" font-family="Arial" font-size="24px" font-style="normal" font-weight="normal" text-decoration="none" x="200" y="600">UNREGISTERED</text><text fill="#eeeeee" stroke="none" font-family="Arial" font-size="24px" font-style="normal" font-weight="normal" text-decoration="none" x="400" y="0">UNREGISTERED</text><text fill="#eeeeee" stroke="none" font-family="Arial" font-size="24px" font-style="normal" font-weight="normal" text-decoration="none" x="400" y="30">UNREGISTERED</text><text fill="#eeeeee" stroke="none" font-family="Arial" font-size="24px" font-style="normal" font-weight="normal" text-decoration="none" x="400" y="60">UNREGISTERED</text><text fill="#eeeeee" stroke="none" font-family="Arial" font-size="24px" font-style="normal" font-weight="normal" text-decoration="none" x="400" y="90">UNREGISTERED</text><text fill="#eeeeee" stroke="none" font-family="Arial" font-size="24px" font-style="normal" font-weight="normal" text-decoration="none" x="400" y="120">UNREGISTERED</text><text fill="#eeeeee" stroke="none" font-family="Arial" font-size="24px" font-style="normal" font-weight="normal" text-decoration="none" x="400" y="150">UNREGISTERED</text><text fill="#eeeeee" stroke="none" font-family="Arial" font-size="24px" font-style="normal" font-weight="normal" text-decoration="none" x="400" y="180">UNREGISTERED</text><text fill="#eeeeee" stroke="none" font-family="Arial" font-size="24px" font-style="normal" font-weight="normal" text-decoration="none" x="400" y="210">UNREGISTERED</text><text fill="#eeeeee" stroke="none" font-family="Arial" font-size="24px" font-style="normal" font-weight="normal" text-decoration="none" x="400" y="240">UNREGISTERED</text><text fill="#eeeeee" stroke="none" font-family="Arial" font-size="24px" font-style="normal" font-weight="normal" text-decoration="none" x="400" y="270">UNREGISTERED</text><text fill="#eeeeee" stroke="none" font-family="Arial" font-size="24px" font-style="normal" font-weight="normal" text-decoration="none" x="400" y="300">UNREGISTERED</text><text fill="#eeeeee" stroke="none" font-family="Arial" font-size="24px" font-style="normal" font-weight="normal" text-decoration="none" x="400" y="330">UNREGISTERED</text><text fill="#eeeeee" stroke="none" font-family="Arial" font-size="24px" font-style="normal" font-weight="normal" text-decoration="none" x="400" y="360">UNREGISTERED</text><text fill="#eeeeee" stroke="none" font-family="Arial" font-size="24px" font-style="normal" font-weight="normal" text-decoration="none" x="400" y="390">UNREGISTERED</text><text fill="#eeeeee" stroke="none" font-family="Arial" font-size="24px" font-style="normal" font-weight="normal" text-decoration="none" x="400" y="420">UNREGISTERED</text><text fill="#eeeeee" stroke="none" font-family="Arial" font-size="24px" font-style="normal" font-weight="normal" text-decoration="none" x="400" y="450">UNREGISTERED</text><text fill="#eeeeee" stroke="none" font-family="Arial" font-size="24px" font-style="normal" font-weight="normal" text-decoration="none" x="400" y="480">UNREGISTERED</text><text fill="#eeeeee" stroke="none" font-family="Arial" font-size="24px" font-style="normal" font-weight="normal" text-decoration="none" x="400" y="510">UNREGISTERED</text><text fill="#eeeeee" stroke="none" font-family="Arial" font-size="24px" font-style="normal" font-weight="normal" text-decoration="none" x="400" y="540">UNREGISTERED</text><text fill="#eeeeee" stroke="none" font-family="Arial" font-size="24px" font-style="normal" font-weight="normal" text-decoration="none" x="400" y="570">UNREGISTERED</text><text fill="#eeeeee" stroke="none" font-family="Arial" font-size="24px" font-style="normal" font-weight="normal" text-decoration="none" x="400" y="600">UNREGISTERED</text><text fill="#eeeeee" stroke="none" font-family="Arial" font-size="24px" font-style="normal" font-weight="normal" text-decoration="none" x="600" y="0">UNREGISTERED</text><text fill="#eeeeee" stroke="none" font-family="Arial" font-size="24px" font-style="normal" font-weight="normal" text-decoration="none" x="600" y="30">UNREGISTERED</text><text fill="#eeeeee" stroke="none" font-family="Arial" font-size="24px" font-style="normal" font-weight="normal" text-decoration="none" x="600" y="60">UNREGISTERED</text><text fill="#eeeeee" stroke="none" font-family="Arial" font-size="24px" font-style="normal" font-weight="normal" text-decoration="none" x="600" y="90">UNREGISTERED</text><text fill="#eeeeee" stroke="none" font-family="Arial" font-size="24px" font-style="normal" font-weight="normal" text-decoration="none" x="600" y="120">UNREGISTERED</text><text fill="#eeeeee" stroke="none" font-family="Arial" font-size="24px" font-style="normal" font-weight="normal" text-decoration="none" x="600" y="150">UNREGISTERED</text><text fill="#eeeeee" stroke="none" font-family="Arial" font-size="24px" font-style="normal" font-weight="normal" text-decoration="none" x="600" y="180">UNREGISTERED</text><text fill="#eeeeee" stroke="none" font-family="Arial" font-size="24px" font-style="normal" font-weight="normal" text-decoration="none" x="600" y="210">UNREGISTERED</text><text fill="#eeeeee" stroke="none" font-family="Arial" font-size="24px" font-style="normal" font-weight="normal" text-decoration="none" x="600" y="240">UNREGISTERED</text><text fill="#eeeeee" stroke="none" font-family="Arial" font-size="24px" font-style="normal" font-weight="normal" text-decoration="none" x="600" y="270">UNREGISTERED</text><text fill="#eeeeee" stroke="none" font-family="Arial" font-size="24px" font-style="normal" font-weight="normal" text-decoration="none" x="600" y="300">UNREGISTERED</text><text fill="#eeeeee" stroke="none" font-family="Arial" font-size="24px" font-style="normal" font-weight="normal" text-decoration="none" x="600" y="330">UNREGISTERED</text><text fill="#eeeeee" stroke="none" font-family="Arial" font-size="24px" font-style="normal" font-weight="normal" text-decoration="none" x="600" y="360">UNREGISTERED</text><text fill="#eeeeee" stroke="none" font-family="Arial" font-size="24px" font-style="normal" font-weight="normal" text-decoration="none" x="600" y="390">UNREGISTERED</text><text fill="#eeeeee" stroke="none" font-family="Arial" font-size="24px" font-style="normal" font-weight="normal" text-decoration="none" x="600" y="420">UNREGISTERED</text><text fill="#eeeeee" stroke="none" font-family="Arial" font-size="24px" font-style="normal" font-weight="normal" text-decoration="none" x="600" y="450">UNREGISTERED</text><text fill="#eeeeee" stroke="none" font-family="Arial" font-size="24px" font-style="normal" font-weight="normal" text-decoration="none" x="600" y="480">UNREGISTERED</text><text fill="#eeeeee" stroke="none" font-family="Arial" font-size="24px" font-style="normal" font-weight="normal" text-decoration="none" x="600" y="510">UNREGISTERED</text><text fill="#eeeeee" stroke="none" font-family="Arial" font-size="24px" font-style="normal" font-weight="normal" text-decoration="none" x="600" y="540">UNREGISTERED</text><text fill="#eeeeee" stroke="none" font-family="Arial" font-size="24px" font-style="normal" font-weight="normal" text-decoration="none" x="600" y="570">UNREGISTERED</text><text fill="#eeeeee" stroke="none" font-family="Arial" font-size="24px" font-style="normal" font-weight="normal" text-decoration="none" x="600" y="600">UNREGISTERED</text><text fill="#eeeeee" stroke="none" font-family="Arial" font-size="24px" font-style="normal" font-weight="normal" text-decoration="none" x="800" y="0">UNREGISTERED</text><text fill="#eeeeee" stroke="none" font-family="Arial" font-size="24px" font-style="normal" font-weight="normal" text-decoration="none" x="800" y="30">UNREGISTERED</text><text fill="#eeeeee" stroke="none" font-family="Arial" font-size="24px" font-style="normal" font-weight="normal" text-decoration="none" x="800" y="60">UNREGISTERED</text><text fill="#eeeeee" stroke="none" font-family="Arial" font-size="24px" font-style="normal" font-weight="normal" text-decoration="none" x="800" y="90">UNREGISTERED</text><text fill="#eeeeee" stroke="none" font-family="Arial" font-size="24px" font-style="normal" font-weight="normal" text-decoration="none" x="800" y="120">UNREGISTERED</text><text fill="#eeeeee" stroke="none" font-family="Arial" font-size="24px" font-style="normal" font-weight="normal" text-decoration="none" x="800" y="150">UNREGISTERED</text><text fill="#eeeeee" stroke="none" font-family="Arial" font-size="24px" font-style="normal" font-weight="normal" text-decoration="none" x="800" y="180">UNREGISTERED</text><text fill="#eeeeee" stroke="none" font-family="Arial" font-size="24px" font-style="normal" font-weight="normal" text-decoration="none" x="800" y="210">UNREGISTERED</text><text fill="#eeeeee" stroke="none" font-family="Arial" font-size="24px" font-style="normal" font-weight="normal" text-decoration="none" x="800" y="240">UNREGISTERED</text><text fill="#eeeeee" stroke="none" font-family="Arial" font-size="24px" font-style="normal" font-weight="normal" text-decoration="none" x="800" y="270">UNREGISTERED</text><text fill="#eeeeee" stroke="none" font-family="Arial" font-size="24px" font-style="normal" font-weight="normal" text-decoration="none" x="800" y="300">UNREGISTERED</text><text fill="#eeeeee" stroke="none" font-family="Arial" font-size="24px" font-style="normal" font-weight="normal" text-decoration="none" x="800" y="330">UNREGISTERED</text><text fill="#eeeeee" stroke="none" font-family="Arial" font-size="24px" font-style="normal" font-weight="normal" text-decoration="none" x="800" y="360">UNREGISTERED</text><text fill="#eeeeee" stroke="none" font-family="Arial" font-size="24px" font-style="normal" font-weight="normal" text-decoration="none" x="800" y="390">UNREGISTERED</text><text fill="#eeeeee" stroke="none" font-family="Arial" font-size="24px" font-style="normal" font-weight="normal" text-decoration="none" x="800" y="420">UNREGISTERED</text><text fill="#eeeeee" stroke="none" font-family="Arial" font-size="24px" font-style="normal" font-weight="normal" text-decoration="none" x="800" y="450">UNREGISTERED</text><text fill="#eeeeee" stroke="none" font-family="Arial" font-size="24px" font-style="normal" font-weight="normal" text-decoration="none" x="800" y="480">UNREGISTERED</text><text fill="#eeeeee" stroke="none" font-family="Arial" font-size="24px" font-style="normal" font-weight="normal" text-decoration="none" x="800" y="510">UNREGISTERED</text><text fill="#eeeeee" stroke="none" font-family="Arial" font-size="24px" font-style="normal" font-weight="normal" text-decoration="none" x="800" y="540">UNREGISTERED</text><text fill="#eeeeee" stroke="none" font-family="Arial" font-size="24px" font-style="normal" font-weight="normal" text-decoration="none" x="800" y="570">UNREGISTERED</text><text fill="#eeeeee" stroke="none" font-family="Arial" font-size="24px" font-style="normal" font-weight="normal" text-decoration="none" x="800" y="600">UNREGISTERED</text><text fill="#eeeeee" stroke="none" font-family="Arial" font-size="24px" font-style="normal" font-weight="normal" text-decoration="none" x="1000" y="0">UNREGISTERED</text><text fill="#eeeeee" stroke="none" font-family="Arial" font-size="24px" font-style="normal" font-weight="normal" text-decoration="none" x="1000" y="30">UNREGISTERED</text><text fill="#eeeeee" stroke="none" font-family="Arial" font-size="24px" font-style="normal" font-weight="normal" text-decoration="none" x="1000" y="60">UNREGISTERED</text><text fill="#eeeeee" stroke="none" font-family="Arial" font-size="24px" font-style="normal" font-weight="normal" text-decoration="none" x="1000" y="90">UNREGISTERED</text><text fill="#eeeeee" stroke="none" font-family="Arial" font-size="24px" font-style="normal" font-weight="normal" text-decoration="none" x="1000" y="120">UNREGISTERED</text><text fill="#eeeeee" stroke="none" font-family="Arial" font-size="24px" font-style="normal" font-weight="normal" text-decoration="none" x="1000" y="150">UNREGISTERED</text><text fill="#eeeeee" stroke="none" font-family="Arial" font-size="24px" font-style="normal" font-weight="normal" text-decoration="none" x="1000" y="180">UNREGISTERED</text><text fill="#eeeeee" stroke="none" font-family="Arial" font-size="24px" font-style="normal" font-weight="normal" text-decoration="none" x="1000" y="210">UNREGISTERED</text><text fill="#eeeeee" stroke="none" font-family="Arial" font-size="24px" font-style="normal" font-weight="normal" text-decoration="none" x="1000" y="240">UNREGISTERED</text><text fill="#eeeeee" stroke="none" font-family="Arial" font-size="24px" font-style="normal" font-weight="normal" text-decoration="none" x="1000" y="270">UNREGISTERED</text><text fill="#eeeeee" stroke="none" font-family="Arial" font-size="24px" font-style="normal" font-weight="normal" text-decoration="none" x="1000" y="300">UNREGISTERED</text><text fill="#eeeeee" stroke="none" font-family="Arial" font-size="24px" font-style="normal" font-weight="normal" text-decoration="none" x="1000" y="330">UNREGISTERED</text><text fill="#eeeeee" stroke="none" font-family="Arial" font-size="24px" font-style="normal" font-weight="normal" text-decoration="none" x="1000" y="360">UNREGISTERED</text><text fill="#eeeeee" stroke="none" font-family="Arial" font-size="24px" font-style="normal" font-weight="normal" text-decoration="none" x="1000" y="390">UNREGISTERED</text><text fill="#eeeeee" stroke="none" font-family="Arial" font-size="24px" font-style="normal" font-weight="normal" text-decoration="none" x="1000" y="420">UNREGISTERED</text><text fill="#eeeeee" stroke="none" font-family="Arial" font-size="24px" font-style="normal" font-weight="normal" text-decoration="none" x="1000" y="450">UNREGISTERED</text><text fill="#eeeeee" stroke="none" font-family="Arial" font-size="24px" font-style="normal" font-weight="normal" text-decoration="none" x="1000" y="480">UNREGISTERED</text><text fill="#eeeeee" stroke="none" font-family="Arial" font-size="24px" font-style="normal" font-weight="normal" text-decoration="none" x="1000" y="510">UNREGISTERED</text><text fill="#eeeeee" stroke="none" font-family="Arial" font-size="24px" font-style="normal" font-weight="normal" text-decoration="none" x="1000" y="540">UNREGISTERED</text><text fill="#eeeeee" stroke="none" font-family="Arial" font-size="24px" font-style="normal" font-weight="normal" text-decoration="none" x="1000" y="570">UNREGISTERED</text><text fill="#eeeeee" stroke="none" font-family="Arial" font-size="24px" font-style="normal" font-weight="normal" text-decoration="none" x="1000" y="600">UNREGISTERED</text><g transform="translate(-262,-270) scale(1,1)"><path fill="none" stroke="#000000" d="M 272 280 L 1375 280 L 1375 887 L 272 887 L 272 280" stroke-miterlimit="10"/></g><g transform="translate(-262,-270) scale(1,1)"><path fill="#ffffff" stroke="none" d="M 272 280 L 272 302 L 348.68994140625 302 L 359.68994140625 291 L 359.68994140625 280 L 272 280"/></g><g transform="translate(-262,-270) scale(1,1)"><path fill="none" stroke="#000000" d="M 272 280 L 272 302 L 348.68994140625 302 L 359.68994140625 291 L 359.68994140625 280 L 272 280 L 272 280" stroke-miterlimit="10"/></g><g transform="translate(-262,-270) scale(1,1)"><g><path fill="none" stroke="none"/><text fill="#000000" stroke="none" font-family="Arial" font-size="13px" font-style="normal" font-weight="normal" text-decoration="none" x="300.341796875" y="296">Serviço</text></g></g><g transform="translate(-262,-270) scale(1,1)"><g><path fill="none" stroke="none"/><text fill="#000000" stroke="none" font-family="Arial" font-size="13px" font-style="normal" font-weight="bold" text-decoration="none" x="276.2763671875" y="295.5">act</text></g></g><g transform="translate(-262,-270) scale(1,1)"><path fill="#C0C0C0" stroke="none" d="M 367 424.5 C 367 419.2532944 371.2532944 415 376.5 415 C 381.7467056 415 386 419.2532944 386 424.5 C 386 429.7467056 381.7467056 434 376.5 434 C 371.2532944 434 367 429.7467056 367 424.5 Z" opacity="0.2"/></g><g transform="translate(-262,-270) scale(1,1)"><path fill="#000000" stroke="none" d="M 360 417.5 C 360 412.2532944 364.2532944 408 369.5 408 C 374.7467056 408 379 412.2532944 379 417.5 C 379 422.7467056 374.7467056 427 369.5 427 C 364.2532944 427 360 422.7467056 360 417.5 Z"/></g><g transform="translate(-262,-270) scale(1,1)"><path fill="#C0C0C0" stroke="none" d="M 585 407 L 700.45166015625 407 Q 710.45166015625 407 710.45166015625 417 L 710.45166015625 437 Q 710.45166015625 447 700.45166015625 447 L 585 447 Q 575 447 575 437 L 575 417 Q 575 407 585 407 Z" opacity="0.2"/></g><g transform="translate(-262,-270) scale(1,1)"><path fill="#ffffff" stroke="none" d="M 578 400 L 693.45166015625 400 Q 703.45166015625 400 703.45166015625 410 L 703.45166015625 430 Q 703.45166015625 440 693.45166015625 440 L 578 440 Q 568 440 568 430 L 568 410 Q 568 400 578 400 Z"/></g><g transform="translate(-262,-270) scale(1,1)"><path fill="none" stroke="#000000" d="M 578 400 L 693.45166015625 400 Q 703.45166015625 400 703.45166015625 410 L 703.45166015625 430 Q 703.45166015625 440 693.45166015625 440 L 578 440 Q 568 440 568 430 L 568 410 Q 568 400 578 400 Z" stroke-miterlimit="10"/></g><g transform="translate(-262,-270) scale(1,1)"><g><path fill="none" stroke="none"/><text fill="#000000" stroke="none" font-family="Arial" font-size="13px" font-style="normal" font-weight="bold" text-decoration="none" x="574.66455078125" y="418">Guia realiza serviço</text></g></g><g transform="translate(-262,-270) scale(1,1)"><path fill="#ffffff" stroke="none" d="M 584 472 L 672 472 L 682 482 L 682 521 L 584 521 L 584 472"/></g><g transform="translate(-262,-270) scale(1,1)"><path fill="none" stroke="#000000" d="M 584 472 L 672 472 L 682 482 L 682 521 L 584 521 L 584 472 L 584 472" stroke-miterlimit="10"/></g><g transform="translate(-262,-270) scale(1,1)"><path fill="none" stroke="#000000" d="M 672 472 L 672 482 L 682 482 L 672 472" stroke-miterlimit="10"/></g><g transform="translate(-262,-270) scale(1,1)"><g><path fill="none" stroke="none"/><text fill="#000000" stroke="none" font-family="Arial" font-size="13px" font-style="normal" font-weight="normal" text-decoration="none" x="589" y="487">Chegada da</text><text fill="#000000" stroke="none" font-family="Arial" font-size="13px" font-style="normal" font-weight="normal" text-decoration="none" x="589" y="500">data</text><text fill="#000000" stroke="none" font-family="Arial" font-size="13px" font-style="normal" font-weight="normal" text-decoration="none" x="589" y="513">combinada</text></g></g><g transform="translate(-262,-270) scale(1,1)"><path fill="none" stroke="#000000" d="M 634 441 L 634 471" stroke-miterlimit="10" stroke-dasharray="3"/></g><g transform="translate(-262,-270) scale(1,1)"><path fill="none" stroke="#000000" d="M 380 417 L 567 419" stroke-miterlimit="10"/></g><g transform="translate(-262,-270) scale(1,1)"><path fill="none" stroke="#000000" d="M 556.7928873260486 423.10059152577526 L 567 419 L 556.882925337162 414.68203748666554" stroke-miterlimit="10"/></g><g transform="translate(-262,-270) scale(1,1)"><path fill="#C0C0C0" stroke="none" d="M 857 407 L 996.97265625 407 Q 1006.97265625 407 1006.97265625 417 L 1006.97265625 437 Q 1006.97265625 447 996.97265625 447 L 857 447 Q 847 447 847 437 L 847 417 Q 847 407 857 407 Z" opacity="0.2"/></g><g transform="translate(-262,-270) scale(1,1)"><path fill="#ffffff" stroke="none" d="M 850 400 L 989.97265625 400 Q 999.97265625 400 999.97265625 410 L 999.97265625 430 Q 999.97265625 440 989.97265625 440 L 850 440 Q 840 440 840 430 L 840 410 Q 840 400 850 400 Z"/></g><g transform="translate(-262,-270) scale(1,1)"><path fill="none" stroke="#000000" d="M 850 400 L 989.97265625 400 Q 999.97265625 400 999.97265625 410 L 999.97265625 430 Q 999.97265625 440 989.97265625 440 L 850 440 Q 840 440 840 430 L 840 410 Q 840 400 850 400 Z" stroke-miterlimit="10"/></g><g transform="translate(-262,-270) scale(1,1)"><g><path fill="none" stroke="none"/><text fill="#000000" stroke="none" font-family="Arial" font-size="13px" font-style="normal" font-weight="bold" text-decoration="none" x="844.5" y="418">Informa o fim do serviço</text></g></g><g transform="translate(-262,-270) scale(1,1)"><path fill="#C0C0C0" stroke="none" d="M 889 551 L 976.9853515625 551 Q 986.9853515625 551 986.9853515625 561 L 986.9853515625 581 Q 986.9853515625 591 976.9853515625 591 L 889 591 Q 879 591 879 581 L 879 561 Q 879 551 889 551 Z" opacity="0.2"/></g><g transform="translate(-262,-270) scale(1,1)"><path fill="#ffffff" stroke="none" d="M 882 544 L 969.9853515625 544 Q 979.9853515625 544 979.9853515625 554 L 979.9853515625 574 Q 979.9853515625 584 969.9853515625 584 L 882 584 Q 872 584 872 574 L 872 554 Q 872 544 882 544 Z"/></g><g transform="translate(-262,-270) scale(1,1)"><path fill="none" stroke="#000000" d="M 882 544 L 969.9853515625 544 Q 979.9853515625 544 979.9853515625 554 L 979.9853515625 574 Q 979.9853515625 584 969.9853515625 584 L 882 584 Q 872 584 872 574 L 872 554 Q 872 544 882 544 Z" stroke-miterlimit="10"/></g><g transform="translate(-262,-270) scale(1,1)"><g><path fill="none" stroke="none"/><text fill="#000000" stroke="none" font-family="Arial" font-size="13px" font-style="normal" font-weight="bold" text-decoration="none" x="876.5" y="562">Atualiza serviço</text></g></g><g transform="translate(-262,-270) scale(1,1)"><path fill="#C0C0C0" stroke="none" d="M 1009 623 L 1297.04443359375 623 Q 1307.04443359375 623 1307.04443359375 633 L 1307.04443359375 653 Q 1307.04443359375 663 1297.04443359375 663 L 1009 663 Q 999 663 999 653 L 999 633 Q 999 623 1009 623 Z" opacity="0.2"/></g><g transform="translate(-262,-270) scale(1,1)"><path fill="#ffffff" stroke="none" d="M 1002 616 L 1290.04443359375 616 Q 1300.04443359375 616 1300.04443359375 626 L 1300.04443359375 646 Q 1300.04443359375 656 1290.04443359375 656 L 1002 656 Q 992 656 992 646 L 992 626 Q 992 616 1002 616 Z"/></g><g transform="translate(-262,-270) scale(1,1)"><path fill="none" stroke="#000000" d="M 1002 616 L 1290.04443359375 616 Q 1300.04443359375 616 1300.04443359375 626 L 1300.04443359375 646 Q 1300.04443359375 656 1290.04443359375 656 L 1002 656 Q 992 656 992 646 L 992 626 Q 992 616 1002 616 Z" stroke-miterlimit="10"/></g><g transform="translate(-262,-270) scale(1,1)"><g><path fill="none" stroke="none"/><text fill="#000000" stroke="none" font-family="Arial" font-size="13px" font-style="normal" font-weight="bold" text-decoration="none" x="999.37548828125" y="634">Notifica cliente sobre o fim do serviço prestado</text></g></g><g transform="translate(-262,-270) scale(1,1)"><path fill="#C0C0C0" stroke="none" d="M 665 623 L 815.79541015625 623 Q 825.79541015625 623 825.79541015625 633 L 825.79541015625 653 Q 825.79541015625 663 815.79541015625 663 L 665 663 Q 655 663 655 653 L 655 633 Q 655 623 665 623 Z" opacity="0.2"/></g><g transform="translate(-262,-270) scale(1,1)"><path fill="#ffffff" stroke="none" d="M 658 616 L 808.79541015625 616 Q 818.79541015625 616 818.79541015625 626 L 818.79541015625 646 Q 818.79541015625 656 808.79541015625 656 L 658 656 Q 648 656 648 646 L 648 626 Q 648 616 658 616 Z"/></g><g transform="translate(-262,-270) scale(1,1)"><path fill="none" stroke="#000000" d="M 658 616 L 808.79541015625 616 Q 818.79541015625 616 818.79541015625 626 L 818.79541015625 646 Q 818.79541015625 656 808.79541015625 656 L 658 656 Q 648 656 648 646 L 648 626 Q 648 616 658 616 Z" stroke-miterlimit="10"/></g><g transform="translate(-262,-270) scale(1,1)"><g><path fill="none" stroke="none"/><text fill="#000000" stroke="none" font-family="Arial" font-size="13px" font-style="normal" font-weight="bold" text-decoration="none" x="652.5" y="634">Libera pagamento do guia</text></g></g><g transform="translate(-262,-270) scale(1,1)"><path fill="none" stroke="#000000" d="M 704 420 L 839 420" stroke-miterlimit="10"/></g><g transform="translate(-262,-270) scale(1,1)"><path fill="none" stroke="#000000" d="M 828.8373251423759 424.209517756016 L 839 420 L 828.8373251423758 415.790482243984" stroke-miterlimit="10"/></g><g transform="translate(-262,-270) scale(1,1)"><path fill="#C0C0C0" stroke="none" d="M 927 811.5 C 927 804.59644 932.59644 799 939.5 799 C 946.40356 799 952 804.59644 952 811.5 C 952 818.40356 946.40356 824 939.5 824 C 932.59644 824 927 818.40356 927 811.5 Z" opacity="0.2"/></g><g transform="translate(-262,-270) scale(1,1)"><path fill="none" stroke="#000000" d="M 920 804.5 C 920 797.59644 925.59644 792 932.5 792 C 939.40356 792 945 797.59644 945 804.5 C 945 811.40356 939.40356 817 932.5 817 C 925.59644 817 920 811.40356 920 804.5 Z" stroke-miterlimit="10"/></g><g transform="translate(-262,-270) scale(1,1)"><path fill="#000000" stroke="none" d="M 925 804.5 C 925 800.357864 928.357864 797 932.5 797 C 936.642136 797 940 800.357864 940 804.5 C 940 808.642136 936.642136 812 932.5 812 C 928.357864 812 925 808.642136 925 804.5 Z"/></g><g transform="translate(-262,-270) scale(1,1)"><path fill="none" stroke="#000000" d="M 926 585 L 932 791" stroke-miterlimit="10"/></g><g transform="translate(-262,-270) scale(1,1)"><path fill="none" stroke="#000000" d="M 927.4963918876051 780.9641884249469 L 932 791 L 935.9118585833494 780.7190777444882" stroke-miterlimit="10"/></g><g transform="translate(-262,-270) scale(1,1)"><path fill="none" stroke="#000000" d="M 758 657 L 919 793" stroke-miterlimit="10"/></g><g transform="translate(-262,-270) scale(1,1)"><path fill="none" stroke="#000000" d="M 908.520050647887 789.6577460334161 L 919 793 L 913.9528871908485 783.2262263024102" stroke-miterlimit="10"/></g><g transform="translate(-262,-270) scale(1,1)"><path fill="none" stroke="#000000" d="M 1119 657 L 946 793" stroke-miterlimit="10"/></g><g transform="translate(-262,-270) scale(1,1)"><path fill="none" stroke="#000000" d="M 951.3879192877017 783.4098839553834 L 946 793 L 956.591070352334 790.0285981773053" stroke-miterlimit="10"/></g><g transform="translate(-262,-270) scale(1,1)"><path fill="none" stroke="#000000" d="M 920 441 L 924 543" stroke-miterlimit="10"/></g><g transform="translate(-262,-270) scale(1,1)"><path fill="none" stroke="#000000" d="M 919.3954851875804 533.0100829161495 L 924 543 L 927.8080544655463 532.6801782385821" stroke-miterlimit="10"/></g><g transform="translate(-262,-270) scale(1,1)"><path fill="none" stroke="#000000" d="M 901 441 L 751 615" stroke-miterlimit="10"/></g><g transform="translate(-262,-270) scale(1,1)"><path fill="none" stroke="#000000" d="M 754.4472823988109 604.5541278936199 L 751 615 L 760.8239437626929 610.0512497590355" stroke-miterlimit="10"/></g><g transform="translate(-262,-270) scale(1,1)"><path fill="none" stroke="#000000" d="M 941 441 L 1124 615" stroke-miterlimit="10"/></g><g transform="translate(-262,-270) scale(1,1)"><path fill="none" stroke="#000000" d="M 1113.7344644498849 611.0479397943197 L 1124 615 L 1119.535698771096 604.946641628908" stroke-miterlimit="10"/></g></g></svg>