<svg version="1.1" xmlns="http://www.w3.org/2000/svg" xmlns:xlink="http://www.w3.org/1999/xlink" width="849.01416015625" height="837"><defs/><g><text fill="#eeeeee" stroke="none" font-family="Arial" font-size="24px" font-style="normal" font-weight="normal" text-decoration="none" x="0" y="0">UNREGISTERED</text><text fill="#eeeeee" stroke="none" font-family="Arial" font-size="24px" font-style="normal" font-weight="normal" text-decoration="none" x="0" y="30">UNREGISTERED</text><text fill="#eeeeee" stroke="none" font-family="Arial" font-size="24px" font-style="normal" font-weight="normal" text-decoration="none" x="0" y="60">UNREGISTERED</text><text fill="#eeeeee" stroke="none" font-family="Arial" font-size="24px" font-style="normal" font-weight="normal" text-decoration="none" x="0" y="90">UNREGISTERED</text><text fill="#eeeeee" stroke="none" font-family="Arial" font-size="24px" font-style="normal" font-weight="normal" text-decoration="none" x="0" y="120">UNREGISTERED</text><text fill="#eeeeee" stroke="none" font-family="Arial" font-size="24px" font-style="normal" font-weight="normal" text-decoration="none" x="0" y="150">UNREGISTERED</text><text fill="#eeeeee" stroke="none" font-family="Arial" font-size="24px" font-style="normal" font-weight="normal" text-decoration="none" x="0" y="180">UNREGISTERED</text><text fill="#eeeeee" stroke="none" font-family="Arial" font-size="24px" font-style="normal" font-weight="normal" text-decoration="none" x="0" y="210">UNREGISTERED</text><text fill="#eeeeee" stroke="none" font-family="Arial" font-size="24px" font-style="normal" font-weight="normal" text-decoration="none" x="0" y="240">UNREGISTERED</text><text fill="#eeeeee" stroke="none" font-family="Arial" font-size="24px" font-style="normal" font-weight="normal" text-decoration="none" x="0" y="270">UNREGISTERED</text><text fill="#eeeeee" stroke="none" font-family="Arial" font-size="24px" font-style="normal" font-weight="normal" text-decoration="none" x="0" y="300">UNREGISTERED</text><text fill="#eeeeee" stroke="none" font-family="Arial" font-size="24px" font-style="normal" font-weight="normal" text-decoration="none" x="0" y="330">UNREGISTERED</text><text fill="#eeeeee" stroke="none" font-family="Arial" font-size="24px" font-style="normal" font-weight="normal" text-decoration="none" x="0" y="360">UNREGISTERED</text><text fill="#eeeeee" stroke="none" font-family="Arial" font-size="24px" font-style="normal" font-weight="normal" text-decoration="none" x="0" y="390">UNREGISTERED</text><text fill="#eeeeee" stroke="none" font-family="Arial" font-size="24px" font-style="normal" font-weight="normal" text-decoration="none" x="0" y="420">UNREGISTERED</text><text fill="#eeeeee" stroke="none" font-family="Arial" font-size="24px" font-style="normal" font-weight="normal" text-decoration="none" x="0" y="450">UNREGISTERED</text><text fill="#eeeeee" stroke="none" font-family="Arial" font-size="24px" font-style="normal" font-weight="normal" text-decoration="none" x="0" y="480">UNREGISTERED</text><text fill="#eeeeee" stroke="none" font-family="Arial" font-size="24px" font-style="normal" font-weight="normal" text-decoration="none" x="0" y="510">UNREGISTERED</text><text fill="#eeeeee" stroke="none" font-family="Arial" font-size="24px" font-style="normal" font-weight="normal" text-decoration="none" x="0" y="540">UNREGISTERED</text><text fill="#eeeeee" stroke="none" font-family="Arial" font-size="24px" font-style="normal" font-weight="normal" text-decoration="none" x="0" y="570">UNREGISTERED</text><text fill="#eeeeee" stroke="none" font-family="Arial" font-size="24px" font-style="normal" font-weight="normal" text-decoration="none" x="0" y="600">UNREGISTERED</text><text fill="#eeeeee" stroke="none" font-family="Arial" font-size="24px" font-style="normal" font-weight="normal" text-decoration="none" x="0" y="630">UNREGISTERED</text><text fill="#eeeeee" stroke="none" font-family="Arial" font-size="24px" font-style="normal" font-weight="normal" text-decoration="none" x="0" y="660">UNREGISTERED</text><text fill="#eeeeee" stroke="none" font-family="Arial" font-size="24px" font-style="normal" font-weight="normal" text-decoration="none" x="0" y="690">UNREGISTERED</text><text fill="#eeeeee" stroke="none" font-family="Arial" font-size="24px" font-style="normal" font-weight="normal" text-decoration="none" x="0" y="720">UNREGISTERED</text><text fill="#eeeeee" stroke="none" font-family="Arial" font-size="24px" font-style="normal" font-weight="normal" text-decoration="none" x="0" y="750">UNREGISTERED</text><text fill="#eeeeee" stroke="none" font-family="Arial" font-size="24px" font-style="normal" font-weight="normal" text-decoration="none" x="0" y="780">UNREGISTERED</text><text fill="#eeeeee" stroke="none" font-family="Arial" font-size="24px" font-style="normal" font-weight="normal" text-decoration="none" x="0" y="810">UNREGISTERED</text><text fill="#eeeeee" stroke="none" font-family="Arial" font-size="24px" font-style="normal" font-weight="normal" text-decoration="none" x="200" y="0">UNREGISTERED</text><text fill="#eeeeee" stroke="none" font-family="Arial" font-size="24px" font-style="normal" font-weight="normal" text-decoration="none" x="200" y="30">UNREGISTERED</text><text fill="#eeeeee" stroke="none" font-family="Arial" font-size="24px" font-style="normal" font-weight="normal" text-decoration="none" x="200" y="60">UNREGISTERED</text><text fill="#eeeeee" stroke="none" font-family="Arial" font-size="24px" font-style="normal" font-weight="normal" text-decoration="none" x="200" y="90">UNREGISTERED</text><text fill="#eeeeee" stroke="none" font-family="Arial" font-size="24px" font-style="normal" font-weight="normal" text-decoration="none" x="200" y="120">UNREGISTERED</text><text fill="#eeeeee" stroke="none" font-family="Arial" font-size="24px" font-style="normal" font-weight="normal" text-decoration="none" x="200" y="150">UNREGISTERED</text><text fill="#eeeeee" stroke="none" font-family="Arial" font-size="24px" font-style="normal" font-weight="normal" text-decoration="none" x="200" y="180">UNREGISTERED</text><text fill="#eeeeee" stroke="none" font-family="Arial" font-size="24px" font-style="normal" font-weight="normal" text-decoration="none" x="200" y="210">UNREGISTERED</text><text fill="#eeeeee" stroke="none" font-family="Arial" font-size="24px" font-style="normal" font-weight="normal" text-decoration="none" x="200" y="240">UNREGISTERED</text><text fill="#eeeeee" stroke="none" font-family="Arial" font-size="24px" font-style="normal" font-weight="normal" text-decoration="none" x="200" y="270">UNREGISTERED</text><text fill="#eeeeee" stroke="none" font-family="Arial" font-size="24px" font-style="normal" font-weight="normal" text-decoration="none" x="200" y="300">UNREGISTERED</text><text fill="#eeeeee" stroke="none" font-family="Arial" font-size="24px" font-style="normal" font-weight="normal" text-decoration="none" x="200" y="330">UNREGISTERED</text><text fill="#eeeeee" stroke="none" font-family="Arial" font-size="24px" font-style="normal" font-weight="normal" text-decoration="none" x="200" y="360">UNREGISTERED</text><text fill="#eeeeee" stroke="none" font-family="Arial" font-size="24px" font-style="normal" font-weight="normal" text-decoration="none" x="200" y="390">UNREGISTERED</text><text fill="#eeeeee" stroke="none" font-family="Arial" font-size="24px" font-style="normal" font-weight="normal" text-decoration="none" x="200" y="420">UNREGISTERED</text><text fill="#eeeeee" stroke="none" font-family="Arial" font-size="24px" font-style="normal" font-weight="normal" text-decoration="none" x="200" y="450">UNREGISTERED</text><text fill="#eeeeee" stroke="none" font-family="Arial" font-size="24px" font-style="normal" font-weight="normal" text-decoration="none" x="200" y="480">UNREGISTERED</text><text fill="#eeeeee" stroke="none" font-family="Arial" font-size="24px" font-style="normal" font-weight="normal" text-decoration="none" x="200" y="510">UNREGISTERED</text><text fill="#eeeeee" stroke="none" font-family="Arial" font-size="24px" font-style="normal" font-weight="normal" text-decoration="none" x="200" y="540">UNREGISTERED</text><text fill="#eeeeee" stroke="none" font-family="Arial" font-size="24px" font-style="normal" font-weight="normal" text-decoration="none" x="200" y="570">UNREGISTERED</text><text fill="#eeeeee" stroke="none" font-family="Arial" font-size="24px" font-style="normal" font-weight="normal" text-decoration="none" x="200" y="600">UNREGISTERED</text><text fill="#eeeeee" stroke="none" font-family="Arial" font-size="24px" font-style="normal" font-weight="normal" text-decoration="none" x="200" y="630">UNREGISTERED</text><text fill="#eeeeee" stroke="none" font-family="Arial" font-size="24px" font-style="normal" font-weight="normal" text-decoration="none" x="200" y="660">UNREGISTERED</text><text fill="#eeeeee" stroke="none" font-family="Arial" font-size="24px" font-style="normal" font-weight="normal" text-decoration="none" x="200" y="690">UNREGISTERED</text><text fill="#eeeeee" stroke="none" font-family="Arial" font-size="24px" font-style="normal" font-weight="normal" text-decoration="none" x="200" y="720">UNREGISTERED</text><text fill="#eeeeee" stroke="none" font-family="Arial" font-size="24px" font-style="normal" font-weight="normal" text-decoration="none" x="200" y="750">UNREGISTERED</text><text fill="#eeeeee" stroke="none" font-family="Arial" font-size="24px" font-style="normal" font-weight="normal" text-decoration="none" x="200" y="780">UNREGISTERED</text><text fill="#eeeeee" stroke="none" font-family="Arial" font-size="24px" font-style="normal" font-weight="normal" text-decoration="none" x="200" y="810">UNREGISTERED</text><text fill="#eeeeee" stroke="none" font-family="Arial" font-size="24px" font-style="normal" font-weight="normal" text-decoration="none" x="400" y="0">UNREGISTERED</text><text fill="#eeeeee" stroke="none" font-family="Arial" font-size="24px" font-style="normal" font-weight="normal" text-decoration="none" x="400" y="30">UNREGISTERED</text><text fill="#eeeeee" stroke="none" font-family="Arial" font-size="24px" font-style="normal" font-weight="normal" text-decoration="none" x="400" y="60">UNREGISTERED</text><text fill="#eeeeee" stroke="none" font-family="Arial" font-size="24px" font-style="normal" font-weight="normal" text-decoration="none" x="400" y="90">UNREGISTERED</text><text fill="#eeeeee" stroke="none" font-family="Arial" font-size="24px" font-style="normal" font-weight="normal" text-decoration="none" x="400" y="120">UNREGISTERED</text><text fill="#eeeeee" stroke="none" font-family="Arial" font-size="24px" font-style="normal" font-weight="normal" text-decoration="none" x="400" y="150">UNREGISTERED</text><text fill="#eeeeee" stroke="none" font-family="Arial" font-size="24px" font-style="normal" font-weight="normal" text-decoration="none" x="400" y="180">UNREGISTERED</text><text fill="#eeeeee" stroke="none" font-family="Arial" font-size="24px" font-style="normal" font-weight="normal" text-decoration="none" x="400" y="210">UNREGISTERED</text><text fill="#eeeeee" stroke="none" font-family="Arial" font-size="24px" font-style="normal" font-weight="normal" text-decoration="none" x="400" y="240">UNREGISTERED</text><text fill="#eeeeee" stroke="none" font-family="Arial" font-size="24px" font-style="normal" font-weight="normal" text-decoration="none" x="400" y="270">UNREGISTERED</text><text fill="#eeeeee" stroke="none" font-family="Arial" font-size="24px" font-style="normal" font-weight="normal" text-decoration="none" x="400" y="300">UNREGISTERED</text><text fill="#eeeeee" stroke="none" font-family="Arial" font-size="24px" font-style="normal" font-weight="normal" text-decoration="none" x="400" y="330">UNREGISTERED</text><text fill="#eeeeee" stroke="none" font-family="Arial" font-size="24px" font-style="normal" font-weight="normal" text-decoration="none" x="400" y="360">UNREGISTERED</text><text fill="#eeeeee" stroke="none" font-family="Arial" font-size="24px" font-style="normal" font-weight="normal" text-decoration="none" x="400" y="390">UNREGISTERED</text><text fill="#eeeeee" stroke="none" font-family="Arial" font-size="24px" font-style="normal" font-weight="normal" text-decoration="none" x="400" y="420">UNREGISTERED</text><text fill="#eeeeee" stroke="none" font-family="Arial" font-size="24px" font-style="normal" font-weight="normal" text-decoration="none" x="400" y="450">UNREGISTERED</text><text fill="#eeeeee" stroke="none" font-family="Arial" font-size="24px" font-style="normal" font-weight="normal" text-decoration="none" x="400" y="480">UNREGISTERED</text><text fill="#eeeeee" stroke="none" font-family="Arial" font-size="24px" font-style="normal" font-weight="normal" text-decoration="none" x="400" y="510">UNREGISTERED</text><text fill="#eeeeee" stroke="none" font-family="Arial" font-size="24px" font-style="normal" font-weight="normal" text-decoration="none" x="400" y="540">UNREGISTERED</text><text fill="#eeeeee" stroke="none" font-family="Arial" font-size="24px" font-style="normal" font-weight="normal" text-decoration="none" x="400" y="570">UNREGISTERED</text><text fill="#eeeeee" stroke="none" font-family="Arial" font-size="24px" font-style="normal" font-weight="normal" text-decoration="none" x="400" y="600">UNREGISTERED</text><text fill="#eeeeee" stroke="none" font-family="Arial" font-size="24px" font-style="normal" font-weight="normal" text-decoration="none" x="400" y="630">UNREGISTERED</text><text fill="#eeeeee" stroke="none" font-family="Arial" font-size="24px" font-style="normal" font-weight="normal" text-decoration="none" x="400" y="660">UNREGISTERED</text><text fill="#eeeeee" stroke="none" font-family="Arial" font-size="24px" font-style="normal" font-weight="normal" text-decoration="none" x="400" y="690">UNREGISTERED</text><text fill="#eeeeee" stroke="none" font-family="Arial" font-size="24px" font-style="normal" font-weight="normal" text-decoration="none" x="400" y="720">UNREGISTERED</text><text fill="#eeeeee" stroke="none" font-family="Arial" font-size="24px" font-style="normal" font-weight="normal" text-decoration="none" x="400" y="750">UNREGISTERED</text><text fill="#eeeeee" stroke="none" font-family="Arial" font-size="24px" font-style="normal" font-weight="normal" text-decoration="none" x="400" y="780">UNREGISTERED</text><text fill="#eeeeee" stroke="none" font-family="Arial" font-size="24px" font-style="normal" font-weight="normal" text-decoration="none" x="400" y="810">UNREGISTERED</text><text fill="#eeeeee" stroke="none" font-family="Arial" font-size="24px" font-style="normal" font-weight="normal" text-decoration="none" x="600" y="0">UNREGISTERED</text><text fill="#eeeeee" stroke="none" font-family="Arial" font-size="24px" font-style="normal" font-weight="normal" text-decoration="none" x="600" y="30">UNREGISTERED</text><text fill="#eeeeee" stroke="none" font-family="Arial" font-size="24px" font-style="normal" font-weight="normal" text-decoration="none" x="600" y="60">UNREGISTERED</text><text fill="#eeeeee" stroke="none" font-family="Arial" font-size="24px" font-style="normal" font-weight="normal" text-decoration="none" x="600" y="90">UNREGISTERED</text><text fill="#eeeeee" stroke="none" font-family="Arial" font-size="24px" font-style="normal" font-weight="normal" text-decoration="none" x="600" y="120">UNREGISTERED</text><text fill="#eeeeee" stroke="none" font-family="Arial" font-size="24px" font-style="normal" font-weight="normal" text-decoration="none" x="600" y="150">UNREGISTERED</text><text fill="#eeeeee" stroke="none" font-family="Arial" font-size="24px" font-style="normal" font-weight="normal" text-decoration="none" x="600" y="180">UNREGISTERED</text><text fill="#eeeeee" stroke="none" font-family="Arial" font-size="24px" font-style="normal" font-weight="normal" text-decoration="none" x="600" y="210">UNREGISTERED</text><text fill="#eeeeee" stroke="none" font-family="Arial" font-size="24px" font-style="normal" font-weight="normal" text-decoration="none" x="600" y="240">UNREGISTERED</text><text fill="#eeeeee" stroke="none" font-family="Arial" font-size="24px" font-style="normal" font-weight="normal" text-decoration="none" x="600" y="270">UNREGISTERED</text><text fill="#eeeeee" stroke="none" font-family="Arial" font-size="24px" font-style="normal" font-weight="normal" text-decoration="none" x="600" y="300">UNREGISTERED</text><text fill="#eeeeee" stroke="none" font-family="Arial" font-size="24px" font-style="normal" font-weight="normal" text-decoration="none" x="600" y="330">UNREGISTERED</text><text fill="#eeeeee" stroke="none" font-family="Arial" font-size="24px" font-style="normal" font-weight="normal" text-decoration="none" x="600" y="360">UNREGISTERED</text><text fill="#eeeeee" stroke="none" font-family="Arial" font-size="24px" font-style="normal" font-weight="normal" text-decoration="none" x="600" y="390">UNREGISTERED</text><text fill="#eeeeee" stroke="none" font-family="Arial" font-size="24px" font-style="normal" font-weight="normal" text-decoration="none" x="600" y="420">UNREGISTERED</text><text fill="#eeeeee" stroke="none" font-family="Arial" font-size="24px" font-style="normal" font-weight="normal" text-decoration="none" x="600" y="450">UNREGISTERED</text><text fill="#eeeeee" stroke="none" font-family="Arial" font-size="24px" font-style="normal" font-weight="normal" text-decoration="none" x="600" y="480">UNREGISTERED</text><text fill="#eeeeee" stroke="none" font-family="Arial" font-size="24px" font-style="normal" font-weight="normal" text-decoration="none" x="600" y="510">UNREGISTERED</text><text fill="#eeeeee" stroke="none" font-family="Arial" font-size="24px" font-style="normal" font-weight="normal" text-decoration="none" x="600" y="540">UNREGISTERED</text><text fill="#eeeeee" stroke="none" font-family="Arial" font-size="24px" font-style="normal" font-weight="normal" text-decoration="none" x="600" y="570">UNREGISTERED</text><text fill="#eeeeee" stroke="none" font-family="Arial" font-size="24px" font-style="normal" font-weight="normal" text-decoration="none" x="600" y="600">UNREGISTERED</text><text fill="#eeeeee" stroke="none" font-family="Arial" font-size="24px" font-style="normal" font-weight="normal" text-decoration="none" x="600" y="630">UNREGISTERED</text><text fill="#eeeeee" stroke="none" font-family="Arial" font-size="24px" font-style="normal" font-weight="normal" text-decoration="none" x="600" y="660">UNREGISTERED</text><text fill="#eeeeee" stroke="none" font-family="Arial" font-size="24px" font-style="normal" font-weight="normal" text-decoration="none" x="600" y="690">UNREGISTERED</text><text fill="#eeeeee" stroke="none" font-family="Arial" font-size="24px" font-style="normal" font-weight="normal" text-decoration="none" x="600" y="720">UNREGISTERED</text><text fill="#eeeeee" stroke="none" font-family="Arial" font-size="24px" font-style="normal" font-weight="normal" text-decoration="none" x="600" y="750">UNREGISTERED</text><text fill="#eeeeee" stroke="none" font-family="Arial" font-size="24px" font-style="normal" font-weight="normal" text-decoration="none" x="600" y="780">UNREGISTERED</text><text fill="#eeeeee" stroke="none" font-family="Arial" font-size="24px" font-style="normal" font-weight="normal" text-decoration="none" x="600" y="810">UNREGISTERED</text><text fill="#eeeeee" stroke="none" font-family="Arial" font-size="24px" font-style="normal" font-weight="normal" text-decoration="none" x="800" y="0">UNREGISTERED</text><text fill="#eeeeee" stroke="none" font-family="Arial" font-size="24px" font-style="normal" font-weight="normal" text-decoration="none" x="800" y="30">UNREGISTERED</text><text fill="#eeeeee" stroke="none" font-family="Arial" font-size="24px" font-style="normal" font-weight="normal" text-decoration="none" x="800" y="60">UNREGISTERED</text><text fill="#eeeeee" stroke="none" font-family="Arial" font-size="24px" font-style="normal" font-weight="normal" text-decoration="none" x="800" y="90">UNREGISTERED</text><text fill="#eeeeee" stroke="none" font-family="Arial" font-size="24px" font-style="normal" font-weight="normal" text-decoration="none" x="800" y="120">UNREGISTERED</text><text fill="#eeeeee" stroke="none" font-family="Arial" font-size="24px" font-style="normal" font-weight="normal" text-decoration="none" x="800" y="150">UNREGISTERED</text><text fill="#eeeeee" stroke="none" font-family="Arial" font-size="24px" font-style="normal" font-weight="normal" text-decoration="none" x="800" y="180">UNREGISTERED</text><text fill="#eeeeee" stroke="none" font-family="Arial" font-size="24px" font-style="normal" font-weight="normal" text-decoration="none" x="800" y="210">UNREGISTERED</text><text fill="#eeeeee" stroke="none" font-family="Arial" font-size="24px" font-style="normal" font-weight="normal" text-decoration="none" x="800" y="240">UNREGISTERED</text><text fill="#eeeeee" stroke="none" font-family="Arial" font-size="24px" font-style="normal" font-weight="normal" text-decoration="none" x="800" y="270">UNREGISTERED</text><text fill="#eeeeee" stroke="none" font-family="Arial" font-size="24px" font-style="normal" font-weight="normal" text-decoration="none" x="800" y="300">UNREGISTERED</text><text fill="#eeeeee" stroke="none" font-family="Arial" font-size="24px" font-style="normal" font-weight="normal" text-decoration="none" x="800" y="330">UNREGISTERED</text><text fill="#eeeeee" stroke="none" font-family="Arial" font-size="24px" font-style="normal" font-weight="normal" text-decoration="none" x="800" y="360">UNREGISTERED</text><text fill="#eeeeee" stroke="none" font-family="Arial" font-size="24px" font-style="normal" font-weight="normal" text-decoration="none" x="800" y="390">UNREGISTERED</text><text fill="#eeeeee" stroke="none" font-family="Arial" font-size="24px" font-style="normal" font-weight="normal" text-decoration="none" x="800" y="420">UNREGISTERED</text><text fill="#eeeeee" stroke="none" font-family="Arial" font-size="24px" font-style="normal" font-weight="normal" text-decoration="none" x="800" y="450">UNREGISTERED</text><text fill="#eeeeee" stroke="none" font-family="Arial" font-size="24px" font-style="normal" font-weight="normal" text-decoration="none" x="800" y="480">UNREGISTERED</text><text fill="#eeeeee" stroke="none" font-family="Arial" font-size="24px" font-style="normal" font-weight="normal" text-decoration="none" x="800" y="510">UNREGISTERED</text><text fill="#eeeeee" stroke="none" font-family="Arial" font-size="24px" font-style="normal" font-weight="normal" text-decoration="none" x="800" y="540">UNREGISTERED</text><text fill="#eeeeee" stroke="none" font-family="Arial" font-size="24px" font-style="normal" font-weight="normal" text-decoration="none" x="800" y="570">UNREGISTERED</text><text fill="#eeeeee" stroke="none" font-family="Arial" font-size="24px" font-style="normal" font-weight="normal" text-decoration="none" x="800" y="600">UNREGISTERED</text><text fill="#eeeeee" stroke="none" font-family="Arial" font-size="24px" font-style="normal" font-weight="normal" text-decoration="none" x="800" y="630">UNREGISTERED</text><text fill="#eeeeee" stroke="none" font-family="Arial" font-size="24px" font-style="normal" font-weight="normal" text-decoration="none" x="800" y="660">UNREGISTERED</text><text fill="#eeeeee" stroke="none" font-family="Arial" font-size="24px" font-style="normal" font-weight="normal" text-decoration="none" x="800" y="690">UNREGISTERED</text><text fill="#eeeeee" stroke="none" font-family="Arial" font-size="24px" font-style="normal" font-weight="normal" text-decoration="none" x="800" y="720">UNREGISTERED</text><text fill="#eeeeee" stroke="none" font-family="Arial" font-size="24px" font-style="normal" font-weight="normal" text-decoration="none" x="800" y="750">UNREGISTERED</text><text fill="#eeeeee" stroke="none" font-family="Arial" font-size="24px" font-style="normal" font-weight="normal" text-decoration="none" x="800" y="780">UNREGISTERED</text><text fill="#eeeeee" stroke="none" font-family="Arial" font-size="24px" font-style="normal" font-weight="normal" text-decoration="none" x="800" y="810">UNREGISTERED</text><g transform="translate(-182,-62) scale(1,1)"><path fill="#C0C0C0" stroke="none" d="M 209 247 L 342.447265625 247 Q 352.447265625 247 352.447265625 257 L 352.447265625 317 Q 352.447265625 327 342.447265625 327 L 209 327 Q 199 327 199 317 L 199 257 Q 199 247 209 247 Z" opacity="0.2"/></g><g transform="translate(-182,-62) scale(1,1)"><path fill="#ffffff" stroke="none" d="M 202 240 L 335.447265625 240 Q 345.447265625 240 345.447265625 250 L 345.447265625 310 Q 345.447265625 320 335.447265625 320 L 202 320 Q 192 320 192 310 L 192 250 Q 192 240 202 240 Z"/></g><g transform="translate(-182,-62) scale(1,1)"><path fill="none" stroke="#000000" d="M 202 240 L 335.447265625 240 Q 345.447265625 240 345.447265625 250 L 345.447265625 310 Q 345.447265625 320 335.447265625 320 L 202 320 Q 192 320 192 310 L 192 250 Q 192 240 202 240 Z" stroke-miterlimit="10"/></g><g transform="translate(-182,-62) scale(1,1)"><path fill="none" stroke="#000000" d="M 192 265 L 345.447265625 265" stroke-miterlimit="10"/></g><g transform="translate(-182,-62) scale(1,1)"><g><path fill="none" stroke="none"/><text fill="#000000" stroke="none" font-family="Arial" font-size="13px" font-style="normal" font-weight="bold" text-decoration="none" x="196.5" y="258">Criando disponibildade</text></g></g><g transform="translate(-182,-62) scale(1,1)"><g><path fill="none" stroke="none"/><text fill="#000000" stroke="none" font-family="Arial" font-size="13px" font-style="normal" font-weight="normal" text-decoration="none" x="197" y="281">do/CriaDisponibilidade</text></g></g><g transform="translate(-182,-62) scale(1,1)"><path fill="#C0C0C0" stroke="none" d="M 271 88.5 C 271 83.2532944 275.2532944 79 280.5 79 C 285.7467056 79 290 83.2532944 290 88.5 C 290 93.7467056 285.7467056 98 280.5 98 C 275.2532944 98 271 93.7467056 271 88.5 Z" opacity="0.2"/></g><g transform="translate(-182,-62) scale(1,1)"><path fill="#000000" stroke="none" d="M 264 81.5 C 264 76.2532944 268.2532944 72 273.5 72 C 278.7467056 72 283 76.2532944 283 81.5 C 283 86.7467056 278.7467056 91 273.5 91 C 268.2532944 91 264 86.7467056 264 81.5 Z"/></g><g transform="translate(-182,-62) scale(1,1)"><path fill="none" stroke="#000000" d="M 273 92 L 269 239" stroke-miterlimit="10"/></g><g transform="translate(-182,-62) scale(1,1)"><path fill="none" stroke="#000000" d="M 265.06847285963033 228.72658312222575 L 269 239 L 273.48439323885617 228.95558775839515" stroke-miterlimit="10"/></g><g transform="translate(-182,-62) scale(1,1)"><g><path fill="none" stroke="none"/><text fill="#000000" stroke="none" font-family="Arial" font-size="13px" font-style="normal" font-weight="normal" text-decoration="none" x="217.5" y="170">Recebe disponibilidade</text></g></g><g transform="translate(-182,-62) scale(1,1)"><path fill="#C0C0C0" stroke="none" d="M 505 223 L 668.05908203125 223 Q 678.05908203125 223 678.05908203125 233 L 678.05908203125 316 Q 678.05908203125 326 668.05908203125 326 L 505 326 Q 495 326 495 316 L 495 233 Q 495 223 505 223 Z" opacity="0.2"/></g><g transform="translate(-182,-62) scale(1,1)"><path fill="#ffffff" stroke="none" d="M 498 216 L 661.05908203125 216 Q 671.05908203125 216 671.05908203125 226 L 671.05908203125 309 Q 671.05908203125 319 661.05908203125 319 L 498 319 Q 488 319 488 309 L 488 226 Q 488 216 498 216 Z"/></g><g transform="translate(-182,-62) scale(1,1)"><path fill="none" stroke="#000000" d="M 498 216 L 661.05908203125 216 Q 671.05908203125 216 671.05908203125 226 L 671.05908203125 309 Q 671.05908203125 319 661.05908203125 319 L 498 319 Q 488 319 488 309 L 488 226 Q 488 216 498 216 Z" stroke-miterlimit="10"/></g><g transform="translate(-182,-62) scale(1,1)"><path fill="none" stroke="#000000" d="M 488 241 L 671.05908203125 241" stroke-miterlimit="10"/></g><g transform="translate(-182,-62) scale(1,1)"><g><path fill="none" stroke="none"/><text fill="#000000" stroke="none" font-family="Arial" font-size="13px" font-style="normal" font-weight="bold" text-decoration="none" x="492.5" y="234">Atualizando Disponibilidade</text></g></g><g transform="translate(-182,-62) scale(1,1)"><g><path fill="none" stroke="none"/><text fill="#000000" stroke="none" font-family="Arial" font-size="13px" font-style="normal" font-weight="normal" text-decoration="none" x="493" y="257">do/AtualizaDisponibilidade</text></g></g><g transform="translate(-182,-62) scale(1,1)"><path fill="#C0C0C0" stroke="none" d="M 857 239 L 1002.74267578125 239 Q 1012.74267578125 239 1012.74267578125 249 L 1012.74267578125 309 Q 1012.74267578125 319 1002.74267578125 319 L 857 319 Q 847 319 847 309 L 847 249 Q 847 239 857 239 Z" opacity="0.2"/></g><g transform="translate(-182,-62) scale(1,1)"><path fill="#ffffff" stroke="none" d="M 850 232 L 995.74267578125 232 Q 1005.74267578125 232 1005.74267578125 242 L 1005.74267578125 302 Q 1005.74267578125 312 995.74267578125 312 L 850 312 Q 840 312 840 302 L 840 242 Q 840 232 850 232 Z"/></g><g transform="translate(-182,-62) scale(1,1)"><path fill="none" stroke="#000000" d="M 850 232 L 995.74267578125 232 Q 1005.74267578125 232 1005.74267578125 242 L 1005.74267578125 302 Q 1005.74267578125 312 995.74267578125 312 L 850 312 Q 840 312 840 302 L 840 242 Q 840 232 850 232 Z" stroke-miterlimit="10"/></g><g transform="translate(-182,-62) scale(1,1)"><path fill="none" stroke="#000000" d="M 840 257 L 1005.74267578125 257" stroke-miterlimit="10"/></g><g transform="translate(-182,-62) scale(1,1)"><g><path fill="none" stroke="none"/><text fill="#000000" stroke="none" font-family="Arial" font-size="13px" font-style="normal" font-weight="bold" text-decoration="none" x="844.5" y="250">Salvando disponibilidade</text></g></g><g transform="translate(-182,-62) scale(1,1)"><g><path fill="none" stroke="none"/><text fill="#000000" stroke="none" font-family="Arial" font-size="13px" font-style="normal" font-weight="normal" text-decoration="none" x="845" y="273">do/SalvaDisponibilidade</text></g></g><g transform="translate(-182,-62) scale(1,1)"><path fill="none" stroke="#000000" d="M 346 277 L 487 271" stroke-miterlimit="10"/></g><g transform="translate(-182,-62) scale(1,1)"><path fill="none" stroke="#000000" d="M 477.0254802740569 275.63777492303933 L 487 271 L 476.66754736500866 267.2263515604047" stroke-miterlimit="10"/></g><g transform="translate(-182,-62) scale(1,1)"><g><path fill="none" stroke="none"/><text fill="#000000" stroke="none" font-family="Arial" font-size="13px" font-style="normal" font-weight="normal" text-decoration="none" x="358.5" y="264">Enviando à agenda</text></g></g><g transform="translate(-182,-62) scale(1,1)"><path fill="none" stroke="#000000" d="M 672 268 L 839 271" stroke-miterlimit="10"/></g><g transform="translate(-182,-62) scale(1,1)"><path fill="none" stroke="#000000" d="M 828.7633566524165 275.0263051268346 L 839 271 L 828.9145724140246 266.60862773064645" stroke-miterlimit="10"/></g><g transform="translate(-182,-62) scale(1,1)"><g><path fill="none" stroke="none"/><text fill="#000000" stroke="none" font-family="Arial" font-size="13px" font-style="normal" font-weight="normal" text-decoration="none" x="687.5" y="259">Recebe disponibilidade</text></g></g><g transform="translate(-182,-62) scale(1,1)"><path fill="#C0C0C0" stroke="none" d="M 865 391 L 997 391 Q 1007 391 1007 401 L 1007 461 Q 1007 471 997 471 L 865 471 Q 855 471 855 461 L 855 401 Q 855 391 865 391 Z" opacity="0.2"/></g><g transform="translate(-182,-62) scale(1,1)"><path fill="#ffffff" stroke="none" d="M 858 384 L 990 384 Q 1000 384 1000 394 L 1000 454 Q 1000 464 990 464 L 858 464 Q 848 464 848 454 L 848 394 Q 848 384 858 384 Z"/></g><g transform="translate(-182,-62) scale(1,1)"><path fill="none" stroke="#000000" d="M 858 384 L 990 384 Q 1000 384 1000 394 L 1000 454 Q 1000 464 990 464 L 858 464 Q 848 464 848 454 L 848 394 Q 848 384 858 384 Z" stroke-miterlimit="10"/></g><g transform="translate(-182,-62) scale(1,1)"><path fill="none" stroke="#000000" d="M 848 409 L 1000 409" stroke-miterlimit="10"/></g><g transform="translate(-182,-62) scale(1,1)"><g><path fill="none" stroke="none"/><text fill="#000000" stroke="none" font-family="Arial" font-size="13px" font-style="normal" font-weight="bold" text-decoration="none" x="862.583251953125" y="402">Realizando Reserva</text></g></g><g transform="translate(-182,-62) scale(1,1)"><g><path fill="none" stroke="none"/><text fill="#000000" stroke="none" font-family="Arial" font-size="13px" font-style="normal" font-weight="normal" text-decoration="none" x="853" y="425">do/RealizaReserva</text></g></g><g transform="translate(-182,-62) scale(1,1)"><path fill="#C0C0C0" stroke="none" d="M 849 559 L 1012.05908203125 559 Q 1022.05908203125 559 1022.05908203125 569 L 1022.05908203125 613 Q 1022.05908203125 623 1012.05908203125 623 L 849 623 Q 839 623 839 613 L 839 569 Q 839 559 849 559 Z" opacity="0.2"/></g><g transform="translate(-182,-62) scale(1,1)"><path fill="#ffffff" stroke="none" d="M 842 552 L 1005.05908203125 552 Q 1015.05908203125 552 1015.05908203125 562 L 1015.05908203125 606 Q 1015.05908203125 616 1005.05908203125 616 L 842 616 Q 832 616 832 606 L 832 562 Q 832 552 842 552 Z"/></g><g transform="translate(-182,-62) scale(1,1)"><path fill="none" stroke="#000000" d="M 842 552 L 1005.05908203125 552 Q 1015.05908203125 552 1015.05908203125 562 L 1015.05908203125 606 Q 1015.05908203125 616 1005.05908203125 616 L 842 616 Q 832 616 832 606 L 832 562 Q 832 552 842 552 Z" stroke-miterlimit="10"/></g><g transform="translate(-182,-62) scale(1,1)"><path fill="none" stroke="#000000" d="M 832 577 L 1015.05908203125 577" stroke-miterlimit="10"/></g><g transform="translate(-182,-62) scale(1,1)"><g><path fill="none" stroke="none"/><text fill="#000000" stroke="none" font-family="Arial" font-size="13px" font-style="normal" font-weight="bold" text-decoration="none" x="836.5" y="570">Atualizando Disponibilidade</text></g></g><g transform="translate(-182,-62) scale(1,1)"><g><path fill="none" stroke="none"/><text fill="#000000" stroke="none" font-family="Arial" font-size="13px" font-style="normal" font-weight="normal" text-decoration="none" x="837" y="593">do/AtualizaDisponibilidade</text></g></g><g transform="translate(-182,-62) scale(1,1)"><path fill="none" stroke="#000000" d="M 923 313 L 923 383" stroke-miterlimit="10"/></g><g transform="translate(-182,-62) scale(1,1)"><path fill="none" stroke="#000000" d="M 918.790482243984 372.83732514237585 L 923 383 L 927.209517756016 372.83732514237585" stroke-miterlimit="10"/></g><g transform="translate(-182,-62) scale(1,1)"><g><path fill="none" stroke="none"/><text fill="#000000" stroke="none" font-family="Arial" font-size="13px" font-style="normal" font-weight="normal" text-decoration="none" x="864.5" y="352">Disponibilidade solicitada</text></g></g><g transform="translate(-182,-62) scale(1,1)"><path fill="none" stroke="#000000" d="M 924 465 L 923 551" stroke-miterlimit="10"/></g><g transform="translate(-182,-62) scale(1,1)"><path fill="none" stroke="#000000" d="M 918.9089294457003 540.7890675391645 L 923 551 L 927.3273958540367 540.8869566834476" stroke-miterlimit="10"/></g><g transform="translate(-182,-62) scale(1,1)"><g><path fill="none" stroke="none"/><text fill="#000000" stroke="none" font-family="Arial" font-size="13px" font-style="normal" font-weight="normal" text-decoration="none" x="890.5" y="512">Mudando status</text></g></g><g transform="translate(-182,-62) scale(1,1)"><path fill="#C0C0C0" stroke="none" d="M 849 703 L 1018.01416015625 703 Q 1028.01416015625 703 1028.01416015625 713 L 1028.01416015625 765 Q 1028.01416015625 775 1018.01416015625 775 L 849 775 Q 839 775 839 765 L 839 713 Q 839 703 849 703 Z" opacity="0.2"/></g><g transform="translate(-182,-62) scale(1,1)"><path fill="#ffffff" stroke="none" d="M 842 696 L 1011.01416015625 696 Q 1021.01416015625 696 1021.01416015625 706 L 1021.01416015625 758 Q 1021.01416015625 768 1011.01416015625 768 L 842 768 Q 832 768 832 758 L 832 706 Q 832 696 842 696 Z"/></g><g transform="translate(-182,-62) scale(1,1)"><path fill="none" stroke="#000000" d="M 842 696 L 1011.01416015625 696 Q 1021.01416015625 696 1021.01416015625 706 L 1021.01416015625 758 Q 1021.01416015625 768 1011.01416015625 768 L 842 768 Q 832 768 832 758 L 832 706 Q 832 696 842 696 Z" stroke-miterlimit="10"/></g><g transform="translate(-182,-62) scale(1,1)"><path fill="none" stroke="#000000" d="M 832 721 L 1021.01416015625 721" stroke-miterlimit="10"/></g><g transform="translate(-182,-62) scale(1,1)"><g><path fill="none" stroke="none"/><text fill="#000000" stroke="none" font-family="Arial" font-size="13px" font-style="normal" font-weight="bold" text-decoration="none" x="864.382568359375" y="714">Atualizando Serviço</text></g></g><g transform="translate(-182,-62) scale(1,1)"><g><path fill="none" stroke="none"/><text fill="#000000" stroke="none" font-family="Arial" font-size="13px" font-style="normal" font-weight="normal" text-decoration="none" x="837" y="737">do/AtualizaServico</text></g></g><g transform="translate(-182,-62) scale(1,1)"><path fill="none" stroke="#000000" d="M 924 617 L 925 695" stroke-miterlimit="10"/></g><g transform="translate(-182,-62) scale(1,1)"><path fill="none" stroke="#000000" d="M 920.6605481542205 684.8921239778992 L 925 695 L 929.0788918518372 684.7841964945964" stroke-miterlimit="10"/></g><g transform="translate(-182,-62) scale(1,1)"><g><path fill="none" stroke="none"/><text fill="#000000" stroke="none" font-family="Arial" font-size="13px" font-style="normal" font-weight="normal" text-decoration="none" x="893.5" y="660">Realiza serviço</text></g></g><g transform="translate(-182,-62) scale(1,1)"><path fill="#C0C0C0" stroke="none" d="M 919 883.5 C 919 876.59644 924.59644 871 931.5 871 C 938.40356 871 944 876.59644 944 883.5 C 944 890.40356 938.40356 896 931.5 896 C 924.59644 896 919 890.40356 919 883.5 Z" opacity="0.2"/></g><g transform="translate(-182,-62) scale(1,1)"><path fill="none" stroke="#000000" d="M 912 876.5 C 912 869.59644 917.59644 864 924.5 864 C 931.40356 864 937 869.59644 937 876.5 C 937 883.40356 931.40356 889 924.5 889 C 917.59644 889 912 883.40356 912 876.5 Z" stroke-miterlimit="10"/></g><g transform="translate(-182,-62) scale(1,1)"><path fill="#000000" stroke="none" d="M 917 876.5 C 917 872.357864 920.357864 869 924.5 869 C 928.642136 869 932 872.357864 932 876.5 C 932 880.642136 928.642136 884 924.5 884 C 920.357864 884 917 880.642136 917 876.5 Z"/></g><g transform="translate(-182,-62) scale(1,1)"><path fill="none" stroke="#000000" d="M 925 769 L 924 863" stroke-miterlimit="10"/></g><g transform="translate(-182,-62) scale(1,1)"><path fill="none" stroke="#000000" d="M 919.8988278714927 852.7931205957768 L 924 863 L 928.3173870185987 852.8826797356397" stroke-miterlimit="10"/></g><g transform="translate(-182,-62) scale(1,1)"><g><path fill="none" stroke="none"/><text fill="#000000" stroke="none" font-family="Arial" font-size="13px" font-style="normal" font-weight="normal" text-decoration="none" x="885.5" y="820">Serviço encerrado</text></g></g></g></svg>