<svg version="1.1" xmlns="http://www.w3.org/2000/svg" xmlns:xlink="http://www.w3.org/1999/xlink" width="1171" height="755"><defs/><g><text fill="#eeeeee" stroke="none" font-family="Arial" font-size="24px" font-style="normal" font-weight="normal" text-decoration="none" x="0" y="0">UNREGISTERED</text><text fill="#eeeeee" stroke="none" font-family="Arial" font-size="24px" font-style="normal" font-weight="normal" text-decoration="none" x="0" y="30">UNREGISTERED</text><text fill="#eeeeee" stroke="none" font-family="Arial" font-size="24px" font-style="normal" font-weight="normal" text-decoration="none" x="0" y="60">UNREGISTERED</text><text fill="#eeeeee" stroke="none" font-family="Arial" font-size="24px" font-style="normal" font-weight="normal" text-decoration="none" x="0" y="90">UNREGISTERED</text><text fill="#eeeeee" stroke="none" font-family="Arial" font-size="24px" font-style="normal" font-weight="normal" text-decoration="none" x="0" y="120">UNREGISTERED</text><text fill="#eeeeee" stroke="none" font-family="Arial" font-size="24px" font-style="normal" font-weight="normal" text-decoration="none" x="0" y="150">UNREGISTERED</text><text fill="#eeeeee" stroke="none" font-family="Arial" font-size="24px" font-style="normal" font-weight="normal" text-decoration="none" x="0" y="180">UNREGISTERED</text><text fill="#eeeeee" stroke="none" font-family="Arial" font-size="24px" font-style="normal" font-weight="normal" text-decoration="none" x="0" y="210">UNREGISTERED</text><text fill="#eeeeee" stroke="none" font-family="Arial" font-size="24px" font-style="normal" font-weight="normal" text-decoration="none" x="0" y="240">UNREGISTERED</text><text fill="#eeeeee" stroke="none" font-family="Arial" font-size="24px" font-style="normal" font-weight="normal" text-decoration="none" x="0" y="270">UNREGISTERED</text><text fill="#eeeeee" stroke="none" font-family="Arial" font-size="24px" font-style="normal" font-weight="normal" text-decoration="none" x="0" y="300">UNREGISTERED</text><text fill="#eeeeee" stroke="none" font-family="Arial" font-size="24px" font-style="normal" font-weight="normal" text-decoration="none" x="0" y="330">UNREGISTERED</text><text fill="#eeeeee" stroke="none" font-family="Arial" font-size="24px" font-style="normal" font-weight="normal" text-decoration="none" x="0" y="360">UNREGISTERED</text><text fill="#eeeeee" stroke="none" font-family="Arial" font-size="24px" font-style="normal" font-weight="normal" text-decoration="none" x="0" y="390">UNREGISTERED</text><text fill="#eeeeee" stroke="none" font-family="Arial" font-size="24px" font-style="normal" font-weight="normal" text-decoration="none" x="0" y="420">UNREGISTERED</text><text fill="#eeeeee" stroke="none" font-family="Arial" font-size="24px" font-style="normal" font-weight="normal" text-decoration="none" x="0" y="450">UNREGISTERED</text><text fill="#eeeeee" stroke="none" font-family="Arial" font-size="24px" font-style="normal" font-weight="normal" text-decoration="none" x="0" y="480">UNREGISTERED</text><text fill="#eeeeee" stroke="none" font-family="Arial" font-size="24px" font-style="normal" font-weight="normal" text-decoration="none" x="0" y="510">UNREGISTERED</text><text fill="#eeeeee" stroke="none" font-family="Arial" font-size="24px" font-style="normal" font-weight="normal" text-decoration="none" x="0" y="540">UNREGISTERED</text><text fill="#eeeeee" stroke="none" font-family="Arial" font-size="24px" font-style="normal" font-weight="normal" text-decoration="none" x="0" y="570">UNREGISTERED</text><text fill="#eeeeee" stroke="none" font-family="Arial" font-size="24px" font-style="normal" font-weight="normal" text-decoration="none" x="0" y="600">UNREGISTERED</text><text fill="#eeeeee" stroke="none" font-family="Arial" font-size="24px" font-style="normal" font-weight="normal" text-decoration="none" x="0" y="630">UNREGISTERED</text><text fill="#eeeeee" stroke="none" font-family="Arial" font-size="24px" font-style="normal" font-weight="normal" text-decoration="none" x="0" y="660">UNREGISTERED</text><text fill="#eeeeee" stroke="none" font-family="Arial" font-size="24px" font-style="normal" font-weight="normal" text-decoration="none" x="0" y="690">UNREGISTERED</text><text fill="#eeeeee" stroke="none" font-family="Arial" font-size="24px" font-style="normal" font-weight="normal" text-decoration="none" x="0" y="720">UNREGISTERED</text><text fill="#eeeeee" stroke="none" font-family="Arial" font-size="24px" font-style="normal" font-weight="normal" text-decoration="none" x="0" y="750">UNREGISTERED</text><text fill="#eeeeee" stroke="none" font-family="Arial" font-size="24px" font-style="normal" font-weight="normal" text-decoration="none" x="200" y="0">UNREGISTERED</text><text fill="#eeeeee" stroke="none" font-family="Arial" font-size="24px" font-style="normal" font-weight="normal" text-decoration="none" x="200" y="30">UNREGISTERED</text><text fill="#eeeeee" stroke="none" font-family="Arial" font-size="24px" font-style="normal" font-weight="normal" text-decoration="none" x="200" y="60">UNREGISTERED</text><text fill="#eeeeee" stroke="none" font-family="Arial" font-size="24px" font-style="normal" font-weight="normal" text-decoration="none" x="200" y="90">UNREGISTERED</text><text fill="#eeeeee" stroke="none" font-family="Arial" font-size="24px" font-style="normal" font-weight="normal" text-decoration="none" x="200" y="120">UNREGISTERED</text><text fill="#eeeeee" stroke="none" font-family="Arial" font-size="24px" font-style="normal" font-weight="normal" text-decoration="none" x="200" y="150">UNREGISTERED</text><text fill="#eeeeee" stroke="none" font-family="Arial" font-size="24px" font-style="normal" font-weight="normal" text-decoration="none" x="200" y="180">UNREGISTERED</text><text fill="#eeeeee" stroke="none" font-family="Arial" font-size="24px" font-style="normal" font-weight="normal" text-decoration="none" x="200" y="210">UNREGISTERED</text><text fill="#eeeeee" stroke="none" font-family="Arial" font-size="24px" font-style="normal" font-weight="normal" text-decoration="none" x="200" y="240">UNREGISTERED</text><text fill="#eeeeee" stroke="none" font-family="Arial" font-size="24px" font-style="normal" font-weight="normal" text-decoration="none" x="200" y="270">UNREGISTERED</text><text fill="#eeeeee" stroke="none" font-family="Arial" font-size="24px" font-style="normal" font-weight="normal" text-decoration="none" x="200" y="300">UNREGISTERED</text><text fill="#eeeeee" stroke="none" font-family="Arial" font-size="24px" font-style="normal" font-weight="normal" text-decoration="none" x="200" y="330">UNREGISTERED</text><text fill="#eeeeee" stroke="none" font-family="Arial" font-size="24px" font-style="normal" font-weight="normal" text-decoration="none" x="200" y="360">UNREGISTERED</text><text fill="#eeeeee" stroke="none" font-family="Arial" font-size="24px" font-style="normal" font-weight="normal" text-decoration="none" x="200" y="390">UNREGISTERED</text><text fill="#eeeeee" stroke="none" font-family="Arial" font-size="24px" font-style="normal" font-weight="normal" text-decoration="none" x="200" y="420">UNREGISTERED</text><text fill="#eeeeee" stroke="none" font-family="Arial" font-size="24px" font-style="normal" font-weight="normal" text-decoration="none" x="200" y="450">UNREGISTERED</text><text fill="#eeeeee" stroke="none" font-family="Arial" font-size="24px" font-style="normal" font-weight="normal" text-decoration="none" x="200" y="480">UNREGISTERED</text><text fill="#eeeeee" stroke="none" font-family="Arial" font-size="24px" font-style="normal" font-weight="normal" text-decoration="none" x="200" y="510">UNREGISTERED</text><text fill="#eeeeee" stroke="none" font-family="Arial" font-size="24px" font-style="normal" font-weight="normal" text-decoration="none" x="200" y="540">UNREGISTERED</text><text fill="#eeeeee" stroke="none" font-family="Arial" font-size="24px" font-style="normal" font-weight="normal" text-decoration="none" x="200" y="570">UNREGISTERED</text><text fill="#eeeeee" stroke="none" font-family="Arial" font-size="24px" font-style="normal" font-weight="normal" text-decoration="none" x="200" y="600">UNREGISTERED</text><text fill="#eeeeee" stroke="none" font-family="Arial" font-size="24px" font-style="normal" font-weight="normal" text-decoration="none" x="200" y="630">UNREGISTERED</text><text fill="#eeeeee" stroke="none" font-family="Arial" font-size="24px" font-style="normal" font-weight="normal" text-decoration="none" x="200" y="660">UNREGISTERED</text><text fill="#eeeeee" stroke="none" font-family="Arial" font-size="24px" font-style="normal" font-weight="normal" text-decoration="none" x="200" y="690">UNREGISTERED</text><text fill="#eeeeee" stroke="none" font-family="Arial" font-size="24px" font-style="normal" font-weight="normal" text-decoration="none" x="200" y="720">UNREGISTERED</text><text fill="#eeeeee" stroke="none" font-family="Arial" font-size="24px" font-style="normal" font-weight="normal" text-decoration="none" x="200" y="750">UNREGISTERED</text><text fill="#eeeeee" stroke="none" font-family="Arial" font-size="24px" font-style="normal" font-weight="normal" text-decoration="none" x="400" y="0">UNREGISTERED</text><text fill="#eeeeee" stroke="none" font-family="Arial" font-size="24px" font-style="normal" font-weight="normal" text-decoration="none" x="400" y="30">UNREGISTERED</text><text fill="#eeeeee" stroke="none" font-family="Arial" font-size="24px" font-style="normal" font-weight="normal" text-decoration="none" x="400" y="60">UNREGISTERED</text><text fill="#eeeeee" stroke="none" font-family="Arial" font-size="24px" font-style="normal" font-weight="normal" text-decoration="none" x="400" y="90">UNREGISTERED</text><text fill="#eeeeee" stroke="none" font-family="Arial" font-size="24px" font-style="normal" font-weight="normal" text-decoration="none" x="400" y="120">UNREGISTERED</text><text fill="#eeeeee" stroke="none" font-family="Arial" font-size="24px" font-style="normal" font-weight="normal" text-decoration="none" x="400" y="150">UNREGISTERED</text><text fill="#eeeeee" stroke="none" font-family="Arial" font-size="24px" font-style="normal" font-weight="normal" text-decoration="none" x="400" y="180">UNREGISTERED</text><text fill="#eeeeee" stroke="none" font-family="Arial" font-size="24px" font-style="normal" font-weight="normal" text-decoration="none" x="400" y="210">UNREGISTERED</text><text fill="#eeeeee" stroke="none" font-family="Arial" font-size="24px" font-style="normal" font-weight="normal" text-decoration="none" x="400" y="240">UNREGISTERED</text><text fill="#eeeeee" stroke="none" font-family="Arial" font-size="24px" font-style="normal" font-weight="normal" text-decoration="none" x="400" y="270">UNREGISTERED</text><text fill="#eeeeee" stroke="none" font-family="Arial" font-size="24px" font-style="normal" font-weight="normal" text-decoration="none" x="400" y="300">UNREGISTERED</text><text fill="#eeeeee" stroke="none" font-family="Arial" font-size="24px" font-style="normal" font-weight="normal" text-decoration="none" x="400" y="330">UNREGISTERED</text><text fill="#eeeeee" stroke="none" font-family="Arial" font-size="24px" font-style="normal" font-weight="normal" text-decoration="none" x="400" y="360">UNREGISTERED</text><text fill="#eeeeee" stroke="none" font-family="Arial" font-size="24px" font-style="normal" font-weight="normal" text-decoration="none" x="400" y="390">UNREGISTERED</text><text fill="#eeeeee" stroke="none" font-family="Arial" font-size="24px" font-style="normal" font-weight="normal" text-decoration="none" x="400" y="420">UNREGISTERED</text><text fill="#eeeeee" stroke="none" font-family="Arial" font-size="24px" font-style="normal" font-weight="normal" text-decoration="none" x="400" y="450">UNREGISTERED</text><text fill="#eeeeee" stroke="none" font-family="Arial" font-size="24px" font-style="normal" font-weight="normal" text-decoration="none" x="400" y="480">UNREGISTERED</text><text fill="#eeeeee" stroke="none" font-family="Arial" font-size="24px" font-style="normal" font-weight="normal" text-decoration="none" x="400" y="510">UNREGISTERED</text><text fill="#eeeeee" stroke="none" font-family="Arial" font-size="24px" font-style="normal" font-weight="normal" text-decoration="none" x="400" y="540">UNREGISTERED</text><text fill="#eeeeee" stroke="none" font-family="Arial" font-size="24px" font-style="normal" font-weight="normal" text-decoration="none" x="400" y="570">UNREGISTERED</text><text fill="#eeeeee" stroke="none" font-family="Arial" font-size="24px" font-style="normal" font-weight="normal" text-decoration="none" x="400" y="600">UNREGISTERED</text><text fill="#eeeeee" stroke="none" font-family="Arial" font-size="24px" font-style="normal" font-weight="normal" text-decoration="none" x="400" y="630">UNREGISTERED</text><text fill="#eeeeee" stroke="none" font-family="Arial" font-size="24px" font-style="normal" font-weight="normal" text-decoration="none" x="400" y="660">UNREGISTERED</text><text fill="#eeeeee" stroke="none" font-family="Arial" font-size="24px" font-style="normal" font-weight="normal" text-decoration="none" x="400" y="690">UNREGISTERED</text><text fill="#eeeeee" stroke="none" font-family="Arial" font-size="24px" font-style="normal" font-weight="normal" text-decoration="none" x="400" y="720">UNREGISTERED</text><text fill="#eeeeee" stroke="none" font-family="Arial" font-size="24px" font-style="normal" font-weight="normal" text-decoration="none" x="400" y="750">UNREGISTERED</text><text fill="#eeeeee" stroke="none" font-family="Arial" font-size="24px" font-style="normal" font-weight="normal" text-decoration="none" x="600" y="0">UNREGISTERED</text><text fill="#eeeeee" stroke="none" font-family="Arial" font-size="24px" font-style="normal" font-weight="normal" text-decoration="none" x="600" y="30">UNREGISTERED</text><text fill="#eeeeee" stroke="none" font-family="Arial" font-size="24px" font-style="normal" font-weight="normal" text-decoration="none" x="600" y="60">UNREGISTERED</text><text fill="#eeeeee" stroke="none" font-family="Arial" font-size="24px" font-style="normal" font-weight="normal" text-decoration="none" x="600" y="90">UNREGISTERED</text><text fill="#eeeeee" stroke="none" font-family="Arial" font-size="24px" font-style="normal" font-weight="normal" text-decoration="none" x="600" y="120">UNREGISTERED</text><text fill="#eeeeee" stroke="none" font-family="Arial" font-size="24px" font-style="normal" font-weight="normal" text-decoration="none" x="600" y="150">UNREGISTERED</text><text fill="#eeeeee" stroke="none" font-family="Arial" font-size="24px" font-style="normal" font-weight="normal" text-decoration="none" x="600" y="180">UNREGISTERED</text><text fill="#eeeeee" stroke="none" font-family="Arial" font-size="24px" font-style="normal" font-weight="normal" text-decoration="none" x="600" y="210">UNREGISTERED</text><text fill="#eeeeee" stroke="none" font-family="Arial" font-size="24px" font-style="normal" font-weight="normal" text-decoration="none" x="600" y="240">UNREGISTERED</text><text fill="#eeeeee" stroke="none" font-family="Arial" font-size="24px" font-style="normal" font-weight="normal" text-decoration="none" x="600" y="270">UNREGISTERED</text><text fill="#eeeeee" stroke="none" font-family="Arial" font-size="24px" font-style="normal" font-weight="normal" text-decoration="none" x="600" y="300">UNREGISTERED</text><text fill="#eeeeee" stroke="none" font-family="Arial" font-size="24px" font-style="normal" font-weight="normal" text-decoration="none" x="600" y="330">UNREGISTERED</text><text fill="#eeeeee" stroke="none" font-family="Arial" font-size="24px" font-style="normal" font-weight="normal" text-decoration="none" x="600" y="360">UNREGISTERED</text><text fill="#eeeeee" stroke="none" font-family="Arial" font-size="24px" font-style="normal" font-weight="normal" text-decoration="none" x="600" y="390">UNREGISTERED</text><text fill="#eeeeee" stroke="none" font-family="Arial" font-size="24px" font-style="normal" font-weight="normal" text-decoration="none" x="600" y="420">UNREGISTERED</text><text fill="#eeeeee" stroke="none" font-family="Arial" font-size="24px" font-style="normal" font-weight="normal" text-decoration="none" x="600" y="450">UNREGISTERED</text><text fill="#eeeeee" stroke="none" font-family="Arial" font-size="24px" font-style="normal" font-weight="normal" text-decoration="none" x="600" y="480">UNREGISTERED</text><text fill="#eeeeee" stroke="none" font-family="Arial" font-size="24px" font-style="normal" font-weight="normal" text-decoration="none" x="600" y="510">UNREGISTERED</text><text fill="#eeeeee" stroke="none" font-family="Arial" font-size="24px" font-style="normal" font-weight="normal" text-decoration="none" x="600" y="540">UNREGISTERED</text><text fill="#eeeeee" stroke="none" font-family="Arial" font-size="24px" font-style="normal" font-weight="normal" text-decoration="none" x="600" y="570">UNREGISTERED</text><text fill="#eeeeee" stroke="none" font-family="Arial" font-size="24px" font-style="normal" font-weight="normal" text-decoration="none" x="600" y="600">UNREGISTERED</text><text fill="#eeeeee" stroke="none" font-family="Arial" font-size="24px" font-style="normal" font-weight="normal" text-decoration="none" x="600" y="630">UNREGISTERED</text><text fill="#eeeeee" stroke="none" font-family="Arial" font-size="24px" font-style="normal" font-weight="normal" text-decoration="none" x="600" y="660">UNREGISTERED</text><text fill="#eeeeee" stroke="none" font-family="Arial" font-size="24px" font-style="normal" font-weight="normal" text-decoration="none" x="600" y="690">UNREGISTERED</text><text fill="#eeeeee" stroke="none" font-family="Arial" font-size="24px" font-style="normal" font-weight="normal" text-decoration="none" x="600" y="720">UNREGISTERED</text><text fill="#eeeeee" stroke="none" font-family="Arial" font-size="24px" font-style="normal" font-weight="normal" text-decoration="none" x="600" y="750">UNREGISTERED</text><text fill="#eeeeee" stroke="none" font-family="Arial" font-size="24px" font-style="normal" font-weight="normal" text-decoration="none" x="800" y="0">UNREGISTERED</text><text fill="#eeeeee" stroke="none" font-family="Arial" font-size="24px" font-style="normal" font-weight="normal" text-decoration="none" x="800" y="30">UNREGISTERED</text><text fill="#eeeeee" stroke="none" font-family="Arial" font-size="24px" font-style="normal" font-weight="normal" text-decoration="none" x="800" y="60">UNREGISTERED</text><text fill="#eeeeee" stroke="none" font-family="Arial" font-size="24px" font-style="normal" font-weight="normal" text-decoration="none" x="800" y="90">UNREGISTERED</text><text fill="#eeeeee" stroke="none" font-family="Arial" font-size="24px" font-style="normal" font-weight="normal" text-decoration="none" x="800" y="120">UNREGISTERED</text><text fill="#eeeeee" stroke="none" font-family="Arial" font-size="24px" font-style="normal" font-weight="normal" text-decoration="none" x="800" y="150">UNREGISTERED</text><text fill="#eeeeee" stroke="none" font-family="Arial" font-size="24px" font-style="normal" font-weight="normal" text-decoration="none" x="800" y="180">UNREGISTERED</text><text fill="#eeeeee" stroke="none" font-family="Arial" font-size="24px" font-style="normal" font-weight="normal" text-decoration="none" x="800" y="210">UNREGISTERED</text><text fill="#eeeeee" stroke="none" font-family="Arial" font-size="24px" font-style="normal" font-weight="normal" text-decoration="none" x="800" y="240">UNREGISTERED</text><text fill="#eeeeee" stroke="none" font-family="Arial" font-size="24px" font-style="normal" font-weight="normal" text-decoration="none" x="800" y="270">UNREGISTERED</text><text fill="#eeeeee" stroke="none" font-family="Arial" font-size="24px" font-style="normal" font-weight="normal" text-decoration="none" x="800" y="300">UNREGISTERED</text><text fill="#eeeeee" stroke="none" font-family="Arial" font-size="24px" font-style="normal" font-weight="normal" text-decoration="none" x="800" y="330">UNREGISTERED</text><text fill="#eeeeee" stroke="none" font-family="Arial" font-size="24px" font-style="normal" font-weight="normal" text-decoration="none" x="800" y="360">UNREGISTERED</text><text fill="#eeeeee" stroke="none" font-family="Arial" font-size="24px" font-style="normal" font-weight="normal" text-decoration="none" x="800" y="390">UNREGISTERED</text><text fill="#eeeeee" stroke="none" font-family="Arial" font-size="24px" font-style="normal" font-weight="normal" text-decoration="none" x="800" y="420">UNREGISTERED</text><text fill="#eeeeee" stroke="none" font-family="Arial" font-size="24px" font-style="normal" font-weight="normal" text-decoration="none" x="800" y="450">UNREGISTERED</text><text fill="#eeeeee" stroke="none" font-family="Arial" font-size="24px" font-style="normal" font-weight="normal" text-decoration="none" x="800" y="480">UNREGISTERED</text><text fill="#eeeeee" stroke="none" font-family="Arial" font-size="24px" font-style="normal" font-weight="normal" text-decoration="none" x="800" y="510">UNREGISTERED</text><text fill="#eeeeee" stroke="none" font-family="Arial" font-size="24px" font-style="normal" font-weight="normal" text-decoration="none" x="800" y="540">UNREGISTERED</text><text fill="#eeeeee" stroke="none" font-family="Arial" font-size="24px" font-style="normal" font-weight="normal" text-decoration="none" x="800" y="570">UNREGISTERED</text><text fill="#eeeeee" stroke="none" font-family="Arial" font-size="24px" font-style="normal" font-weight="normal" text-decoration="none" x="800" y="600">UNREGISTERED</text><text fill="#eeeeee" stroke="none" font-family="Arial" font-size="24px" font-style="normal" font-weight="normal" text-decoration="none" x="800" y="630">UNREGISTERED</text><text fill="#eeeeee" stroke="none" font-family="Arial" font-size="24px" font-style="normal" font-weight="normal" text-decoration="none" x="800" y="660">UNREGISTERED</text><text fill="#eeeeee" stroke="none" font-family="Arial" font-size="24px" font-style="normal" font-weight="normal" text-decoration="none" x="800" y="690">UNREGISTERED</text><text fill="#eeeeee" stroke="none" font-family="Arial" font-size="24px" font-style="normal" font-weight="normal" text-decoration="none" x="800" y="720">UNREGISTERED</text><text fill="#eeeeee" stroke="none" font-family="Arial" font-size="24px" font-style="normal" font-weight="normal" text-decoration="none" x="800" y="750">UNREGISTERED</text><text fill="#eeeeee" stroke="none" font-family="Arial" font-size="24px" font-style="normal" font-weight="normal" text-decoration="none" x="1000" y="0">UNREGISTERED</text><text fill="#eeeeee" stroke="none" font-family="Arial" font-size="24px" font-style="normal" font-weight="normal" text-decoration="none" x="1000" y="30">UNREGISTERED</text><text fill="#eeeeee" stroke="none" font-family="Arial" font-size="24px" font-style="normal" font-weight="normal" text-decoration="none" x="1000" y="60">UNREGISTERED</text><text fill="#eeeeee" stroke="none" font-family="Arial" font-size="24px" font-style="normal" font-weight="normal" text-decoration="none" x="1000" y="90">UNREGISTERED</text><text fill="#eeeeee" stroke="none" font-family="Arial" font-size="24px" font-style="normal" font-weight="normal" text-decoration="none" x="1000" y="120">UNREGISTERED</text><text fill="#eeeeee" stroke="none" font-family="Arial" font-size="24px" font-style="normal" font-weight="normal" text-decoration="none" x="1000" y="150">UNREGISTERED</text><text fill="#eeeeee" stroke="none" font-family="Arial" font-size="24px" font-style="normal" font-weight="normal" text-decoration="none" x="1000" y="180">UNREGISTERED</text><text fill="#eeeeee" stroke="none" font-family="Arial" font-size="24px" font-style="normal" font-weight="normal" text-decoration="none" x="1000" y="210">UNREGISTERED</text><text fill="#eeeeee" stroke="none" font-family="Arial" font-size="24px" font-style="normal" font-weight="normal" text-decoration="none" x="1000" y="240">UNREGISTERED</text><text fill="#eeeeee" stroke="none" font-family="Arial" font-size="24px" font-style="normal" font-weight="normal" text-decoration="none" x="1000" y="270">UNREGISTERED</text><text fill="#eeeeee" stroke="none" font-family="Arial" font-size="24px" font-style="normal" font-weight="normal" text-decoration="none" x="1000" y="300">UNREGISTERED</text><text fill="#eeeeee" stroke="none" font-family="Arial" font-size="24px" font-style="normal" font-weight="normal" text-decoration="none" x="1000" y="330">UNREGISTERED</text><text fill="#eeeeee" stroke="none" font-family="Arial" font-size="24px" font-style="normal" font-weight="normal" text-decoration="none" x="1000" y="360">UNREGISTERED</text><text fill="#eeeeee" stroke="none" font-family="Arial" font-size="24px" font-style="normal" font-weight="normal" text-decoration="none" x="1000" y="390">UNREGISTERED</text><text fill="#eeeeee" stroke="none" font-family="Arial" font-size="24px" font-style="normal" font-weight="normal" text-decoration="none" x="1000" y="420">UNREGISTERED</text><text fill="#eeeeee" stroke="none" font-family="Arial" font-size="24px" font-style="normal" font-weight="normal" text-decoration="none" x="1000" y="450">UNREGISTERED</text><text fill="#eeeeee" stroke="none" font-family="Arial" font-size="24px" font-style="normal" font-weight="normal" text-decoration="none" x="1000" y="480">UNREGISTERED</text><text fill="#eeeeee" stroke="none" font-family="Arial" font-size="24px" font-style="normal" font-weight="normal" text-decoration="none" x="1000" y="510">UNREGISTERED</text><text fill="#eeeeee" stroke="none" font-family="Arial" font-size="24px" font-style="normal" font-weight="normal" text-decoration="none" x="1000" y="540">UNREGISTERED</text><text fill="#eeeeee" stroke="none" font-family="Arial" font-size="24px" font-style="normal" font-weight="normal" text-decoration="none" x="1000" y="570">UNREGISTERED</text><text fill="#eeeeee" stroke="none" font-family="Arial" font-size="24px" font-style="normal" font-weight="normal" text-decoration="none" x="1000" y="600">UNREGISTERED</text><text fill="#eeeeee" stroke="none" font-family="Arial" font-size="24px" font-style="normal" font-weight="normal" text-decoration="none" x="1000" y="630">UNREGISTERED</text><text fill="#eeeeee" stroke="none" font-family="Arial" font-size="24px" font-style="normal" font-weight="normal" text-decoration="none" x="1000" y="660">UNREGISTERED</text><text fill="#eeeeee" stroke="none" font-family="Arial" font-size="24px" font-style="normal" font-weight="normal" text-decoration="none" x="1000" y="690">UNREGISTERED</text><text fill="#eeeeee" stroke="none" font-family="Arial" font-size="24px" font-style="normal" font-weight="normal" text-decoration="none" x="1000" y="720">UNREGISTERED</text><text fill="#eeeeee" stroke="none" font-family="Arial" font-size="24px" font-style="normal" font-weight="normal" text-decoration="none" x="1000" y="750">UNREGISTERED</text><g transform="translate(-310,-166) scale(1,1)"><path fill="none" stroke="#000000" d="M 320 176 L 1471 176 L 1471 911 L 320 911 L 320 176" stroke-miterlimit="10"/></g><g transform="translate(-310,-166) scale(1,1)"><path fill="#ffffff" stroke="none" d="M 320 176 L 320 198 L 401.7490234375 198 L 412.7490234375 187 L 412.7490234375 176 L 320 176"/></g><g transform="translate(-310,-166) scale(1,1)"><path fill="none" stroke="#000000" d="M 320 176 L 320 198 L 401.7490234375 198 L 412.7490234375 187 L 412.7490234375 176 L 320 176 L 320 176" stroke-miterlimit="10"/></g><g transform="translate(-310,-166) scale(1,1)"><g><path fill="none" stroke="none"/><text fill="#000000" stroke="none" font-family="Arial" font-size="13px" font-style="normal" font-weight="normal" text-decoration="none" x="348.341796875" y="192">Reserva</text></g></g><g transform="translate(-310,-166) scale(1,1)"><g><path fill="none" stroke="none"/><text fill="#000000" stroke="none" font-family="Arial" font-size="13px" font-style="normal" font-weight="bold" text-decoration="none" x="324.2763671875" y="191.5">act</text></g></g><g transform="translate(-310,-166) scale(1,1)"><path fill="#C0C0C0" stroke="none" d="M 407 328.5 C 407 323.2532944 411.2532944 319 416.5 319 C 421.7467056 319 426 323.2532944 426 328.5 C 426 333.7467056 421.7467056 338 416.5 338 C 411.2532944 338 407 333.7467056 407 328.5 Z" opacity="0.2"/></g><g transform="translate(-310,-166) scale(1,1)"><path fill="#000000" stroke="none" d="M 400 321.5 C 400 316.2532944 404.2532944 312 409.5 312 C 414.7467056 312 419 316.2532944 419 321.5 C 419 326.7467056 414.7467056 331 409.5 331 C 404.2532944 331 400 326.7467056 400 321.5 Z"/></g><g transform="translate(-310,-166) scale(1,1)"><path fill="#C0C0C0" stroke="none" d="M 513 311 L 697.08251953125 311 Q 707.08251953125 311 707.08251953125 321 L 707.08251953125 341 Q 707.08251953125 351 697.08251953125 351 L 513 351 Q 503 351 503 341 L 503 321 Q 503 311 513 311 Z" opacity="0.2"/></g><g transform="translate(-310,-166) scale(1,1)"><path fill="#ffffff" stroke="none" d="M 506 304 L 690.08251953125 304 Q 700.08251953125 304 700.08251953125 314 L 700.08251953125 334 Q 700.08251953125 344 690.08251953125 344 L 506 344 Q 496 344 496 334 L 496 314 Q 496 304 506 304 Z"/></g><g transform="translate(-310,-166) scale(1,1)"><path fill="none" stroke="#000000" d="M 506 304 L 690.08251953125 304 Q 700.08251953125 304 700.08251953125 314 L 700.08251953125 334 Q 700.08251953125 344 690.08251953125 344 L 506 344 Q 496 344 496 334 L 496 314 Q 496 304 506 304 Z" stroke-miterlimit="10"/></g><g transform="translate(-310,-166) scale(1,1)"><g><path fill="none" stroke="none"/><text fill="#000000" stroke="none" font-family="Arial" font-size="13px" font-style="normal" font-weight="bold" text-decoration="none" x="500.5" y="322">Responde solicitção de reserva</text></g></g><g transform="translate(-310,-166) scale(1,1)"><path fill="none" stroke="#000000" d="M 420 321 L 495 322" stroke-miterlimit="10"/></g><g transform="translate(-310,-166) scale(1,1)"><path fill="none" stroke="#000000" d="M 484.7821064558028 326.0736533381541 L 495 322 L 484.894350285844 317.6553660850679" stroke-miterlimit="10"/></g><g transform="translate(-310,-166) scale(1,1)"><path fill="#C0C0C0" stroke="none" d="M 767 327 L 787 311 L 806 327 L 787 342 L 767 327" opacity="0.2"/></g><g transform="translate(-310,-166) scale(1,1)"><path fill="#ffffff" stroke="none" d="M 760 319.5 L 779.5 304 L 799 319.5 L 779.5 335 L 760 319.5"/></g><g transform="translate(-310,-166) scale(1,1)"><path fill="none" stroke="#000000" d="M 760 319.5 L 779.5 304 L 799 319.5 L 779.5 335 L 760 319.5 L 760 319.5" stroke-miterlimit="10"/></g><g transform="translate(-310,-166) scale(1,1)"><path fill="none" stroke="#000000" d="M 701 321 L 759 320" stroke-miterlimit="10"/></g><g transform="translate(-310,-166) scale(1,1)"><path fill="none" stroke="#000000" d="M 748.9114024175906 324.3840847186388 L 759 320 L 748.7662682029703 315.96630027066186" stroke-miterlimit="10"/></g><g transform="translate(-310,-166) scale(1,1)"><path fill="#C0C0C0" stroke="none" d="M 521 407 L 629.18994140625 407 Q 639.18994140625 407 639.18994140625 417 L 639.18994140625 437 Q 639.18994140625 447 629.18994140625 447 L 521 447 Q 511 447 511 437 L 511 417 Q 511 407 521 407 Z" opacity="0.2"/></g><g transform="translate(-310,-166) scale(1,1)"><path fill="#ffffff" stroke="none" d="M 514 400 L 622.18994140625 400 Q 632.18994140625 400 632.18994140625 410 L 632.18994140625 430 Q 632.18994140625 440 622.18994140625 440 L 514 440 Q 504 440 504 430 L 504 410 Q 504 400 514 400 Z"/></g><g transform="translate(-310,-166) scale(1,1)"><path fill="none" stroke="#000000" d="M 514 400 L 622.18994140625 400 Q 632.18994140625 400 632.18994140625 410 L 632.18994140625 430 Q 632.18994140625 440 622.18994140625 440 L 514 440 Q 504 440 504 430 L 504 410 Q 504 400 514 400 Z" stroke-miterlimit="10"/></g><g transform="translate(-310,-166) scale(1,1)"><g><path fill="none" stroke="none"/><text fill="#000000" stroke="none" font-family="Arial" font-size="13px" font-style="normal" font-weight="bold" text-decoration="none" x="508.5" y="418">Solicita pagamento</text></g></g><g transform="translate(-310,-166) scale(1,1)"><path fill="#C0C0C0" stroke="none" d="M 921 311 L 1002.46630859375 311 Q 1012.46630859375 311 1012.46630859375 321 L 1012.46630859375 341 Q 1012.46630859375 351 1002.46630859375 351 L 921 351 Q 911 351 911 341 L 911 321 Q 911 311 921 311 Z" opacity="0.2"/></g><g transform="translate(-310,-166) scale(1,1)"><path fill="#ffffff" stroke="none" d="M 914 304 L 995.46630859375 304 Q 1005.46630859375 304 1005.46630859375 314 L 1005.46630859375 334 Q 1005.46630859375 344 995.46630859375 344 L 914 344 Q 904 344 904 334 L 904 314 Q 904 304 914 304 Z"/></g><g transform="translate(-310,-166) scale(1,1)"><path fill="none" stroke="#000000" d="M 914 304 L 995.46630859375 304 Q 1005.46630859375 304 1005.46630859375 314 L 1005.46630859375 334 Q 1005.46630859375 344 995.46630859375 344 L 914 344 Q 904 344 904 334 L 904 314 Q 904 304 914 304 Z" stroke-miterlimit="10"/></g><g transform="translate(-310,-166) scale(1,1)"><g><path fill="none" stroke="none"/><text fill="#000000" stroke="none" font-family="Arial" font-size="13px" font-style="normal" font-weight="bold" text-decoration="none" x="908.5" y="322">Informa cliente</text></g></g><g transform="translate(-310,-166) scale(1,1)"><path fill="none" stroke="#000000" d="M 759 329 L 612 399" stroke-miterlimit="10"/></g><g transform="translate(-310,-166) scale(1,1)"><path fill="none" stroke="#000000" d="M 619.3656648540243 390.8301174269032 L 612 399 L 622.9852909351625 398.4313321972935" stroke-miterlimit="10"/></g><g transform="translate(-310,-166) scale(1,1)"><g><path fill="none" stroke="none"/><text fill="#000000" stroke="none" font-family="Arial" font-size="13px" font-style="normal" font-weight="normal" text-decoration="none" x="672.5" y="382">Aceita</text></g></g><g transform="translate(-310,-166) scale(1,1)"><path fill="none" stroke="#000000" d="M 800 320 L 903 323" stroke-miterlimit="10"/></g><g transform="translate(-310,-166) scale(1,1)"><path fill="none" stroke="#000000" d="M 892.7190777444882 326.91185858334933 L 903 323 L 892.9641884249469 318.4963918876051" stroke-miterlimit="10"/></g><g transform="translate(-310,-166) scale(1,1)"><g><path fill="none" stroke="none"/><text fill="#000000" stroke="none" font-family="Arial" font-size="13px" font-style="normal" font-weight="normal" text-decoration="none" x="828.5" y="311">Recusa</text></g></g><g transform="translate(-310,-166) scale(1,1)"><path fill="#C0C0C0" stroke="none" d="M 497 535 L 646.3798828125 535 Q 656.3798828125 535 656.3798828125 545 L 656.3798828125 572 Q 656.3798828125 582 646.3798828125 582 L 497 582 Q 487 582 487 572 L 487 545 Q 487 535 497 535 Z" opacity="0.2"/></g><g transform="translate(-310,-166) scale(1,1)"><path fill="#ffffff" stroke="none" d="M 490 528 L 639.3798828125 528 Q 649.3798828125 528 649.3798828125 538 L 649.3798828125 565 Q 649.3798828125 575 639.3798828125 575 L 490 575 Q 480 575 480 565 L 480 538 Q 480 528 490 528 Z"/></g><g transform="translate(-310,-166) scale(1,1)"><path fill="none" stroke="#000000" d="M 490 528 L 639.3798828125 528 Q 649.3798828125 528 649.3798828125 538 L 649.3798828125 565 Q 649.3798828125 575 639.3798828125 575 L 490 575 Q 480 575 480 565 L 480 538 Q 480 528 490 528 Z" stroke-miterlimit="10"/></g><g transform="translate(-310,-166) scale(1,1)"><g><path fill="none" stroke="none"/><text fill="#000000" stroke="none" font-family="Arial" font-size="13px" font-style="normal" font-weight="bold" text-decoration="none" x="484.5" y="546">Cliente realiza pagamento</text></g></g><g transform="translate(-310,-166) scale(1,1)"><path fill="none" stroke="#000000" d="M 567 441 L 565 527" stroke-miterlimit="10"/></g><g transform="translate(-310,-166) scale(1,1)"><path fill="none" stroke="#000000" d="M 561.0278974963754 516.7422028826506 L 565 527 L 569.4446572858326 516.9379414824056" stroke-miterlimit="10"/></g><g transform="translate(-310,-166) scale(1,1)"><path fill="#C0C0C0" stroke="none" d="M 497 679 L 640.59716796875 679 Q 650.59716796875 679 650.59716796875 689 L 650.59716796875 709 Q 650.59716796875 719 640.59716796875 719 L 497 719 Q 487 719 487 709 L 487 689 Q 487 679 497 679 Z" opacity="0.2"/></g><g transform="translate(-310,-166) scale(1,1)"><path fill="#ffffff" stroke="none" d="M 490 672 L 633.59716796875 672 Q 643.59716796875 672 643.59716796875 682 L 643.59716796875 702 Q 643.59716796875 712 633.59716796875 712 L 490 712 Q 480 712 480 702 L 480 682 Q 480 672 490 672 Z"/></g><g transform="translate(-310,-166) scale(1,1)"><path fill="none" stroke="#000000" d="M 490 672 L 633.59716796875 672 Q 643.59716796875 672 643.59716796875 682 L 643.59716796875 702 Q 643.59716796875 712 633.59716796875 712 L 490 712 Q 480 712 480 702 L 480 682 Q 480 672 490 672 Z" stroke-miterlimit="10"/></g><g transform="translate(-310,-166) scale(1,1)"><g><path fill="none" stroke="none"/><text fill="#000000" stroke="none" font-family="Arial" font-size="13px" font-style="normal" font-weight="bold" text-decoration="none" x="484.5" y="690">Processando pagamento</text></g></g><g transform="translate(-310,-166) scale(1,1)"><path fill="none" stroke="#000000" d="M 563 576 L 561 671" stroke-miterlimit="10"/></g><g transform="translate(-310,-166) scale(1,1)"><path fill="none" stroke="#000000" d="M 557.0053184435419 660.7509747164672 L 561 671 L 565.422488861286 660.9281783042093" stroke-miterlimit="10"/></g><g transform="translate(-310,-166) scale(1,1)"><path fill="#C0C0C0" stroke="none" d="M 743 695 L 763 679 L 782 695 L 763 710 L 743 695" opacity="0.2"/></g><g transform="translate(-310,-166) scale(1,1)"><path fill="#ffffff" stroke="none" d="M 736 687.5 L 755.5 672 L 775 687.5 L 755.5 703 L 736 687.5"/></g><g transform="translate(-310,-166) scale(1,1)"><path fill="none" stroke="#000000" d="M 736 687.5 L 755.5 672 L 775 687.5 L 755.5 703 L 736 687.5 L 736 687.5" stroke-miterlimit="10"/></g><g transform="translate(-310,-166) scale(1,1)"><path fill="none" stroke="#000000" d="M 645 690 L 735 688" stroke-miterlimit="10"/></g><g transform="translate(-310,-166) scale(1,1)"><path fill="none" stroke="#000000" d="M 724.9333552659034 692.4342602311418 L 735 688 L 724.7463117657383 684.0173027237106" stroke-miterlimit="10"/></g><g transform="translate(-310,-166) scale(1,1)"><path fill="#C0C0C0" stroke="none" d="M 921 831 L 1009.7216796875 831 Q 1019.7216796875 831 1019.7216796875 841 L 1019.7216796875 861 Q 1019.7216796875 871 1009.7216796875 871 L 921 871 Q 911 871 911 861 L 911 841 Q 911 831 921 831 Z" opacity="0.2"/></g><g transform="translate(-310,-166) scale(1,1)"><path fill="#ffffff" stroke="none" d="M 914 824 L 1002.7216796875 824 Q 1012.7216796875 824 1012.7216796875 834 L 1012.7216796875 854 Q 1012.7216796875 864 1002.7216796875 864 L 914 864 Q 904 864 904 854 L 904 834 Q 904 824 914 824 Z"/></g><g transform="translate(-310,-166) scale(1,1)"><path fill="none" stroke="#000000" d="M 914 824 L 1002.7216796875 824 Q 1012.7216796875 824 1012.7216796875 834 L 1012.7216796875 854 Q 1012.7216796875 864 1002.7216796875 864 L 914 864 Q 904 864 904 854 L 904 834 Q 904 824 914 824 Z" stroke-miterlimit="10"/></g><g transform="translate(-310,-166) scale(1,1)"><g><path fill="none" stroke="none"/><text fill="#000000" stroke="none" font-family="Arial" font-size="13px" font-style="normal" font-weight="bold" text-decoration="none" x="908.5" y="842">Atualiza reserva</text></g></g><g transform="translate(-310,-166) scale(1,1)"><path fill="none" stroke="#000000" d="M 776 703 L 931 823" stroke-miterlimit="10"/></g><g transform="translate(-310,-166) scale(1,1)"><path fill="none" stroke="#000000" d="M 920.3871781316503 820.1072483703782 L 931 823 L 925.5410859829591 813.450117395771" stroke-miterlimit="10"/></g><g transform="translate(-310,-166) scale(1,1)"><g><path fill="none" stroke="none"/><text fill="#000000" stroke="none" font-family="Arial" font-size="13px" font-style="normal" font-weight="normal" text-decoration="none" x="801.5" y="756">Pagamento efetuado</text></g></g><g transform="translate(-310,-166) scale(1,1)"><path fill="#C0C0C0" stroke="none" d="M 951 531.5 C 951 524.59644 956.59644 519 963.5 519 C 970.40356 519 976 524.59644 976 531.5 C 976 538.40356 970.40356 544 963.5 544 C 956.59644 544 951 538.40356 951 531.5 Z" opacity="0.2"/></g><g transform="translate(-310,-166) scale(1,1)"><path fill="none" stroke="#000000" d="M 944 524.5 C 944 517.59644 949.59644 512 956.5 512 C 963.40356 512 969 517.59644 969 524.5 C 969 531.40356 963.40356 537 956.5 537 C 949.59644 537 944 531.40356 944 524.5 Z" stroke-miterlimit="10"/></g><g transform="translate(-310,-166) scale(1,1)"><path fill="#000000" stroke="none" d="M 949 524.5 C 949 520.357864 952.357864 517 956.5 517 C 960.642136 517 964 520.357864 964 524.5 C 964 528.642136 960.642136 532 956.5 532 C 952.357864 532 949 528.642136 949 524.5 Z"/></g><g transform="translate(-310,-166) scale(1,1)"><path fill="none" stroke="#000000" d="M 775 671 L 943 535" stroke-miterlimit="10"/></g><g transform="translate(-310,-166) scale(1,1)"><path fill="none" stroke="#000000" d="M 937.7497342098753 544.666163102961 L 943 535 L 932.4524919786121 538.1225109349301" stroke-miterlimit="10"/></g><g transform="translate(-310,-166) scale(1,1)"><g><path fill="none" stroke="none"/><text fill="#000000" stroke="none" font-family="Arial" font-size="13px" font-style="normal" font-weight="normal" text-decoration="none" x="787.5" y="596">Pagamento recusado</text></g></g><g transform="translate(-310,-166) scale(1,1)"><path fill="none" stroke="#000000" d="M 954 345 L 956 511" stroke-miterlimit="10"/></g><g transform="translate(-310,-166) scale(1,1)"><path fill="none" stroke="#000000" d="M 951.668354755357 500.88877606446374 L 956 511 L 960.0867792847318 500.787349262905" stroke-miterlimit="10"/></g><g transform="translate(-310,-166) scale(1,1)"><path fill="#C0C0C0" stroke="none" d="M 1121 679 L 1229.18994140625 679 Q 1239.18994140625 679 1239.18994140625 689 L 1239.18994140625 709 Q 1239.18994140625 719 1229.18994140625 719 L 1121 719 Q 1111 719 1111 709 L 1111 689 Q 1111 679 1121 679 Z" opacity="0.2"/></g><g transform="translate(-310,-166) scale(1,1)"><path fill="#ffffff" stroke="none" d="M 1114 672 L 1222.18994140625 672 Q 1232.18994140625 672 1232.18994140625 682 L 1232.18994140625 702 Q 1232.18994140625 712 1222.18994140625 712 L 1114 712 Q 1104 712 1104 702 L 1104 682 Q 1104 672 1114 672 Z"/></g><g transform="translate(-310,-166) scale(1,1)"><path fill="none" stroke="#000000" d="M 1114 672 L 1222.18994140625 672 Q 1232.18994140625 672 1232.18994140625 682 L 1232.18994140625 702 Q 1232.18994140625 712 1222.18994140625 712 L 1114 712 Q 1104 712 1104 702 L 1104 682 Q 1104 672 1114 672 Z" stroke-miterlimit="10"/></g><g transform="translate(-310,-166) scale(1,1)"><g><path fill="none" stroke="none"/><text fill="#000000" stroke="none" font-family="Arial" font-size="13px" font-style="normal" font-weight="bold" text-decoration="none" x="1108.5" y="690">Notifica envolvidos</text></g></g><g transform="translate(-310,-166) scale(1,1)"><path fill="none" stroke="#000000" d="M 987 823 L 1139 713" stroke-miterlimit="10"/></g><g transform="translate(-310,-166) scale(1,1)"><path fill="none" stroke="#000000" d="M 1133.2349557760435 722.3682583811413 L 1139 713 L 1128.2991391061873 715.5478571646128" stroke-miterlimit="10"/></g><g transform="translate(-310,-166) scale(1,1)"><path fill="none" stroke="#000000" d="M 1142 671 L 970 535" stroke-miterlimit="10"/></g><g transform="translate(-310,-166) scale(1,1)"><path fill="none" stroke="#000000" d="M 980.5826533142848 538.0012412148404 L 970 535 L 975.3608679064869 544.6052639364673" stroke-miterlimit="10"/></g></g></svg>