<svg version="1.1" xmlns="http://www.w3.org/2000/svg" xmlns:xlink="http://www.w3.org/1999/xlink" width="316.35693359375" height="533"><defs/><g><text fill="#eeeeee" stroke="none" font-family="Arial" font-size="24px" font-style="normal" font-weight="normal" text-decoration="none" x="0" y="0">UNREGISTERED</text><text fill="#eeeeee" stroke="none" font-family="Arial" font-size="24px" font-style="normal" font-weight="normal" text-decoration="none" x="0" y="30">UNREGISTERED</text><text fill="#eeeeee" stroke="none" font-family="Arial" font-size="24px" font-style="normal" font-weight="normal" text-decoration="none" x="0" y="60">UNREGISTERED</text><text fill="#eeeeee" stroke="none" font-family="Arial" font-size="24px" font-style="normal" font-weight="normal" text-decoration="none" x="0" y="90">UNREGISTERED</text><text fill="#eeeeee" stroke="none" font-family="Arial" font-size="24px" font-style="normal" font-weight="normal" text-decoration="none" x="0" y="120">UNREGISTERED</text><text fill="#eeeeee" stroke="none" font-family="Arial" font-size="24px" font-style="normal" font-weight="normal" text-decoration="none" x="0" y="150">UNREGISTERED</text><text fill="#eeeeee" stroke="none" font-family="Arial" font-size="24px" font-style="normal" font-weight="normal" text-decoration="none" x="0" y="180">UNREGISTERED</text><text fill="#eeeeee" stroke="none" font-family="Arial" font-size="24px" font-style="normal" font-weight="normal" text-decoration="none" x="0" y="210">UNREGISTERED</text><text fill="#eeeeee" stroke="none" font-family="Arial" font-size="24px" font-style="normal" font-weight="normal" text-decoration="none" x="0" y="240">UNREGISTERED</text><text fill="#eeeeee" stroke="none" font-family="Arial" font-size="24px" font-style="normal" font-weight="normal" text-decoration="none" x="0" y="270">UNREGISTERED</text><text fill="#eeeeee" stroke="none" font-family="Arial" font-size="24px" font-style="normal" font-weight="normal" text-decoration="none" x="0" y="300">UNREGISTERED</text><text fill="#eeeeee" stroke="none" font-family="Arial" font-size="24px" font-style="normal" font-weight="normal" text-decoration="none" x="0" y="330">UNREGISTERED</text><text fill="#eeeeee" stroke="none" font-family="Arial" font-size="24px" font-style="normal" font-weight="normal" text-decoration="none" x="0" y="360">UNREGISTERED</text><text fill="#eeeeee" stroke="none" font-family="Arial" font-size="24px" font-style="normal" font-weight="normal" text-decoration="none" x="0" y="390">UNREGISTERED</text><text fill="#eeeeee" stroke="none" font-family="Arial" font-size="24px" font-style="normal" font-weight="normal" text-decoration="none" x="0" y="420">UNREGISTERED</text><text fill="#eeeeee" stroke="none" font-family="Arial" font-size="24px" font-style="normal" font-weight="normal" text-decoration="none" x="0" y="450">UNREGISTERED</text><text fill="#eeeeee" stroke="none" font-family="Arial" font-size="24px" font-style="normal" font-weight="normal" text-decoration="none" x="0" y="480">UNREGISTERED</text><text fill="#eeeeee" stroke="none" font-family="Arial" font-size="24px" font-style="normal" font-weight="normal" text-decoration="none" x="0" y="510">UNREGISTERED</text><text fill="#eeeeee" stroke="none" font-family="Arial" font-size="24px" font-style="normal" font-weight="normal" text-decoration="none" x="200" y="0">UNREGISTERED</text><text fill="#eeeeee" stroke="none" font-family="Arial" font-size="24px" font-style="normal" font-weight="normal" text-decoration="none" x="200" y="30">UNREGISTERED</text><text fill="#eeeeee" stroke="none" font-family="Arial" font-size="24px" font-style="normal" font-weight="normal" text-decoration="none" x="200" y="60">UNREGISTERED</text><text fill="#eeeeee" stroke="none" font-family="Arial" font-size="24px" font-style="normal" font-weight="normal" text-decoration="none" x="200" y="90">UNREGISTERED</text><text fill="#eeeeee" stroke="none" font-family="Arial" font-size="24px" font-style="normal" font-weight="normal" text-decoration="none" x="200" y="120">UNREGISTERED</text><text fill="#eeeeee" stroke="none" font-family="Arial" font-size="24px" font-style="normal" font-weight="normal" text-decoration="none" x="200" y="150">UNREGISTERED</text><text fill="#eeeeee" stroke="none" font-family="Arial" font-size="24px" font-style="normal" font-weight="normal" text-decoration="none" x="200" y="180">UNREGISTERED</text><text fill="#eeeeee" stroke="none" font-family="Arial" font-size="24px" font-style="normal" font-weight="normal" text-decoration="none" x="200" y="210">UNREGISTERED</text><text fill="#eeeeee" stroke="none" font-family="Arial" font-size="24px" font-style="normal" font-weight="normal" text-decoration="none" x="200" y="240">UNREGISTERED</text><text fill="#eeeeee" stroke="none" font-family="Arial" font-size="24px" font-style="normal" font-weight="normal" text-decoration="none" x="200" y="270">UNREGISTERED</text><text fill="#eeeeee" stroke="none" font-family="Arial" font-size="24px" font-style="normal" font-weight="normal" text-decoration="none" x="200" y="300">UNREGISTERED</text><text fill="#eeeeee" stroke="none" font-family="Arial" font-size="24px" font-style="normal" font-weight="normal" text-decoration="none" x="200" y="330">UNREGISTERED</text><text fill="#eeeeee" stroke="none" font-family="Arial" font-size="24px" font-style="normal" font-weight="normal" text-decoration="none" x="200" y="360">UNREGISTERED</text><text fill="#eeeeee" stroke="none" font-family="Arial" font-size="24px" font-style="normal" font-weight="normal" text-decoration="none" x="200" y="390">UNREGISTERED</text><text fill="#eeeeee" stroke="none" font-family="Arial" font-size="24px" font-style="normal" font-weight="normal" text-decoration="none" x="200" y="420">UNREGISTERED</text><text fill="#eeeeee" stroke="none" font-family="Arial" font-size="24px" font-style="normal" font-weight="normal" text-decoration="none" x="200" y="450">UNREGISTERED</text><text fill="#eeeeee" stroke="none" font-family="Arial" font-size="24px" font-style="normal" font-weight="normal" text-decoration="none" x="200" y="480">UNREGISTERED</text><text fill="#eeeeee" stroke="none" font-family="Arial" font-size="24px" font-style="normal" font-weight="normal" text-decoration="none" x="200" y="510">UNREGISTERED</text><g transform="translate(-94,-102) scale(1,1)"><path fill="#C0C0C0" stroke="none" d="M 185 255 L 396 255 Q 406 255 406 265 L 406 380 Q 406 390 396 390 L 185 390 Q 175 390 175 380 L 175 265 Q 175 255 185 255 Z" opacity="0.2"/></g><g transform="translate(-94,-102) scale(1,1)"><path fill="#ffffff" stroke="none" d="M 178 248 L 389 248 Q 399 248 399 258 L 399 373 Q 399 383 389 383 L 178 383 Q 168 383 168 373 L 168 258 Q 168 248 178 248 Z"/></g><g transform="translate(-94,-102) scale(1,1)"><path fill="none" stroke="#000000" d="M 178 248 L 389 248 Q 399 248 399 258 L 399 373 Q 399 383 389 383 L 178 383 Q 168 383 168 373 L 168 258 Q 168 248 178 248 Z" stroke-miterlimit="10"/></g><g transform="translate(-94,-102) scale(1,1)"><path fill="none" stroke="#000000" d="M 168 273 L 399 273" stroke-miterlimit="10"/></g><g transform="translate(-94,-102) scale(1,1)"><g><path fill="none" stroke="none"/><text fill="#000000" stroke="none" font-family="Arial" font-size="13px" font-style="normal" font-weight="bold" text-decoration="none" x="206.201416015625" y="266">Processando pagamento</text></g></g><g transform="translate(-94,-102) scale(1,1)"><g><path fill="none" stroke="none"/><text fill="#000000" stroke="none" font-family="Arial" font-size="13px" font-style="normal" font-weight="normal" text-decoration="none" x="173" y="289">do/ProcessaPagamento</text></g></g><g transform="translate(-94,-102) scale(1,1)"><path fill="#C0C0C0" stroke="none" d="M 279 128.5 C 279 123.2532944 283.2532944 119 288.5 119 C 293.7467056 119 298 123.2532944 298 128.5 C 298 133.7467056 293.7467056 138 288.5 138 C 283.2532944 138 279 133.7467056 279 128.5 Z" opacity="0.2"/></g><g transform="translate(-94,-102) scale(1,1)"><path fill="#000000" stroke="none" d="M 272 121.5 C 272 116.2532944 276.2532944 112 281.5 112 C 286.7467056 112 291 116.2532944 291 121.5 C 291 126.7467056 286.7467056 131 281.5 131 C 276.2532944 131 272 126.7467056 272 121.5 Z"/></g><g transform="translate(-94,-102) scale(1,1)"><path fill="none" stroke="#000000" d="M 281 132 L 282 247" stroke-miterlimit="10"/></g><g transform="translate(-94,-102) scale(1,1)"><path fill="none" stroke="#000000" d="M 277.70227364012266 236.87431246109108 L 282 247 L 286.12099087018515 236.80110622430792" stroke-miterlimit="10"/></g><g transform="translate(-94,-102) scale(1,1)"><g><path fill="none" stroke="none"/><text fill="#000000" stroke="none" font-family="Arial" font-size="13px" font-style="normal" font-weight="normal" text-decoration="none" x="220.944091796875" y="193">cliente realiza pagamento</text></g></g><g transform="translate(-94,-102) scale(1,1)"><path fill="#C0C0C0" stroke="none" d="M 287 494 C 287 490.1340064 290.1340064 487 294 487 C 297.8659936 487 301 490.1340064 301 494 C 301 497.8659936 297.8659936 501 294 501 C 290.1340064 501 287 497.8659936 287 494 Z" opacity="0.2"/></g><g transform="translate(-94,-102) scale(1,1)"><path fill="#ffffff" stroke="none" d="M 280 487 C 280 483.1340064 283.1340064 480 287 480 C 290.8659936 480 294 483.1340064 294 487 C 294 490.8659936 290.8659936 494 287 494 C 283.1340064 494 280 490.8659936 280 487 Z"/></g><g transform="translate(-94,-102) scale(1,1)"><path fill="none" stroke="#000000" d="M 280 487 C 280 483.1340064 283.1340064 480 287 480 C 290.8659936 480 294 483.1340064 294 487 C 294 490.8659936 290.8659936 494 287 494 C 283.1340064 494 280 490.8659936 280 487 Z" stroke-miterlimit="10"/></g><g transform="translate(-94,-102) scale(1,1)"><path fill="none" stroke="#000000" d="M 285 384 L 287 479" stroke-miterlimit="10"/></g><g transform="translate(-94,-102) scale(1,1)"><path fill="none" stroke="#000000" d="M 282.577511138714 468.92817830420927 L 287 479 L 290.99468155645815 468.7509747164673" stroke-miterlimit="10"/></g><g transform="translate(-94,-102) scale(1,1)"><path fill="#C0C0C0" stroke="none" d="M 111 491.5 C 111 484.59644 116.59644 479 123.5 479 C 130.40356 479 136 484.59644 136 491.5 C 136 498.40356 130.40356 504 123.5 504 C 116.59644 504 111 498.40356 111 491.5 Z" opacity="0.2"/></g><g transform="translate(-94,-102) scale(1,1)"><path fill="none" stroke="#000000" d="M 104 484.5 C 104 477.59644 109.59644 472 116.5 472 C 123.40356 472 129 477.59644 129 484.5 C 129 491.40356 123.40356 497 116.5 497 C 109.59644 497 104 491.40356 104 484.5 Z" stroke-miterlimit="10"/></g><g transform="translate(-94,-102) scale(1,1)"><path fill="#000000" stroke="none" d="M 109 484.5 C 109 480.357864 112.357864 477 116.5 477 C 120.642136 477 124 480.357864 124 484.5 C 124 488.642136 120.642136 492 116.5 492 C 112.357864 492 109 488.642136 109 484.5 Z"/></g><g transform="translate(-94,-102) scale(1,1)"><path fill="none" stroke="#000000" d="M 279 487 L 130 484" stroke-miterlimit="10"/></g><g transform="translate(-94,-102) scale(1,1)"><path fill="none" stroke="#000000" d="M 140.24535379174563 479.9959113793569 L 130 484 L 140.07587735792725 488.41324092567004" stroke-miterlimit="10"/></g><g transform="translate(-94,-102) scale(1,1)"><g><path fill="none" stroke="none"/><text fill="#000000" stroke="none" font-family="Arial" font-size="13px" font-style="normal" font-weight="normal" text-decoration="none" x="134.5" y="504"> [se negativo] / encerrar</text></g></g><g transform="translate(-94,-102) scale(1,1)"><path fill="#C0C0C0" stroke="none" d="M 279 619.5 C 279 612.59644 284.59644 607 291.5 607 C 298.40356 607 304 612.59644 304 619.5 C 304 626.40356 298.40356 632 291.5 632 C 284.59644 632 279 626.40356 279 619.5 Z" opacity="0.2"/></g><g transform="translate(-94,-102) scale(1,1)"><path fill="none" stroke="#000000" d="M 272 612.5 C 272 605.59644 277.59644 600 284.5 600 C 291.40356 600 297 605.59644 297 612.5 C 297 619.40356 291.40356 625 284.5 625 C 277.59644 625 272 619.40356 272 612.5 Z" stroke-miterlimit="10"/></g><g transform="translate(-94,-102) scale(1,1)"><path fill="#000000" stroke="none" d="M 277 612.5 C 277 608.357864 280.357864 605 284.5 605 C 288.642136 605 292 608.357864 292 612.5 C 292 616.642136 288.642136 620 284.5 620 C 280.357864 620 277 616.642136 277 612.5 Z"/></g><g transform="translate(-94,-102) scale(1,1)"><path fill="none" stroke="#000000" d="M 287 495 L 284 599" stroke-miterlimit="10"/></g><g transform="translate(-94,-102) scale(1,1)"><path fill="none" stroke="#000000" d="M 280.085264714514 588.7201727813854 L 284 599 L 288.50079966879105 588.9629285973741" stroke-miterlimit="10"/></g><g transform="translate(-94,-102) scale(1,1)"><g><path fill="none" stroke="none"/><text fill="#000000" stroke="none" font-family="Arial" font-size="13px" font-style="normal" font-weight="normal" text-decoration="none" x="197.5" y="552"> [se positivo] / pagamento efetuado</text></g></g></g></svg>