<svg version="1.1" xmlns="http://www.w3.org/2000/svg" xmlns:xlink="http://www.w3.org/1999/xlink" width="548" height="332"><defs/><g><text fill="#eeeeee" stroke="none" font-family="Arial" font-size="24px" font-style="normal" font-weight="normal" text-decoration="none" x="0" y="0">UNREGISTERED</text><text fill="#eeeeee" stroke="none" font-family="Arial" font-size="24px" font-style="normal" font-weight="normal" text-decoration="none" x="0" y="30">UNREGISTERED</text><text fill="#eeeeee" stroke="none" font-family="Arial" font-size="24px" font-style="normal" font-weight="normal" text-decoration="none" x="0" y="60">UNREGISTERED</text><text fill="#eeeeee" stroke="none" font-family="Arial" font-size="24px" font-style="normal" font-weight="normal" text-decoration="none" x="0" y="90">UNREGISTERED</text><text fill="#eeeeee" stroke="none" font-family="Arial" font-size="24px" font-style="normal" font-weight="normal" text-decoration="none" x="0" y="120">UNREGISTERED</text><text fill="#eeeeee" stroke="none" font-family="Arial" font-size="24px" font-style="normal" font-weight="normal" text-decoration="none" x="0" y="150">UNREGISTERED</text><text fill="#eeeeee" stroke="none" font-family="Arial" font-size="24px" font-style="normal" font-weight="normal" text-decoration="none" x="0" y="180">UNREGISTERED</text><text fill="#eeeeee" stroke="none" font-family="Arial" font-size="24px" font-style="normal" font-weight="normal" text-decoration="none" x="0" y="210">UNREGISTERED</text><text fill="#eeeeee" stroke="none" font-family="Arial" font-size="24px" font-style="normal" font-weight="normal" text-decoration="none" x="0" y="240">UNREGISTERED</text><text fill="#eeeeee" stroke="none" font-family="Arial" font-size="24px" font-style="normal" font-weight="normal" text-decoration="none" x="0" y="270">UNREGISTERED</text><text fill="#eeeeee" stroke="none" font-family="Arial" font-size="24px" font-style="normal" font-weight="normal" text-decoration="none" x="0" y="300">UNREGISTERED</text><text fill="#eeeeee" stroke="none" font-family="Arial" font-size="24px" font-style="normal" font-weight="normal" text-decoration="none" x="0" y="330">UNREGISTERED</text><text fill="#eeeeee" stroke="none" font-family="Arial" font-size="24px" font-style="normal" font-weight="normal" text-decoration="none" x="200" y="0">UNREGISTERED</text><text fill="#eeeeee" stroke="none" font-family="Arial" font-size="24px" font-style="normal" font-weight="normal" text-decoration="none" x="200" y="30">UNREGISTERED</text><text fill="#eeeeee" stroke="none" font-family="Arial" font-size="24px" font-style="normal" font-weight="normal" text-decoration="none" x="200" y="60">UNREGISTERED</text><text fill="#eeeeee" stroke="none" font-family="Arial" font-size="24px" font-style="normal" font-weight="normal" text-decoration="none" x="200" y="90">UNREGISTERED</text><text fill="#eeeeee" stroke="none" font-family="Arial" font-size="24px" font-style="normal" font-weight="normal" text-decoration="none" x="200" y="120">UNREGISTERED</text><text fill="#eeeeee" stroke="none" font-family="Arial" font-size="24px" font-style="normal" font-weight="normal" text-decoration="none" x="200" y="150">UNREGISTERED</text><text fill="#eeeeee" stroke="none" font-family="Arial" font-size="24px" font-style="normal" font-weight="normal" text-decoration="none" x="200" y="180">UNREGISTERED</text><text fill="#eeeeee" stroke="none" font-family="Arial" font-size="24px" font-style="normal" font-weight="normal" text-decoration="none" x="200" y="210">UNREGISTERED</text><text fill="#eeeeee" stroke="none" font-family="Arial" font-size="24px" font-style="normal" font-weight="normal" text-decoration="none" x="200" y="240">UNREGISTERED</text><text fill="#eeeeee" stroke="none" font-family="Arial" font-size="24px" font-style="normal" font-weight="normal" text-decoration="none" x="200" y="270">UNREGISTERED</text><text fill="#eeeeee" stroke="none" font-family="Arial" font-size="24px" font-style="normal" font-weight="normal" text-decoration="none" x="200" y="300">UNREGISTERED</text><text fill="#eeeeee" stroke="none" font-family="Arial" font-size="24px" font-style="normal" font-weight="normal" text-decoration="none" x="200" y="330">UNREGISTERED</text><text fill="#eeeeee" stroke="none" font-family="Arial" font-size="24px" font-style="normal" font-weight="normal" text-decoration="none" x="400" y="0">UNREGISTERED</text><text fill="#eeeeee" stroke="none" font-family="Arial" font-size="24px" font-style="normal" font-weight="normal" text-decoration="none" x="400" y="30">UNREGISTERED</text><text fill="#eeeeee" stroke="none" font-family="Arial" font-size="24px" font-style="normal" font-weight="normal" text-decoration="none" x="400" y="60">UNREGISTERED</text><text fill="#eeeeee" stroke="none" font-family="Arial" font-size="24px" font-style="normal" font-weight="normal" text-decoration="none" x="400" y="90">UNREGISTERED</text><text fill="#eeeeee" stroke="none" font-family="Arial" font-size="24px" font-style="normal" font-weight="normal" text-decoration="none" x="400" y="120">UNREGISTERED</text><text fill="#eeeeee" stroke="none" font-family="Arial" font-size="24px" font-style="normal" font-weight="normal" text-decoration="none" x="400" y="150">UNREGISTERED</text><text fill="#eeeeee" stroke="none" font-family="Arial" font-size="24px" font-style="normal" font-weight="normal" text-decoration="none" x="400" y="180">UNREGISTERED</text><text fill="#eeeeee" stroke="none" font-family="Arial" font-size="24px" font-style="normal" font-weight="normal" text-decoration="none" x="400" y="210">UNREGISTERED</text><text fill="#eeeeee" stroke="none" font-family="Arial" font-size="24px" font-style="normal" font-weight="normal" text-decoration="none" x="400" y="240">UNREGISTERED</text><text fill="#eeeeee" stroke="none" font-family="Arial" font-size="24px" font-style="normal" font-weight="normal" text-decoration="none" x="400" y="270">UNREGISTERED</text><text fill="#eeeeee" stroke="none" font-family="Arial" font-size="24px" font-style="normal" font-weight="normal" text-decoration="none" x="400" y="300">UNREGISTERED</text><text fill="#eeeeee" stroke="none" font-family="Arial" font-size="24px" font-style="normal" font-weight="normal" text-decoration="none" x="400" y="330">UNREGISTERED</text><g transform="translate(-174,-6) scale(1,1)"><path fill="none" stroke="#000000" d="M 184 16 L 712 16 L 712 328 L 184 328 L 184 16" stroke-miterlimit="10"/></g><g transform="translate(-174,-6) scale(1,1)"><path fill="#ffffff" stroke="none" d="M 184 16 L 184 38 L 245.5380859375 38 L 256.5380859375 27 L 256.5380859375 16 L 184 16"/></g><g transform="translate(-174,-6) scale(1,1)"><path fill="none" stroke="#000000" d="M 184 16 L 184 38 L 245.5380859375 38 L 256.5380859375 27 L 256.5380859375 16 L 184 16 L 184 16" stroke-miterlimit="10"/></g><g transform="translate(-174,-6) scale(1,1)"><g><path fill="none" stroke="none"/><text fill="#000000" stroke="none" font-family="Arial" font-size="13px" font-style="normal" font-weight="normal" text-decoration="none" x="208.72998046875" y="32">Login</text></g></g><g transform="translate(-174,-6) scale(1,1)"><g><path fill="none" stroke="none"/><text fill="#000000" stroke="none" font-family="Arial" font-size="13px" font-style="normal" font-weight="bold" text-decoration="none" x="188.279541015625" y="32">sd</text></g></g><g transform="translate(-174,-6) scale(1,1)"><path fill="#ffffff" stroke="none" d="M 386.0804305752841 47.3 C 386.0804305752841 43.82060576 388.9588322974659 41 392.509521484375 41 C 396.0602106712841 41 398.938612393466 43.82060576 398.938612393466 47.3 C 398.938612393466 50.779394239999995 396.0602106712841 53.6 392.509521484375 53.6 C 388.9588322974659 53.6 386.0804305752841 50.779394239999995 386.0804305752841 47.3 Z"/></g><g transform="translate(-174,-6) scale(1,1)"><path fill="none" stroke="#000000" d="M 386.0804305752841 47.3 C 386.0804305752841 43.82060576 388.9588322974659 41 392.509521484375 41 C 396.0602106712841 41 398.938612393466 43.82060576 398.938612393466 47.3 C 398.938612393466 50.779394239999995 396.0602106712841 53.6 392.509521484375 53.6 C 388.9588322974659 53.6 386.0804305752841 50.779394239999995 386.0804305752841 47.3 Z" stroke-miterlimit="10"/></g><g transform="translate(-174,-6) scale(1,1)"><path fill="none" stroke="#000000" d="M 392.509521484375 53.6 L 392.509521484375 66.4" stroke-miterlimit="10"/></g><g transform="translate(-174,-6) scale(1,1)"><path fill="none" stroke="#000000" d="M 385.70224875710227 58.4 L 399.3167942116478 58.4" stroke-miterlimit="10"/></g><g transform="translate(-174,-6) scale(1,1)"><path fill="none" stroke="#000000" d="M 392.509521484375 66.4 L 383.05497602982956 79" stroke-miterlimit="10"/></g><g transform="translate(-174,-6) scale(1,1)"><path fill="none" stroke="#000000" d="M 392.509521484375 66.4 L 401.9640669389205 79" stroke-miterlimit="10"/></g><g transform="translate(-174,-6) scale(1,1)"><g><path fill="none" stroke="none"/><text fill="#000000" stroke="none" font-family="Arial" font-size="13px" font-style="normal" font-weight="bold" text-decoration="none" x="340.5" y="98">Lifeline2: Cliente</text></g></g><g transform="translate(-174,-6) scale(1,1)"><path fill="none" stroke="#000000" d="M 393.5 105 L 393.5 312" stroke-miterlimit="10" stroke-dasharray="3"/></g><g transform="translate(-174,-6) scale(1,1)"><path fill="#ffffff" stroke="none" d="M 522.856797762784 47.3 C 522.856797762784 43.82060576 525.735199484966 41 529.285888671875 41 C 532.836577858784 41 535.7149795809659 43.82060576 535.7149795809659 47.3 C 535.7149795809659 50.779394239999995 532.836577858784 53.6 529.285888671875 53.6 C 525.735199484966 53.6 522.856797762784 50.779394239999995 522.856797762784 47.3 Z"/></g><g transform="translate(-174,-6) scale(1,1)"><path fill="none" stroke="#000000" d="M 522.856797762784 47.3 C 522.856797762784 43.82060576 525.735199484966 41 529.285888671875 41 C 532.836577858784 41 535.7149795809659 43.82060576 535.7149795809659 47.3 C 535.7149795809659 50.779394239999995 532.836577858784 53.6 529.285888671875 53.6 C 525.735199484966 53.6 522.856797762784 50.779394239999995 522.856797762784 47.3 Z" stroke-miterlimit="10"/></g><g transform="translate(-174,-6) scale(1,1)"><path fill="none" stroke="#000000" d="M 529.285888671875 53.6 L 529.285888671875 66.4" stroke-miterlimit="10"/></g><g transform="translate(-174,-6) scale(1,1)"><path fill="none" stroke="#000000" d="M 522.4786159446022 58.4 L 536.0931613991477 58.4" stroke-miterlimit="10"/></g><g transform="translate(-174,-6) scale(1,1)"><path fill="none" stroke="#000000" d="M 529.285888671875 66.4 L 519.8313432173295 79" stroke-miterlimit="10"/></g><g transform="translate(-174,-6) scale(1,1)"><path fill="none" stroke="#000000" d="M 529.285888671875 66.4 L 538.7404341264204 79" stroke-miterlimit="10"/></g><g transform="translate(-174,-6) scale(1,1)"><g><path fill="none" stroke="none"/><text fill="#000000" stroke="none" font-family="Arial" font-size="13px" font-style="normal" font-weight="bold" text-decoration="none" x="484.5" y="98">Lifeline3: Guia</text></g></g><g transform="translate(-174,-6) scale(1,1)"><path fill="none" stroke="#000000" d="M 530.5 105 L 530.5 312" stroke-miterlimit="10" stroke-dasharray="3"/></g><g transform="translate(-174,-6) scale(1,1)"><path fill="none" stroke="#000000" d="M 393 144 L 423 144 L 423 164 L 399 164" stroke-miterlimit="10"/></g><g transform="translate(-174,-6) scale(1,1)"><path fill="#000000" stroke="none" d="M 409.16267485762415 159.790482243984 L 399 164 L 409.16267485762415 168.209517756016"/></g><g transform="translate(-174,-6) scale(1,1)"><path fill="none" stroke="#000000" d="M 409.16267485762415 159.790482243984 L 399 164 L 409.16267485762415 168.209517756016 L 409.16267485762415 159.790482243984" stroke-miterlimit="10"/></g><g transform="translate(-174,-6) scale(1,1)"><g><path fill="none" stroke="none"/><text fill="#000000" stroke="none" font-family="Arial" font-size="13px" font-style="normal" font-weight="normal" text-decoration="none" x="402.25634765625" y="158">1 : Login()</text></g></g><g transform="translate(-174,-6) scale(1,1)"><rect fill="#ffffff" stroke="none" x="386" y="164" width="13" height="28"/></g><g transform="translate(-174,-6) scale(1,1)"><path fill="none" stroke="#000000" d="M 386 164 L 399 164 L 399 192 L 386 192 L 386 164 Z Z" stroke-miterlimit="10"/></g><g transform="translate(-174,-6) scale(1,1)"><path fill="none" stroke="#000000" d="M 530 160 L 560 160 L 560 180 L 536 180" stroke-miterlimit="10"/></g><g transform="translate(-174,-6) scale(1,1)"><path fill="#000000" stroke="none" d="M 546.1626748576241 175.790482243984 L 536 180 L 546.1626748576241 184.209517756016"/></g><g transform="translate(-174,-6) scale(1,1)"><path fill="none" stroke="#000000" d="M 546.1626748576241 175.790482243984 L 536 180 L 546.1626748576241 184.209517756016 L 546.1626748576241 175.790482243984" stroke-miterlimit="10"/></g><g transform="translate(-174,-6) scale(1,1)"><g><path fill="none" stroke="none"/><text fill="#000000" stroke="none" font-family="Arial" font-size="13px" font-style="normal" font-weight="normal" text-decoration="none" x="543.58544921875" y="174">2 : Login</text></g></g><g transform="translate(-174,-6) scale(1,1)"><rect fill="#ffffff" stroke="none" x="523" y="180" width="13" height="28"/></g><g transform="translate(-174,-6) scale(1,1)"><path fill="none" stroke="#000000" d="M 523 180 L 536 180 L 536 208 L 523 208 L 523 180 Z Z" stroke-miterlimit="10"/></g></g></svg>