<svg version="1.1" xmlns="http://www.w3.org/2000/svg" xmlns:xlink="http://www.w3.org/1999/xlink" width="715.62255859375" height="1149"><defs/><g><text fill="#eeeeee" stroke="none" font-family="Arial" font-size="24px" font-style="normal" font-weight="normal" text-decoration="none" x="0" y="0">UNREGISTERED</text><text fill="#eeeeee" stroke="none" font-family="Arial" font-size="24px" font-style="normal" font-weight="normal" text-decoration="none" x="0" y="30">UNREGISTERED</text><text fill="#eeeeee" stroke="none" font-family="Arial" font-size="24px" font-style="normal" font-weight="normal" text-decoration="none" x="0" y="60">UNREGISTERED</text><text fill="#eeeeee" stroke="none" font-family="Arial" font-size="24px" font-style="normal" font-weight="normal" text-decoration="none" x="0" y="90">UNREGISTERED</text><text fill="#eeeeee" stroke="none" font-family="Arial" font-size="24px" font-style="normal" font-weight="normal" text-decoration="none" x="0" y="120">UNREGISTERED</text><text fill="#eeeeee" stroke="none" font-family="Arial" font-size="24px" font-style="normal" font-weight="normal" text-decoration="none" x="0" y="150">UNREGISTERED</text><text fill="#eeeeee" stroke="none" font-family="Arial" font-size="24px" font-style="normal" font-weight="normal" text-decoration="none" x="0" y="180">UNREGISTERED</text><text fill="#eeeeee" stroke="none" font-family="Arial" font-size="24px" font-style="normal" font-weight="normal" text-decoration="none" x="0" y="210">UNREGISTERED</text><text fill="#eeeeee" stroke="none" font-family="Arial" font-size="24px" font-style="normal" font-weight="normal" text-decoration="none" x="0" y="240">UNREGISTERED</text><text fill="#eeeeee" stroke="none" font-family="Arial" font-size="24px" font-style="normal" font-weight="normal" text-decoration="none" x="0" y="270">UNREGISTERED</text><text fill="#eeeeee" stroke="none" font-family="Arial" font-size="24px" font-style="normal" font-weight="normal" text-decoration="none" x="0" y="300">UNREGISTERED</text><text fill="#eeeeee" stroke="none" font-family="Arial" font-size="24px" font-style="normal" font-weight="normal" text-decoration="none" x="0" y="330">UNREGISTERED</text><text fill="#eeeeee" stroke="none" font-family="Arial" font-size="24px" font-style="normal" font-weight="normal" text-decoration="none" x="0" y="360">UNREGISTERED</text><text fill="#eeeeee" stroke="none" font-family="Arial" font-size="24px" font-style="normal" font-weight="normal" text-decoration="none" x="0" y="390">UNREGISTERED</text><text fill="#eeeeee" stroke="none" font-family="Arial" font-size="24px" font-style="normal" font-weight="normal" text-decoration="none" x="0" y="420">UNREGISTERED</text><text fill="#eeeeee" stroke="none" font-family="Arial" font-size="24px" font-style="normal" font-weight="normal" text-decoration="none" x="0" y="450">UNREGISTERED</text><text fill="#eeeeee" stroke="none" font-family="Arial" font-size="24px" font-style="normal" font-weight="normal" text-decoration="none" x="0" y="480">UNREGISTERED</text><text fill="#eeeeee" stroke="none" font-family="Arial" font-size="24px" font-style="normal" font-weight="normal" text-decoration="none" x="0" y="510">UNREGISTERED</text><text fill="#eeeeee" stroke="none" font-family="Arial" font-size="24px" font-style="normal" font-weight="normal" text-decoration="none" x="0" y="540">UNREGISTERED</text><text fill="#eeeeee" stroke="none" font-family="Arial" font-size="24px" font-style="normal" font-weight="normal" text-decoration="none" x="0" y="570">UNREGISTERED</text><text fill="#eeeeee" stroke="none" font-family="Arial" font-size="24px" font-style="normal" font-weight="normal" text-decoration="none" x="0" y="600">UNREGISTERED</text><text fill="#eeeeee" stroke="none" font-family="Arial" font-size="24px" font-style="normal" font-weight="normal" text-decoration="none" x="0" y="630">UNREGISTERED</text><text fill="#eeeeee" stroke="none" font-family="Arial" font-size="24px" font-style="normal" font-weight="normal" text-decoration="none" x="0" y="660">UNREGISTERED</text><text fill="#eeeeee" stroke="none" font-family="Arial" font-size="24px" font-style="normal" font-weight="normal" text-decoration="none" x="0" y="690">UNREGISTERED</text><text fill="#eeeeee" stroke="none" font-family="Arial" font-size="24px" font-style="normal" font-weight="normal" text-decoration="none" x="0" y="720">UNREGISTERED</text><text fill="#eeeeee" stroke="none" font-family="Arial" font-size="24px" font-style="normal" font-weight="normal" text-decoration="none" x="0" y="750">UNREGISTERED</text><text fill="#eeeeee" stroke="none" font-family="Arial" font-size="24px" font-style="normal" font-weight="normal" text-decoration="none" x="0" y="780">UNREGISTERED</text><text fill="#eeeeee" stroke="none" font-family="Arial" font-size="24px" font-style="normal" font-weight="normal" text-decoration="none" x="0" y="810">UNREGISTERED</text><text fill="#eeeeee" stroke="none" font-family="Arial" font-size="24px" font-style="normal" font-weight="normal" text-decoration="none" x="0" y="840">UNREGISTERED</text><text fill="#eeeeee" stroke="none" font-family="Arial" font-size="24px" font-style="normal" font-weight="normal" text-decoration="none" x="0" y="870">UNREGISTERED</text><text fill="#eeeeee" stroke="none" font-family="Arial" font-size="24px" font-style="normal" font-weight="normal" text-decoration="none" x="0" y="900">UNREGISTERED</text><text fill="#eeeeee" stroke="none" font-family="Arial" font-size="24px" font-style="normal" font-weight="normal" text-decoration="none" x="0" y="930">UNREGISTERED</text><text fill="#eeeeee" stroke="none" font-family="Arial" font-size="24px" font-style="normal" font-weight="normal" text-decoration="none" x="0" y="960">UNREGISTERED</text><text fill="#eeeeee" stroke="none" font-family="Arial" font-size="24px" font-style="normal" font-weight="normal" text-decoration="none" x="0" y="990">UNREGISTERED</text><text fill="#eeeeee" stroke="none" font-family="Arial" font-size="24px" font-style="normal" font-weight="normal" text-decoration="none" x="0" y="1020">UNREGISTERED</text><text fill="#eeeeee" stroke="none" font-family="Arial" font-size="24px" font-style="normal" font-weight="normal" text-decoration="none" x="0" y="1050">UNREGISTERED</text><text fill="#eeeeee" stroke="none" font-family="Arial" font-size="24px" font-style="normal" font-weight="normal" text-decoration="none" x="0" y="1080">UNREGISTERED</text><text fill="#eeeeee" stroke="none" font-family="Arial" font-size="24px" font-style="normal" font-weight="normal" text-decoration="none" x="0" y="1110">UNREGISTERED</text><text fill="#eeeeee" stroke="none" font-family="Arial" font-size="24px" font-style="normal" font-weight="normal" text-decoration="none" x="0" y="1140">UNREGISTERED</text><text fill="#eeeeee" stroke="none" font-family="Arial" font-size="24px" font-style="normal" font-weight="normal" text-decoration="none" x="200" y="0">UNREGISTERED</text><text fill="#eeeeee" stroke="none" font-family="Arial" font-size="24px" font-style="normal" font-weight="normal" text-decoration="none" x="200" y="30">UNREGISTERED</text><text fill="#eeeeee" stroke="none" font-family="Arial" font-size="24px" font-style="normal" font-weight="normal" text-decoration="none" x="200" y="60">UNREGISTERED</text><text fill="#eeeeee" stroke="none" font-family="Arial" font-size="24px" font-style="normal" font-weight="normal" text-decoration="none" x="200" y="90">UNREGISTERED</text><text fill="#eeeeee" stroke="none" font-family="Arial" font-size="24px" font-style="normal" font-weight="normal" text-decoration="none" x="200" y="120">UNREGISTERED</text><text fill="#eeeeee" stroke="none" font-family="Arial" font-size="24px" font-style="normal" font-weight="normal" text-decoration="none" x="200" y="150">UNREGISTERED</text><text fill="#eeeeee" stroke="none" font-family="Arial" font-size="24px" font-style="normal" font-weight="normal" text-decoration="none" x="200" y="180">UNREGISTERED</text><text fill="#eeeeee" stroke="none" font-family="Arial" font-size="24px" font-style="normal" font-weight="normal" text-decoration="none" x="200" y="210">UNREGISTERED</text><text fill="#eeeeee" stroke="none" font-family="Arial" font-size="24px" font-style="normal" font-weight="normal" text-decoration="none" x="200" y="240">UNREGISTERED</text><text fill="#eeeeee" stroke="none" font-family="Arial" font-size="24px" font-style="normal" font-weight="normal" text-decoration="none" x="200" y="270">UNREGISTERED</text><text fill="#eeeeee" stroke="none" font-family="Arial" font-size="24px" font-style="normal" font-weight="normal" text-decoration="none" x="200" y="300">UNREGISTERED</text><text fill="#eeeeee" stroke="none" font-family="Arial" font-size="24px" font-style="normal" font-weight="normal" text-decoration="none" x="200" y="330">UNREGISTERED</text><text fill="#eeeeee" stroke="none" font-family="Arial" font-size="24px" font-style="normal" font-weight="normal" text-decoration="none" x="200" y="360">UNREGISTERED</text><text fill="#eeeeee" stroke="none" font-family="Arial" font-size="24px" font-style="normal" font-weight="normal" text-decoration="none" x="200" y="390">UNREGISTERED</text><text fill="#eeeeee" stroke="none" font-family="Arial" font-size="24px" font-style="normal" font-weight="normal" text-decoration="none" x="200" y="420">UNREGISTERED</text><text fill="#eeeeee" stroke="none" font-family="Arial" font-size="24px" font-style="normal" font-weight="normal" text-decoration="none" x="200" y="450">UNREGISTERED</text><text fill="#eeeeee" stroke="none" font-family="Arial" font-size="24px" font-style="normal" font-weight="normal" text-decoration="none" x="200" y="480">UNREGISTERED</text><text fill="#eeeeee" stroke="none" font-family="Arial" font-size="24px" font-style="normal" font-weight="normal" text-decoration="none" x="200" y="510">UNREGISTERED</text><text fill="#eeeeee" stroke="none" font-family="Arial" font-size="24px" font-style="normal" font-weight="normal" text-decoration="none" x="200" y="540">UNREGISTERED</text><text fill="#eeeeee" stroke="none" font-family="Arial" font-size="24px" font-style="normal" font-weight="normal" text-decoration="none" x="200" y="570">UNREGISTERED</text><text fill="#eeeeee" stroke="none" font-family="Arial" font-size="24px" font-style="normal" font-weight="normal" text-decoration="none" x="200" y="600">UNREGISTERED</text><text fill="#eeeeee" stroke="none" font-family="Arial" font-size="24px" font-style="normal" font-weight="normal" text-decoration="none" x="200" y="630">UNREGISTERED</text><text fill="#eeeeee" stroke="none" font-family="Arial" font-size="24px" font-style="normal" font-weight="normal" text-decoration="none" x="200" y="660">UNREGISTERED</text><text fill="#eeeeee" stroke="none" font-family="Arial" font-size="24px" font-style="normal" font-weight="normal" text-decoration="none" x="200" y="690">UNREGISTERED</text><text fill="#eeeeee" stroke="none" font-family="Arial" font-size="24px" font-style="normal" font-weight="normal" text-decoration="none" x="200" y="720">UNREGISTERED</text><text fill="#eeeeee" stroke="none" font-family="Arial" font-size="24px" font-style="normal" font-weight="normal" text-decoration="none" x="200" y="750">UNREGISTERED</text><text fill="#eeeeee" stroke="none" font-family="Arial" font-size="24px" font-style="normal" font-weight="normal" text-decoration="none" x="200" y="780">UNREGISTERED</text><text fill="#eeeeee" stroke="none" font-family="Arial" font-size="24px" font-style="normal" font-weight="normal" text-decoration="none" x="200" y="810">UNREGISTERED</text><text fill="#eeeeee" stroke="none" font-family="Arial" font-size="24px" font-style="normal" font-weight="normal" text-decoration="none" x="200" y="840">UNREGISTERED</text><text fill="#eeeeee" stroke="none" font-family="Arial" font-size="24px" font-style="normal" font-weight="normal" text-decoration="none" x="200" y="870">UNREGISTERED</text><text fill="#eeeeee" stroke="none" font-family="Arial" font-size="24px" font-style="normal" font-weight="normal" text-decoration="none" x="200" y="900">UNREGISTERED</text><text fill="#eeeeee" stroke="none" font-family="Arial" font-size="24px" font-style="normal" font-weight="normal" text-decoration="none" x="200" y="930">UNREGISTERED</text><text fill="#eeeeee" stroke="none" font-family="Arial" font-size="24px" font-style="normal" font-weight="normal" text-decoration="none" x="200" y="960">UNREGISTERED</text><text fill="#eeeeee" stroke="none" font-family="Arial" font-size="24px" font-style="normal" font-weight="normal" text-decoration="none" x="200" y="990">UNREGISTERED</text><text fill="#eeeeee" stroke="none" font-family="Arial" font-size="24px" font-style="normal" font-weight="normal" text-decoration="none" x="200" y="1020">UNREGISTERED</text><text fill="#eeeeee" stroke="none" font-family="Arial" font-size="24px" font-style="normal" font-weight="normal" text-decoration="none" x="200" y="1050">UNREGISTERED</text><text fill="#eeeeee" stroke="none" font-family="Arial" font-size="24px" font-style="normal" font-weight="normal" text-decoration="none" x="200" y="1080">UNREGISTERED</text><text fill="#eeeeee" stroke="none" font-family="Arial" font-size="24px" font-style="normal" font-weight="normal" text-decoration="none" x="200" y="1110">UNREGISTERED</text><text fill="#eeeeee" stroke="none" font-family="Arial" font-size="24px" font-style="normal" font-weight="normal" text-decoration="none" x="200" y="1140">UNREGISTERED</text><text fill="#eeeeee" stroke="none" font-family="Arial" font-size="24px" font-style="normal" font-weight="normal" text-decoration="none" x="400" y="0">UNREGISTERED</text><text fill="#eeeeee" stroke="none" font-family="Arial" font-size="24px" font-style="normal" font-weight="normal" text-decoration="none" x="400" y="30">UNREGISTERED</text><text fill="#eeeeee" stroke="none" font-family="Arial" font-size="24px" font-style="normal" font-weight="normal" text-decoration="none" x="400" y="60">UNREGISTERED</text><text fill="#eeeeee" stroke="none" font-family="Arial" font-size="24px" font-style="normal" font-weight="normal" text-decoration="none" x="400" y="90">UNREGISTERED</text><text fill="#eeeeee" stroke="none" font-family="Arial" font-size="24px" font-style="normal" font-weight="normal" text-decoration="none" x="400" y="120">UNREGISTERED</text><text fill="#eeeeee" stroke="none" font-family="Arial" font-size="24px" font-style="normal" font-weight="normal" text-decoration="none" x="400" y="150">UNREGISTERED</text><text fill="#eeeeee" stroke="none" font-family="Arial" font-size="24px" font-style="normal" font-weight="normal" text-decoration="none" x="400" y="180">UNREGISTERED</text><text fill="#eeeeee" stroke="none" font-family="Arial" font-size="24px" font-style="normal" font-weight="normal" text-decoration="none" x="400" y="210">UNREGISTERED</text><text fill="#eeeeee" stroke="none" font-family="Arial" font-size="24px" font-style="normal" font-weight="normal" text-decoration="none" x="400" y="240">UNREGISTERED</text><text fill="#eeeeee" stroke="none" font-family="Arial" font-size="24px" font-style="normal" font-weight="normal" text-decoration="none" x="400" y="270">UNREGISTERED</text><text fill="#eeeeee" stroke="none" font-family="Arial" font-size="24px" font-style="normal" font-weight="normal" text-decoration="none" x="400" y="300">UNREGISTERED</text><text fill="#eeeeee" stroke="none" font-family="Arial" font-size="24px" font-style="normal" font-weight="normal" text-decoration="none" x="400" y="330">UNREGISTERED</text><text fill="#eeeeee" stroke="none" font-family="Arial" font-size="24px" font-style="normal" font-weight="normal" text-decoration="none" x="400" y="360">UNREGISTERED</text><text fill="#eeeeee" stroke="none" font-family="Arial" font-size="24px" font-style="normal" font-weight="normal" text-decoration="none" x="400" y="390">UNREGISTERED</text><text fill="#eeeeee" stroke="none" font-family="Arial" font-size="24px" font-style="normal" font-weight="normal" text-decoration="none" x="400" y="420">UNREGISTERED</text><text fill="#eeeeee" stroke="none" font-family="Arial" font-size="24px" font-style="normal" font-weight="normal" text-decoration="none" x="400" y="450">UNREGISTERED</text><text fill="#eeeeee" stroke="none" font-family="Arial" font-size="24px" font-style="normal" font-weight="normal" text-decoration="none" x="400" y="480">UNREGISTERED</text><text fill="#eeeeee" stroke="none" font-family="Arial" font-size="24px" font-style="normal" font-weight="normal" text-decoration="none" x="400" y="510">UNREGISTERED</text><text fill="#eeeeee" stroke="none" font-family="Arial" font-size="24px" font-style="normal" font-weight="normal" text-decoration="none" x="400" y="540">UNREGISTERED</text><text fill="#eeeeee" stroke="none" font-family="Arial" font-size="24px" font-style="normal" font-weight="normal" text-decoration="none" x="400" y="570">UNREGISTERED</text><text fill="#eeeeee" stroke="none" font-family="Arial" font-size="24px" font-style="normal" font-weight="normal" text-decoration="none" x="400" y="600">UNREGISTERED</text><text fill="#eeeeee" stroke="none" font-family="Arial" font-size="24px" font-style="normal" font-weight="normal" text-decoration="none" x="400" y="630">UNREGISTERED</text><text fill="#eeeeee" stroke="none" font-family="Arial" font-size="24px" font-style="normal" font-weight="normal" text-decoration="none" x="400" y="660">UNREGISTERED</text><text fill="#eeeeee" stroke="none" font-family="Arial" font-size="24px" font-style="normal" font-weight="normal" text-decoration="none" x="400" y="690">UNREGISTERED</text><text fill="#eeeeee" stroke="none" font-family="Arial" font-size="24px" font-style="normal" font-weight="normal" text-decoration="none" x="400" y="720">UNREGISTERED</text><text fill="#eeeeee" stroke="none" font-family="Arial" font-size="24px" font-style="normal" font-weight="normal" text-decoration="none" x="400" y="750">UNREGISTERED</text><text fill="#eeeeee" stroke="none" font-family="Arial" font-size="24px" font-style="normal" font-weight="normal" text-decoration="none" x="400" y="780">UNREGISTERED</text><text fill="#eeeeee" stroke="none" font-family="Arial" font-size="24px" font-style="normal" font-weight="normal" text-decoration="none" x="400" y="810">UNREGISTERED</text><text fill="#eeeeee" stroke="none" font-family="Arial" font-size="24px" font-style="normal" font-weight="normal" text-decoration="none" x="400" y="840">UNREGISTERED</text><text fill="#eeeeee" stroke="none" font-family="Arial" font-size="24px" font-style="normal" font-weight="normal" text-decoration="none" x="400" y="870">UNREGISTERED</text><text fill="#eeeeee" stroke="none" font-family="Arial" font-size="24px" font-style="normal" font-weight="normal" text-decoration="none" x="400" y="900">UNREGISTERED</text><text fill="#eeeeee" stroke="none" font-family="Arial" font-size="24px" font-style="normal" font-weight="normal" text-decoration="none" x="400" y="930">UNREGISTERED</text><text fill="#eeeeee" stroke="none" font-family="Arial" font-size="24px" font-style="normal" font-weight="normal" text-decoration="none" x="400" y="960">UNREGISTERED</text><text fill="#eeeeee" stroke="none" font-family="Arial" font-size="24px" font-style="normal" font-weight="normal" text-decoration="none" x="400" y="990">UNREGISTERED</text><text fill="#eeeeee" stroke="none" font-family="Arial" font-size="24px" font-style="normal" font-weight="normal" text-decoration="none" x="400" y="1020">UNREGISTERED</text><text fill="#eeeeee" stroke="none" font-family="Arial" font-size="24px" font-style="normal" font-weight="normal" text-decoration="none" x="400" y="1050">UNREGISTERED</text><text fill="#eeeeee" stroke="none" font-family="Arial" font-size="24px" font-style="normal" font-weight="normal" text-decoration="none" x="400" y="1080">UNREGISTERED</text><text fill="#eeeeee" stroke="none" font-family="Arial" font-size="24px" font-style="normal" font-weight="normal" text-decoration="none" x="400" y="1110">UNREGISTERED</text><text fill="#eeeeee" stroke="none" font-family="Arial" font-size="24px" font-style="normal" font-weight="normal" text-decoration="none" x="400" y="1140">UNREGISTERED</text><text fill="#eeeeee" stroke="none" font-family="Arial" font-size="24px" font-style="normal" font-weight="normal" text-decoration="none" x="600" y="0">UNREGISTERED</text><text fill="#eeeeee" stroke="none" font-family="Arial" font-size="24px" font-style="normal" font-weight="normal" text-decoration="none" x="600" y="30">UNREGISTERED</text><text fill="#eeeeee" stroke="none" font-family="Arial" font-size="24px" font-style="normal" font-weight="normal" text-decoration="none" x="600" y="60">UNREGISTERED</text><text fill="#eeeeee" stroke="none" font-family="Arial" font-size="24px" font-style="normal" font-weight="normal" text-decoration="none" x="600" y="90">UNREGISTERED</text><text fill="#eeeeee" stroke="none" font-family="Arial" font-size="24px" font-style="normal" font-weight="normal" text-decoration="none" x="600" y="120">UNREGISTERED</text><text fill="#eeeeee" stroke="none" font-family="Arial" font-size="24px" font-style="normal" font-weight="normal" text-decoration="none" x="600" y="150">UNREGISTERED</text><text fill="#eeeeee" stroke="none" font-family="Arial" font-size="24px" font-style="normal" font-weight="normal" text-decoration="none" x="600" y="180">UNREGISTERED</text><text fill="#eeeeee" stroke="none" font-family="Arial" font-size="24px" font-style="normal" font-weight="normal" text-decoration="none" x="600" y="210">UNREGISTERED</text><text fill="#eeeeee" stroke="none" font-family="Arial" font-size="24px" font-style="normal" font-weight="normal" text-decoration="none" x="600" y="240">UNREGISTERED</text><text fill="#eeeeee" stroke="none" font-family="Arial" font-size="24px" font-style="normal" font-weight="normal" text-decoration="none" x="600" y="270">UNREGISTERED</text><text fill="#eeeeee" stroke="none" font-family="Arial" font-size="24px" font-style="normal" font-weight="normal" text-decoration="none" x="600" y="300">UNREGISTERED</text><text fill="#eeeeee" stroke="none" font-family="Arial" font-size="24px" font-style="normal" font-weight="normal" text-decoration="none" x="600" y="330">UNREGISTERED</text><text fill="#eeeeee" stroke="none" font-family="Arial" font-size="24px" font-style="normal" font-weight="normal" text-decoration="none" x="600" y="360">UNREGISTERED</text><text fill="#eeeeee" stroke="none" font-family="Arial" font-size="24px" font-style="normal" font-weight="normal" text-decoration="none" x="600" y="390">UNREGISTERED</text><text fill="#eeeeee" stroke="none" font-family="Arial" font-size="24px" font-style="normal" font-weight="normal" text-decoration="none" x="600" y="420">UNREGISTERED</text><text fill="#eeeeee" stroke="none" font-family="Arial" font-size="24px" font-style="normal" font-weight="normal" text-decoration="none" x="600" y="450">UNREGISTERED</text><text fill="#eeeeee" stroke="none" font-family="Arial" font-size="24px" font-style="normal" font-weight="normal" text-decoration="none" x="600" y="480">UNREGISTERED</text><text fill="#eeeeee" stroke="none" font-family="Arial" font-size="24px" font-style="normal" font-weight="normal" text-decoration="none" x="600" y="510">UNREGISTERED</text><text fill="#eeeeee" stroke="none" font-family="Arial" font-size="24px" font-style="normal" font-weight="normal" text-decoration="none" x="600" y="540">UNREGISTERED</text><text fill="#eeeeee" stroke="none" font-family="Arial" font-size="24px" font-style="normal" font-weight="normal" text-decoration="none" x="600" y="570">UNREGISTERED</text><text fill="#eeeeee" stroke="none" font-family="Arial" font-size="24px" font-style="normal" font-weight="normal" text-decoration="none" x="600" y="600">UNREGISTERED</text><text fill="#eeeeee" stroke="none" font-family="Arial" font-size="24px" font-style="normal" font-weight="normal" text-decoration="none" x="600" y="630">UNREGISTERED</text><text fill="#eeeeee" stroke="none" font-family="Arial" font-size="24px" font-style="normal" font-weight="normal" text-decoration="none" x="600" y="660">UNREGISTERED</text><text fill="#eeeeee" stroke="none" font-family="Arial" font-size="24px" font-style="normal" font-weight="normal" text-decoration="none" x="600" y="690">UNREGISTERED</text><text fill="#eeeeee" stroke="none" font-family="Arial" font-size="24px" font-style="normal" font-weight="normal" text-decoration="none" x="600" y="720">UNREGISTERED</text><text fill="#eeeeee" stroke="none" font-family="Arial" font-size="24px" font-style="normal" font-weight="normal" text-decoration="none" x="600" y="750">UNREGISTERED</text><text fill="#eeeeee" stroke="none" font-family="Arial" font-size="24px" font-style="normal" font-weight="normal" text-decoration="none" x="600" y="780">UNREGISTERED</text><text fill="#eeeeee" stroke="none" font-family="Arial" font-size="24px" font-style="normal" font-weight="normal" text-decoration="none" x="600" y="810">UNREGISTERED</text><text fill="#eeeeee" stroke="none" font-family="Arial" font-size="24px" font-style="normal" font-weight="normal" text-decoration="none" x="600" y="840">UNREGISTERED</text><text fill="#eeeeee" stroke="none" font-family="Arial" font-size="24px" font-style="normal" font-weight="normal" text-decoration="none" x="600" y="870">UNREGISTERED</text><text fill="#eeeeee" stroke="none" font-family="Arial" font-size="24px" font-style="normal" font-weight="normal" text-decoration="none" x="600" y="900">UNREGISTERED</text><text fill="#eeeeee" stroke="none" font-family="Arial" font-size="24px" font-style="normal" font-weight="normal" text-decoration="none" x="600" y="930">UNREGISTERED</text><text fill="#eeeeee" stroke="none" font-family="Arial" font-size="24px" font-style="normal" font-weight="normal" text-decoration="none" x="600" y="960">UNREGISTERED</text><text fill="#eeeeee" stroke="none" font-family="Arial" font-size="24px" font-style="normal" font-weight="normal" text-decoration="none" x="600" y="990">UNREGISTERED</text><text fill="#eeeeee" stroke="none" font-family="Arial" font-size="24px" font-style="normal" font-weight="normal" text-decoration="none" x="600" y="1020">UNREGISTERED</text><text fill="#eeeeee" stroke="none" font-family="Arial" font-size="24px" font-style="normal" font-weight="normal" text-decoration="none" x="600" y="1050">UNREGISTERED</text><text fill="#eeeeee" stroke="none" font-family="Arial" font-size="24px" font-style="normal" font-weight="normal" text-decoration="none" x="600" y="1080">UNREGISTERED</text><text fill="#eeeeee" stroke="none" font-family="Arial" font-size="24px" font-style="normal" font-weight="normal" text-decoration="none" x="600" y="1110">UNREGISTERED</text><text fill="#eeeeee" stroke="none" font-family="Arial" font-size="24px" font-style="normal" font-weight="normal" text-decoration="none" x="600" y="1140">UNREGISTERED</text><g transform="translate(-326,-14) scale(1,1)"><path fill="#C0C0C0" stroke="none" d="M 407 40.5 C 407 35.2532944 411.2532944 31 416.5 31 C 421.7467056 31 426 35.2532944 426 40.5 C 426 45.7467056 421.7467056 50 416.5 50 C 411.2532944 50 407 45.7467056 407 40.5 Z" opacity="0.2"/></g><g transform="translate(-326,-14) scale(1,1)"><path fill="#000000" stroke="none" d="M 400 33.5 C 400 28.2532944 404.2532944 24 409.5 24 C 414.7467056 24 419 28.2532944 419 33.5 C 419 38.7467056 414.7467056 43 409.5 43 C 404.2532944 43 400 38.7467056 400 33.5 Z"/></g><g transform="translate(-326,-14) scale(1,1)"><path fill="#C0C0C0" stroke="none" d="M 353 175 L 477 175 Q 487 175 487 185 L 487 245 Q 487 255 477 255 L 353 255 Q 343 255 343 245 L 343 185 Q 343 175 353 175 Z" opacity="0.2"/></g><g transform="translate(-326,-14) scale(1,1)"><path fill="#ffffff" stroke="none" d="M 346 168 L 470 168 Q 480 168 480 178 L 480 238 Q 480 248 470 248 L 346 248 Q 336 248 336 238 L 336 178 Q 336 168 346 168 Z"/></g><g transform="translate(-326,-14) scale(1,1)"><path fill="none" stroke="#000000" d="M 346 168 L 470 168 Q 480 168 480 178 L 480 238 Q 480 248 470 248 L 346 248 Q 336 248 336 238 L 336 178 Q 336 168 346 168 Z" stroke-miterlimit="10"/></g><g transform="translate(-326,-14) scale(1,1)"><path fill="none" stroke="#000000" d="M 336 193 L 480 193" stroke-miterlimit="10"/></g><g transform="translate(-326,-14) scale(1,1)"><g><path fill="none" stroke="none"/><text fill="#000000" stroke="none" font-family="Arial" font-size="13px" font-style="normal" font-weight="bold" text-decoration="none" x="354.194091796875" y="186">Realizando Login</text></g></g><g transform="translate(-326,-14) scale(1,1)"><g><path fill="none" stroke="none"/><text fill="#000000" stroke="none" font-family="Arial" font-size="13px" font-style="normal" font-weight="normal" text-decoration="none" x="341" y="209">do/Login</text></g></g><g transform="translate(-326,-14) scale(1,1)"><path fill="none" stroke="#000000" d="M 409 44 L 408 167" stroke-miterlimit="10"/></g><g transform="translate(-326,-14) scale(1,1)"><path fill="none" stroke="#000000" d="M 403.8732420002397 156.80343840250967 L 408 167 L 412.2919992844254 156.87188358368192" stroke-miterlimit="10"/></g><g transform="translate(-326,-14) scale(1,1)"><g><path fill="none" stroke="none"/><text fill="#000000" stroke="none" font-family="Arial" font-size="13px" font-style="normal" font-weight="normal" text-decoration="none" x="366.5" y="109">Acessar plataforma</text></g></g><g transform="translate(-326,-14) scale(1,1)"><path fill="#C0C0C0" stroke="none" d="M 745 175 L 912.4072265625 175 Q 922.4072265625 175 922.4072265625 185 L 922.4072265625 253 Q 922.4072265625 263 912.4072265625 263 L 745 263 Q 735 263 735 253 L 735 185 Q 735 175 745 175 Z" opacity="0.2"/></g><g transform="translate(-326,-14) scale(1,1)"><path fill="#ffffff" stroke="none" d="M 738 168 L 905.4072265625 168 Q 915.4072265625 168 915.4072265625 178 L 915.4072265625 246 Q 915.4072265625 256 905.4072265625 256 L 738 256 Q 728 256 728 246 L 728 178 Q 728 168 738 168 Z"/></g><g transform="translate(-326,-14) scale(1,1)"><path fill="none" stroke="#000000" d="M 738 168 L 905.4072265625 168 Q 915.4072265625 168 915.4072265625 178 L 915.4072265625 246 Q 915.4072265625 256 905.4072265625 256 L 738 256 Q 728 256 728 246 L 728 178 Q 728 168 738 168 Z" stroke-miterlimit="10"/></g><g transform="translate(-326,-14) scale(1,1)"><path fill="none" stroke="#000000" d="M 728 193 L 915.4072265625 193" stroke-miterlimit="10"/></g><g transform="translate(-326,-14) scale(1,1)"><g><path fill="none" stroke="none"/><text fill="#000000" stroke="none" font-family="Arial" font-size="13px" font-style="normal" font-weight="bold" text-decoration="none" x="732.5" y="186">Cadastrando disponibilidade</text></g></g><g transform="translate(-326,-14) scale(1,1)"><g><path fill="none" stroke="none"/><text fill="#000000" stroke="none" font-family="Arial" font-size="13px" font-style="normal" font-weight="normal" text-decoration="none" x="733" y="209">do/CadastraDisponibilidade</text></g></g><g transform="translate(-326,-14) scale(1,1)"><path fill="none" stroke="#000000" d="M 481 209 L 727 211" stroke-miterlimit="10"/></g><g transform="translate(-326,-14) scale(1,1)"><path fill="none" stroke="#000000" d="M 716.8034384025096 215.1267579997603 L 727 211 L 716.8718835836819 206.7080007155746" stroke-miterlimit="10"/></g><g transform="translate(-326,-14) scale(1,1)"><g><path fill="none" stroke="none"/><text fill="#000000" stroke="none" font-family="Arial" font-size="13px" font-style="normal" font-weight="normal" text-decoration="none" x="532.5" y="200">Cadastra disponibilidade</text></g></g><g transform="translate(-326,-14) scale(1,1)"><path fill="#C0C0C0" stroke="none" d="M 761 455 L 886.54443359375 455 Q 896.54443359375 455 896.54443359375 465 L 896.54443359375 549 Q 896.54443359375 559 886.54443359375 559 L 761 559 Q 751 559 751 549 L 751 465 Q 751 455 761 455 Z" opacity="0.2"/></g><g transform="translate(-326,-14) scale(1,1)"><path fill="#ffffff" stroke="none" d="M 754 448 L 879.54443359375 448 Q 889.54443359375 448 889.54443359375 458 L 889.54443359375 542 Q 889.54443359375 552 879.54443359375 552 L 754 552 Q 744 552 744 542 L 744 458 Q 744 448 754 448 Z"/></g><g transform="translate(-326,-14) scale(1,1)"><path fill="none" stroke="#000000" d="M 754 448 L 879.54443359375 448 Q 889.54443359375 448 889.54443359375 458 L 889.54443359375 542 Q 889.54443359375 552 879.54443359375 552 L 754 552 Q 744 552 744 542 L 744 458 Q 744 448 754 448 Z" stroke-miterlimit="10"/></g><g transform="translate(-326,-14) scale(1,1)"><path fill="none" stroke="#000000" d="M 744 473 L 889.54443359375 473" stroke-miterlimit="10"/></g><g transform="translate(-326,-14) scale(1,1)"><g><path fill="none" stroke="none"/><text fill="#000000" stroke="none" font-family="Arial" font-size="13px" font-style="normal" font-weight="bold" text-decoration="none" x="748.5" y="466">Respondendo reserva</text></g></g><g transform="translate(-326,-14) scale(1,1)"><g><path fill="none" stroke="none"/><text fill="#000000" stroke="none" font-family="Arial" font-size="13px" font-style="normal" font-weight="normal" text-decoration="none" x="749" y="489">do/RespondeReserva</text></g></g><g transform="translate(-326,-14) scale(1,1)"><path fill="#C0C0C0" stroke="none" d="M 807 622 C 807 618.1340064 810.1340064 615 814 615 C 817.8659936 615 821 618.1340064 821 622 C 821 625.8659936 817.8659936 629 814 629 C 810.1340064 629 807 625.8659936 807 622 Z" opacity="0.2"/></g><g transform="translate(-326,-14) scale(1,1)"><path fill="#ffffff" stroke="none" d="M 800 615 C 800 611.1340064 803.1340064 608 807 608 C 810.8659936 608 814 611.1340064 814 615 C 814 618.8659936 810.8659936 622 807 622 C 803.1340064 622 800 618.8659936 800 615 Z"/></g><g transform="translate(-326,-14) scale(1,1)"><path fill="none" stroke="#000000" d="M 800 615 C 800 611.1340064 803.1340064 608 807 608 C 810.8659936 608 814 611.1340064 814 615 C 814 618.8659936 810.8659936 622 807 622 C 803.1340064 622 800 618.8659936 800 615 Z" stroke-miterlimit="10"/></g><g transform="translate(-326,-14) scale(1,1)"><path fill="none" stroke="#000000" d="M 812 553 L 808 607" stroke-miterlimit="10"/></g><g transform="translate(-326,-14) scale(1,1)"><path fill="none" stroke="#000000" d="M 804.5527176011891 596.5541278936199 L 808 607 L 812.9487502409645 597.1760562373071" stroke-miterlimit="10"/></g><g transform="translate(-326,-14) scale(1,1)"><path fill="#C0C0C0" stroke="none" d="M 737 735 L 893 735 Q 903 735 903 745 L 903 829 Q 903 839 893 839 L 737 839 Q 727 839 727 829 L 727 745 Q 727 735 737 735 Z" opacity="0.2"/></g><g transform="translate(-326,-14) scale(1,1)"><path fill="#ffffff" stroke="none" d="M 730 728 L 886 728 Q 896 728 896 738 L 896 822 Q 896 832 886 832 L 730 832 Q 720 832 720 822 L 720 738 Q 720 728 730 728 Z"/></g><g transform="translate(-326,-14) scale(1,1)"><path fill="none" stroke="#000000" d="M 730 728 L 886 728 Q 896 728 896 738 L 896 822 Q 896 832 886 832 L 730 832 Q 720 832 720 822 L 720 738 Q 720 728 730 728 Z" stroke-miterlimit="10"/></g><g transform="translate(-326,-14) scale(1,1)"><path fill="none" stroke="#000000" d="M 720 753 L 896 753" stroke-miterlimit="10"/></g><g transform="translate(-326,-14) scale(1,1)"><g><path fill="none" stroke="none"/><text fill="#000000" stroke="none" font-family="Arial" font-size="13px" font-style="normal" font-weight="bold" text-decoration="none" x="749.115966796875" y="746">Realizando serviço</text></g></g><g transform="translate(-326,-14) scale(1,1)"><g><path fill="none" stroke="none"/><text fill="#000000" stroke="none" font-family="Arial" font-size="13px" font-style="normal" font-weight="normal" text-decoration="none" x="725" y="769">do/RealizaServico</text></g></g><g transform="translate(-326,-14) scale(1,1)"><path fill="none" stroke="#000000" d="M 807 623 L 808 727" stroke-miterlimit="10"/></g><g transform="translate(-326,-14) scale(1,1)"><path fill="none" stroke="#000000" d="M 803.6929633167813 716.8782691692869 L 808 727 L 812.1116096622189 716.7973206467346" stroke-miterlimit="10"/></g><g transform="translate(-326,-14) scale(1,1)"><g><path fill="none" stroke="none"/><text fill="#000000" stroke="none" font-family="Arial" font-size="13px" font-style="normal" font-weight="normal" text-decoration="none" x="735.5" y="679"> [se positivo] / Realiza serviço</text></g></g><g transform="translate(-326,-14) scale(1,1)"><path fill="#C0C0C0" stroke="none" d="M 551 627.5 C 551 620.59644 556.59644 615 563.5 615 C 570.40356 615 576 620.59644 576 627.5 C 576 634.40356 570.40356 640 563.5 640 C 556.59644 640 551 634.40356 551 627.5 Z" opacity="0.2"/></g><g transform="translate(-326,-14) scale(1,1)"><path fill="none" stroke="#000000" d="M 544 620.5 C 544 613.59644 549.59644 608 556.5 608 C 563.40356 608 569 613.59644 569 620.5 C 569 627.40356 563.40356 633 556.5 633 C 549.59644 633 544 627.40356 544 620.5 Z" stroke-miterlimit="10"/></g><g transform="translate(-326,-14) scale(1,1)"><path fill="#000000" stroke="none" d="M 549 620.5 C 549 616.357864 552.357864 613 556.5 613 C 560.642136 613 564 616.357864 564 620.5 C 564 624.642136 560.642136 628 556.5 628 C 552.357864 628 549 624.642136 549 620.5 Z"/></g><g transform="translate(-326,-14) scale(1,1)"><path fill="none" stroke="#000000" d="M 799 615 L 570 620" stroke-miterlimit="10"/></g><g transform="translate(-326,-14) scale(1,1)"><path fill="none" stroke="#000000" d="M 580.0683643488804 615.569645687059 L 570 620 L 580.2521422842898 623.9866751288106" stroke-miterlimit="10"/></g><g transform="translate(-326,-14) scale(1,1)"><g><path fill="none" stroke="none"/><text fill="#000000" stroke="none" font-family="Arial" font-size="13px" font-style="normal" font-weight="normal" text-decoration="none" x="605.5" y="636"> [se negativo] / Encerra OS</text></g></g><g transform="translate(-326,-14) scale(1,1)"><path fill="#C0C0C0" stroke="none" d="M 737 943 L 877 943 Q 887 943 887 953 L 887 1029 Q 887 1039 877 1039 L 737 1039 Q 727 1039 727 1029 L 727 953 Q 727 943 737 943 Z" opacity="0.2"/></g><g transform="translate(-326,-14) scale(1,1)"><path fill="#ffffff" stroke="none" d="M 730 936 L 870 936 Q 880 936 880 946 L 880 1022 Q 880 1032 870 1032 L 730 1032 Q 720 1032 720 1022 L 720 946 Q 720 936 730 936 Z"/></g><g transform="translate(-326,-14) scale(1,1)"><path fill="none" stroke="#000000" d="M 730 936 L 870 936 Q 880 936 880 946 L 880 1022 Q 880 1032 870 1032 L 730 1032 Q 720 1032 720 1022 L 720 946 Q 720 936 730 936 Z" stroke-miterlimit="10"/></g><g transform="translate(-326,-14) scale(1,1)"><path fill="none" stroke="#000000" d="M 720 961 L 880 961" stroke-miterlimit="10"/></g><g transform="translate(-326,-14) scale(1,1)"><g><path fill="none" stroke="none"/><text fill="#000000" stroke="none" font-family="Arial" font-size="13px" font-style="normal" font-weight="bold" text-decoration="none" x="737.992919921875" y="954">Terminando Serviço</text></g></g><g transform="translate(-326,-14) scale(1,1)"><g><path fill="none" stroke="none"/><text fill="#000000" stroke="none" font-family="Arial" font-size="13px" font-style="normal" font-weight="normal" text-decoration="none" x="725" y="977">do/TerminaServico</text></g></g><g transform="translate(-326,-14) scale(1,1)"><path fill="none" stroke="#000000" d="M 806 833 L 802 935" stroke-miterlimit="10"/></g><g transform="translate(-326,-14) scale(1,1)"><path fill="none" stroke="#000000" d="M 798.1919455344537 924.6801782385821 L 802 935 L 806.6045148124196 925.0100829161495" stroke-miterlimit="10"/></g><g transform="translate(-326,-14) scale(1,1)"><g><path fill="none" stroke="none"/><text fill="#000000" stroke="none" font-family="Arial" font-size="13px" font-style="normal" font-weight="normal" text-decoration="none" x="764.5" y="889">Serviço Finalizado</text></g></g><g transform="translate(-326,-14) scale(1,1)"><path fill="#C0C0C0" stroke="none" d="M 745 335 L 903.025390625 335 Q 913.025390625 335 913.025390625 345 L 913.025390625 372 Q 913.025390625 382 903.025390625 382 L 745 382 Q 735 382 735 372 L 735 345 Q 735 335 745 335 Z" opacity="0.2"/></g><g transform="translate(-326,-14) scale(1,1)"><path fill="#ffffff" stroke="none" d="M 738 328 L 896.025390625 328 Q 906.025390625 328 906.025390625 338 L 906.025390625 365 Q 906.025390625 375 896.025390625 375 L 738 375 Q 728 375 728 365 L 728 338 Q 728 328 738 328 Z"/></g><g transform="translate(-326,-14) scale(1,1)"><path fill="none" stroke="#000000" d="M 738 328 L 896.025390625 328 Q 906.025390625 328 906.025390625 338 L 906.025390625 365 Q 906.025390625 375 896.025390625 375 L 738 375 Q 728 375 728 365 L 728 338 Q 728 328 738 328 Z" stroke-miterlimit="10"/></g><g transform="translate(-326,-14) scale(1,1)"><path fill="none" stroke="#000000" d="M 728 353 L 906.025390625 353" stroke-miterlimit="10"/></g><g transform="translate(-326,-14) scale(1,1)"><g><path fill="none" stroke="none"/><text fill="#000000" stroke="none" font-family="Arial" font-size="13px" font-style="normal" font-weight="bold" text-decoration="none" x="732.5" y="346">Verificando disponibilidade</text></g></g><g transform="translate(-326,-14) scale(1,1)"><g><path fill="none" stroke="none"/><text fill="#000000" stroke="none" font-family="Arial" font-size="13px" font-style="normal" font-weight="normal" text-decoration="none" x="733" y="369">do/VerificaDisponibilidade</text></g></g><g transform="translate(-326,-14) scale(1,1)"><path fill="none" stroke="#000000" d="M 820 257 L 818 327" stroke-miterlimit="10"/></g><g transform="translate(-326,-14) scale(1,1)"><path fill="none" stroke="#000000" d="M 814.0824430594122 316.7212477597107 L 818 327 L 822.4980443328709 316.96169351038094" stroke-miterlimit="10"/></g><g transform="translate(-326,-14) scale(1,1)"><g><path fill="none" stroke="none"/><text fill="#000000" stroke="none" font-family="Arial" font-size="13px" font-style="normal" font-weight="normal" text-decoration="none" x="771.5" y="297">Envia disponibilidade</text></g></g><g transform="translate(-326,-14) scale(1,1)"><path fill="none" stroke="#000000" d="M 817 376 L 816 447" stroke-miterlimit="10"/></g><g transform="translate(-326,-14) scale(1,1)"><path fill="none" stroke="#000000" d="M 811.9340217804229 436.77904989162334 L 816 447 L 820.3522223605827 436.89761609697774" stroke-miterlimit="10"/></g><g transform="translate(-326,-14) scale(1,1)"><g><path fill="none" stroke="none"/><text fill="#000000" stroke="none" font-family="Arial" font-size="13px" font-style="normal" font-weight="normal" text-decoration="none" x="785.5" y="415">Espera reserva</text></g></g><g transform="translate(-326,-14) scale(1,1)"><path fill="none" stroke="#000000" d="M 817 328 L 817 307 L 936 307 L 936 351 L 906 351" stroke-miterlimit="10"/></g><g transform="translate(-326,-14) scale(1,1)"><path fill="none" stroke="#000000" d="M 916.1626748576241 346.790482243984 L 906 351 L 916.1626748576241 355.209517756016" stroke-miterlimit="10"/></g><g transform="translate(-326,-14) scale(1,1)"><g><path fill="none" stroke="none"/><text fill="#000000" stroke="none" font-family="Arial" font-size="13px" font-style="normal" font-weight="normal" text-decoration="none" x="942.5" y="331">Verifica agenda</text></g></g><g transform="translate(-326,-14) scale(1,1)"><path fill="#C0C0C0" stroke="none" d="M 791 1147.5 C 791 1140.59644 796.59644 1135 803.5 1135 C 810.40356 1135 816 1140.59644 816 1147.5 C 816 1154.40356 810.40356 1160 803.5 1160 C 796.59644 1160 791 1154.40356 791 1147.5 Z" opacity="0.2"/></g><g transform="translate(-326,-14) scale(1,1)"><path fill="none" stroke="#000000" d="M 784 1140.5 C 784 1133.59644 789.59644 1128 796.5 1128 C 803.40356 1128 809 1133.59644 809 1140.5 C 809 1147.40356 803.40356 1153 796.5 1153 C 789.59644 1153 784 1147.40356 784 1140.5 Z" stroke-miterlimit="10"/></g><g transform="translate(-326,-14) scale(1,1)"><path fill="#000000" stroke="none" d="M 789 1140.5 C 789 1136.357864 792.357864 1133 796.5 1133 C 800.642136 1133 804 1136.357864 804 1140.5 C 804 1144.642136 800.642136 1148 796.5 1148 C 792.357864 1148 789 1144.642136 789 1140.5 Z"/></g><g transform="translate(-326,-14) scale(1,1)"><path fill="none" stroke="#000000" d="M 799 1033 L 796 1127" stroke-miterlimit="10"/></g><g transform="translate(-326,-14) scale(1,1)"><path fill="none" stroke="#000000" d="M 792.1168000645071 1116.7082188975382 L 796 1127 L 800.531551200948 1116.9767747848716" stroke-miterlimit="10"/></g><g transform="translate(-326,-14) scale(1,1)"><g><path fill="none" stroke="none"/><text fill="#000000" stroke="none" font-family="Arial" font-size="13px" font-style="normal" font-weight="normal" text-decoration="none" x="779.5" y="1085">Fim do OS</text></g></g></g></svg>